{"glyphs":{"0":{"ha":1763,"x_min":624,"x_max":1139,"o":"m 880 120 q 1079 226 1019 120 q 1139 519 1139 332 q 1110 734 1139 646 q 1024 870 1082 823 q 880 918 967 918 q 731 870 787 918 q 649 734 675 823 q 624 519 624 645 q 687 226 624 332 q 880 120 749 120 m 879 201 q 754 281 791 201 q 718 519 718 360 q 734 696 718 625 q 785 801 749 766 q 879 836 821 836 q 972 801 937 836 q 1024 696 1008 766 q 1040 519 1040 625 q 1003 280 1040 359 q 879 201 966 201 z "},"1":{"ha":1763,"x_min":737,"x_max":1026,"o":"m 932 132 l 1026 132 l 1026 907 l 947 907 l 737 744 l 787 680 l 869 747 q 906 777 891 764 q 938 808 921 790 q 934 748 935 777 q 932 673 932 720 l 932 132 z "},"2":{"ha":1763,"x_min":625,"x_max":1138,"o":"m 625 132 l 1138 132 l 1138 218 l 746 218 l 746 222 l 907 382 q 1011 493 966 441 q 1081 597 1056 545 q 1106 711 1106 650 q 1043 862 1106 807 q 872 917 980 917 q 780 905 823 917 q 701 872 737 892 q 634 826 665 852 l 685 762 q 772 816 730 797 q 872 836 815 836 q 971 802 933 836 q 1008 705 1008 769 q 988 609 1008 653 q 927 520 967 566 q 829 416 887 475 l 625 211 l 625 132 z "},"3":{"ha":1763,"x_min":627,"x_max":1137,"o":"m 840 121 q 1065 185 994 121 q 1137 352 1137 250 q 1091 476 1137 429 q 952 535 1045 524 l 952 540 q 1069 601 1025 554 q 1113 725 1113 647 q 1054 862 1113 808 q 873 917 994 917 q 734 893 795 917 q 631 837 673 869 l 679 772 q 767 819 722 800 q 874 837 812 837 q 977 806 939 837 q 1015 719 1015 775 q 993 642 1015 675 q 928 591 971 609 q 821 572 884 572 l 745 572 l 745 491 l 820 491 q 980 459 922 491 q 1037 354 1037 427 q 991 241 1037 282 q 840 201 945 201 q 732 214 789 201 q 627 252 675 228 l 627 163 q 727 130 675 140 q 840 121 779 121 z "},"4":{"ha":1763,"x_min":593,"x_max":1170,"o":"m 964 132 l 1057 132 l 1057 307 l 1170 307 l 1170 393 l 1057 393 l 1057 906 l 958 906 l 593 389 l 593 307 l 964 307 l 964 132 m 687 393 l 919 721 q 944 761 930 737 q 966 806 957 785 l 970 806 q 968 756 969 782 q 965 702 966 731 q 964 634 964 672 l 964 393 l 687 393 z "},"5":{"ha":1763,"x_min":636,"x_max":1127,"o":"m 837 121 q 1050 190 974 121 q 1127 380 1127 259 q 1056 548 1127 488 q 867 608 985 608 q 797 603 828 608 q 747 595 766 599 l 766 819 l 1073 819 l 1073 906 l 684 906 l 655 541 l 703 511 q 765 522 726 517 q 835 527 804 527 q 983 486 936 527 q 1029 370 1029 446 q 977 243 1029 284 q 838 203 924 203 q 731 217 787 203 q 636 254 675 231 l 636 163 q 725 132 672 142 q 837 121 777 121 z "},"6":{"ha":1763,"x_min":627,"x_max":1137,"o":"m 889 202 q 817 220 848 202 q 765 266 786 237 q 733 330 744 295 q 723 401 723 366 q 744 468 723 435 q 804 522 766 500 q 892 543 842 543 q 1005 500 967 543 q 1042 382 1042 457 q 1000 246 1042 290 q 889 202 958 202 m 890 122 q 1070 192 1004 122 q 1137 382 1137 262 q 1075 556 1137 495 q 912 618 1013 618 q 798 591 842 618 q 728 527 753 565 l 722 527 q 749 683 726 612 q 828 797 772 754 q 983 840 883 840 q 1033 837 1008 840 q 1077 827 1058 834 l 1077 909 q 1032 916 1059 914 q 981 918 1004 918 q 803 879 872 918 q 695 774 733 840 q 642 628 656 709 q 627 464 627 547 q 647 313 627 377 q 703 206 667 248 q 787 143 739 163 q 890 122 835 122 z "},"7":{"ha":1763,"x_min":621,"x_max":1141,"o":"m 722 132 l 827 132 l 1141 833 l 1141 906 l 621 906 l 621 819 l 1039 819 l 722 132 z "},"8":{"ha":1763,"x_min":625,"x_max":1138,"o":"m 882 197 q 758 235 798 197 q 718 329 718 273 q 735 398 718 368 q 784 453 751 429 q 865 498 817 477 l 882 492 q 1000 426 956 465 q 1044 332 1044 388 q 1002 235 1044 273 q 882 197 960 197 m 884 121 q 1018 147 961 121 q 1107 220 1076 173 q 1138 333 1138 268 q 1115 424 1138 386 q 1052 491 1091 462 q 965 543 1013 519 q 1069 618 1025 574 q 1113 732 1113 663 q 1083 834 1113 793 q 1001 896 1053 875 q 881 918 949 918 q 763 896 815 918 q 680 834 710 875 q 650 733 650 793 q 668 650 650 686 q 716 586 686 614 q 785 537 747 559 q 673 458 722 508 q 625 330 625 408 q 692 176 625 231 q 884 121 759 121 m 885 579 q 784 637 825 605 q 743 729 743 669 q 782 812 743 783 q 880 841 820 841 q 980 812 942 841 q 1019 729 1019 783 q 980 637 1019 671 q 885 579 941 603 z "},"9":{"ha":1763,"x_min":627,"x_max":1136,"o":"m 781 122 q 960 161 890 122 q 1068 266 1029 200 q 1121 412 1106 331 q 1136 576 1136 492 q 1116 727 1136 663 q 1060 833 1096 791 q 977 896 1024 875 q 874 917 929 917 q 694 847 762 917 q 627 656 627 777 q 688 483 627 544 q 849 422 749 422 q 964 448 920 422 q 1033 512 1008 475 l 1040 512 q 1013 356 1036 427 q 935 243 990 286 q 779 200 880 200 q 728 204 754 200 q 683 214 703 208 l 683 133 q 730 125 701 127 q 781 122 759 122 m 869 497 q 758 540 794 497 q 721 656 721 583 q 764 792 721 748 q 874 837 806 837 q 946 819 916 837 q 998 772 977 802 q 1029 708 1019 743 q 1040 638 1040 673 q 1019 572 1040 604 q 960 518 998 539 q 869 497 922 497 z "},"\u0000":{"ha":814,"x_min":0,"x_max":0,"o":""},"\r":{"ha":814,"x_min":0,"x_max":0,"o":""}," ":{"ha":1763,"x_min":0,"x_max":0,"o":""},"#":{"ha":1763,"x_min":559,"x_max":1204,"o":"m 654 92 l 695 318 l 559 318 l 559 391 l 709 391 l 744 564 l 599 564 l 599 636 l 757 636 l 800 866 l 879 866 l 836 636 l 991 636 l 1035 866 l 1109 866 l 1066 636 l 1204 636 l 1204 564 l 1052 564 l 1019 391 l 1167 391 l 1167 318 l 1004 318 l 960 92 l 883 92 l 927 318 l 772 318 l 730 92 l 654 92 m 787 391 l 941 391 l 975 564 l 820 564 l 787 391 z "},"*":{"ha":1763,"x_min":578,"x_max":1185,"o":"m 984 223 l 876 437 l 782 224 l 656 288 l 806 486 l 578 504 l 598 635 l 838 566 l 810 810 l 950 810 l 922 566 l 1168 635 l 1185 502 l 954 486 l 1105 286 l 984 223 z "},"©":{"ha":1763,"x_min":176,"x_max":1587,"o":"m 882 -231 q 599 -178 728 -231 q 375 -31 470 -126 q 228 193 280 64 q 176 475 176 321 q 228 758 176 629 q 375 981 280 886 q 599 1128 470 1076 q 882 1180 728 1180 q 1155 1128 1027 1180 q 1380 981 1283 1076 q 1532 758 1477 886 q 1587 475 1587 629 q 1535 193 1587 321 q 1388 -31 1482 64 q 1164 -178 1293 -126 q 882 -231 1035 -231 m 911 43 q 699 97 783 43 q 573 248 614 151 q 531 475 531 345 q 576 697 531 600 q 707 848 621 793 q 918 903 793 903 q 1038 889 977 903 q 1154 846 1100 874 l 1099 728 q 1005 766 1050 753 q 920 779 960 779 q 790 742 844 779 q 709 637 737 705 q 682 475 682 569 q 705 309 682 377 q 781 205 729 241 q 918 170 833 170 q 1017 182 962 170 q 1118 213 1072 195 l 1118 90 q 1026 57 1073 70 q 911 43 979 43 m 882 -128 q 1113 -84 1005 -128 q 1303 42 1221 -39 q 1431 233 1385 123 q 1478 475 1478 343 q 1434 709 1478 600 q 1310 902 1390 819 q 1121 1032 1230 985 q 882 1079 1012 1079 q 642 1035 751 1079 q 452 909 532 990 q 328 718 372 828 q 283 475 283 607 q 328 241 283 350 q 452 48 372 132 q 642 -81 532 -35 q 882 -128 751 -128 z "},"®":{"ha":1763,"x_min":176,"x_max":1587,"o":"m 882 -231 q 600 -178 728 -231 q 376 -31 471 -126 q 229 193 281 64 q 176 475 176 321 q 229 757 176 628 q 376 981 281 886 q 600 1128 471 1076 q 882 1180 728 1180 q 1164 1128 1035 1180 q 1388 981 1293 1076 q 1535 757 1482 886 q 1587 475 1587 628 q 1535 193 1587 321 q 1388 -31 1482 64 q 1164 -178 1293 -126 q 882 -231 1035 -231 m 882 -129 q 1121 -84 1012 -129 q 1311 41 1231 -40 q 1435 233 1391 122 q 1479 475 1479 343 q 1435 717 1479 606 q 1311 908 1391 827 q 1121 1034 1231 989 q 882 1078 1012 1078 q 642 1034 751 1078 q 452 908 532 989 q 328 717 372 827 q 284 475 284 606 q 328 233 284 343 q 452 41 372 122 q 642 -84 532 -40 q 882 -129 751 -129 m 618 54 l 618 893 l 865 893 q 1095 831 1022 893 q 1168 646 1168 770 q 1122 503 1168 555 q 1019 427 1076 450 l 1242 54 l 1076 54 l 884 386 l 765 386 l 765 54 l 618 54 m 765 505 l 861 505 q 978 543 936 505 q 1020 642 1020 581 q 981 740 1020 710 q 859 770 943 770 l 765 770 l 765 505 z "},"‍":{"ha":0,"x_min":0,"x_max":0,"o":""},"‼":{"ha":1763,"x_min":475,"x_max":1289,"o":"m 1039 241 l 1017 1180 l 1252 1180 l 1230 241 l 1039 241 m 629 -231 q 552 -210 587 -231 q 496 -153 517 -189 q 475 -76 475 -118 q 496 1 475 -34 q 552 57 517 36 q 629 78 587 78 q 706 57 671 78 q 762 1 741 36 q 783 -76 783 -34 q 762 -153 783 -118 q 706 -210 741 -189 q 629 -231 671 -231 m 1134 -231 q 1057 -210 1092 -231 q 1001 -153 1022 -189 q 980 -76 980 -118 q 1001 1 980 -34 q 1057 57 1022 36 q 1134 78 1092 78 q 1212 57 1177 78 q 1267 1 1246 36 q 1289 -76 1289 -34 q 1267 -153 1289 -118 q 1212 -210 1246 -189 q 1134 -231 1177 -231 m 534 241 l 511 1180 l 747 1180 l 724 241 l 534 241 z "},"⁉":{"ha":1763,"x_min":264,"x_max":1499,"o":"m 983 237 q 995 350 985 302 q 1025 434 1005 397 q 1078 509 1045 472 q 1161 590 1112 545 q 1233 660 1203 629 q 1278 724 1263 690 q 1294 805 1294 758 q 1246 953 1294 899 q 1105 1006 1198 1006 q 964 957 1017 1006 q 900 825 910 908 l 699 825 q 751 1006 699 926 q 894 1133 803 1086 q 1103 1180 985 1180 q 1396 1081 1293 1180 q 1499 812 1499 982 q 1478 696 1499 749 q 1411 588 1458 643 q 1285 464 1364 533 q 1218 396 1241 425 q 1186 331 1196 367 q 1173 237 1177 295 l 983 237 m 421 -231 q 342 -210 378 -231 q 286 -153 307 -189 q 264 -76 264 -118 q 286 1 264 -34 q 342 57 307 36 q 421 78 378 78 q 499 57 464 78 q 555 1 534 36 q 576 -76 576 -34 q 555 -153 576 -118 q 499 -210 534 -189 q 421 -231 464 -231 m 1078 -231 q 999 -210 1034 -231 q 942 -153 963 -189 q 921 -76 921 -118 q 942 1 921 -34 q 999 57 963 36 q 1078 78 1034 78 q 1156 57 1120 78 q 1212 1 1191 36 q 1233 -76 1233 -34 q 1212 -153 1233 -118 q 1156 -210 1191 -189 q 1078 -231 1120 -231 m 323 241 l 301 1180 l 540 1180 l 517 241 l 323 241 z "},"⃣":{"ha":1763,"x_min":176,"x_max":1587,"o":"m 289 -231 q 210 -198 243 -231 q 176 -119 176 -165 l 176 1068 q 210 1147 176 1114 q 288 1180 243 1180 l 1475 1180 q 1554 1147 1521 1180 q 1587 1068 1587 1114 l 1587 -119 q 1554 -197 1587 -164 q 1475 -231 1521 -231 l 289 -231 m 289 -176 l 1475 -176 q 1516 -159 1499 -176 q 1533 -119 1533 -142 l 1533 1068 q 1516 1109 1533 1092 q 1475 1126 1499 1126 l 288 1126 q 248 1109 265 1126 q 231 1068 231 1092 l 231 -119 q 248 -159 231 -142 q 289 -176 265 -176 m 259 -194 l 441 -12 l 1303 -12 q 1350 8 1331 -12 q 1369 56 1369 28 l 1369 916 l 1551 1098 q 1564 1069 1562 1084 q 1565 1022 1565 1053 l 1565 -119 q 1543 -172 1565 -150 q 1491 -194 1521 -194 l 259 -194 z "},"™":{"ha":1763,"x_min":163,"x_max":1600,"o":"m 856 102 l 856 848 l 995 848 l 1225 237 l 1229 237 l 1463 848 l 1600 848 l 1600 102 l 1508 102 l 1508 560 q 1509 633 1508 597 q 1512 701 1510 669 q 1515 755 1514 732 l 1511 755 l 1262 102 l 1185 102 l 939 755 l 935 755 q 941 669 939 724 q 943 554 943 614 l 943 102 l 856 102 m 396 102 l 396 765 l 163 765 l 163 848 l 722 848 l 722 765 l 490 765 l 490 102 l 396 102 z "},"ℹ":{"ha":1763,"x_min":176,"x_max":1587,"o":"m 793 -21 l 970 -21 l 970 652 l 793 652 l 793 -21 m 882 739 q 961 772 928 739 q 994 851 994 804 q 961 930 994 898 q 882 963 928 963 q 802 930 835 963 q 770 851 770 898 q 802 772 770 804 q 882 739 835 739 m 289 -231 q 210 -198 243 -231 q 176 -119 176 -165 l 176 1068 q 210 1147 176 1114 q 288 1180 243 1180 l 1475 1180 q 1554 1147 1521 1180 q 1587 1068 1587 1114 l 1587 -119 q 1554 -197 1587 -164 q 1475 -231 1521 -231 l 289 -231 z "},"↔":{"ha":1763,"x_min":176,"x_max":1587,"o":"m 288 -231 q 210 -197 243 -231 q 176 -119 176 -164 l 176 1069 q 210 1147 176 1115 q 289 1180 243 1180 l 1475 1180 q 1554 1147 1521 1180 q 1587 1068 1587 1114 l 1587 -119 q 1554 -197 1587 -164 q 1475 -231 1521 -231 l 288 -231 m 679 181 l 679 394 l 1084 394 l 1084 181 l 1398 475 l 1084 768 l 1084 555 l 679 555 l 679 768 l 366 475 l 679 181 z "},"↕":{"ha":1763,"x_min":176,"x_max":1587,"o":"m 288 -231 q 210 -197 243 -231 q 176 -119 176 -164 l 176 1069 q 210 1147 176 1115 q 289 1180 243 1180 l 1475 1180 q 1554 1147 1521 1180 q 1587 1068 1587 1114 l 1587 -119 q 1554 -197 1587 -164 q 1475 -231 1521 -231 l 288 -231 m 882 -41 l 1175 272 l 962 272 l 962 677 l 1175 677 l 882 991 l 588 677 l 801 677 l 801 272 l 588 272 l 882 -41 z "},"↖":{"ha":1763,"x_min":176,"x_max":1587,"o":"m 288 -231 q 210 -197 243 -231 q 176 -119 176 -164 l 176 1068 q 210 1147 176 1114 q 288 1180 243 1180 l 1475 1180 q 1554 1147 1521 1180 q 1587 1068 1587 1114 l 1587 -119 q 1554 -198 1587 -165 q 1474 -231 1520 -231 l 288 -231 m 1162 97 l 1276 212 l 827 660 l 978 810 l 549 824 l 563 395 l 713 546 l 1162 97 z "},"↗":{"ha":1763,"x_min":176,"x_max":1587,"o":"m 289 -231 q 210 -198 243 -231 q 176 -119 176 -165 l 176 1068 q 210 1147 176 1114 q 288 1180 243 1180 l 1475 1180 q 1554 1147 1521 1180 q 1587 1068 1587 1114 l 1587 -119 q 1554 -197 1587 -164 q 1475 -231 1521 -231 l 289 -231 m 602 97 l 1050 546 l 1200 395 l 1214 824 l 785 810 l 936 660 l 487 212 l 602 97 z "},"↘":{"ha":1763,"x_min":176,"x_max":1587,"o":"m 288 -231 q 210 -197 243 -231 q 176 -119 176 -164 l 176 1069 q 210 1147 176 1115 q 289 1180 243 1180 l 1475 1180 q 1554 1147 1521 1180 q 1587 1068 1587 1114 l 1587 -119 q 1554 -197 1587 -164 q 1475 -231 1521 -231 l 288 -231 m 1214 125 l 1200 554 l 1050 404 l 602 852 l 487 738 l 936 290 l 785 139 l 1214 125 z "},"↙":{"ha":1763,"x_min":176,"x_max":1587,"o":"m 289 -231 q 210 -198 243 -231 q 176 -119 176 -165 l 176 1068 q 210 1147 176 1114 q 288 1180 243 1180 l 1475 1180 q 1554 1147 1521 1180 q 1587 1068 1587 1114 l 1587 -119 q 1554 -197 1587 -164 q 1475 -231 1521 -231 l 289 -231 m 549 125 l 978 139 l 827 290 l 1276 738 l 1162 852 l 713 404 l 563 554 l 549 125 z "},"↩":{"ha":1763,"x_min":176,"x_max":1587,"o":"m 288 -231 q 210 -197 243 -231 q 176 -119 176 -164 l 176 1068 q 210 1147 176 1114 q 288 1180 243 1180 l 1474 1180 q 1554 1147 1520 1180 q 1587 1069 1587 1115 l 1587 -119 q 1554 -197 1587 -164 q 1475 -231 1521 -231 l 288 -231 m 658 19 l 658 232 l 1057 232 q 1239 277 1160 232 q 1365 402 1319 323 q 1411 584 1411 482 q 1365 767 1411 687 q 1240 891 1320 846 q 1057 937 1160 937 l 732 937 l 732 776 l 1057 776 q 1197 723 1145 776 q 1250 584 1250 671 q 1197 446 1250 498 q 1057 393 1144 393 l 658 393 l 658 606 l 345 313 l 658 19 z "},"↪":{"ha":1763,"x_min":176,"x_max":1587,"o":"m 288 -231 q 210 -197 243 -231 q 176 -119 176 -164 l 176 1068 q 210 1147 176 1114 q 288 1180 243 1180 l 1474 1180 q 1554 1147 1520 1180 q 1587 1069 1587 1115 l 1587 -119 q 1554 -197 1587 -164 q 1475 -231 1521 -231 l 288 -231 m 1105 19 l 1419 313 l 1105 606 l 1105 393 l 706 393 q 566 446 619 393 q 513 584 513 498 q 566 723 513 671 q 706 776 618 776 l 1031 776 l 1031 937 l 706 937 q 523 891 603 937 q 398 767 444 846 q 353 584 353 687 q 398 402 353 482 q 524 277 444 323 q 706 232 604 232 l 1105 232 l 1105 19 z "},"⌚":{"ha":1763,"x_min":319,"x_max":1444,"o":"m 838 -51 q 637 -10 732 -51 q 472 102 543 31 q 359 269 400 174 q 319 473 319 364 q 359 676 319 581 q 472 843 400 771 q 637 956 543 915 q 838 996 732 996 q 1039 956 945 996 q 1205 843 1133 915 q 1317 676 1276 771 q 1358 473 1358 581 q 1317 269 1358 364 q 1205 102 1276 174 q 1039 -10 1133 31 q 838 -51 945 -51 m 522 -231 l 473 -43 l 526 -29 l 564 -176 l 1106 -176 l 1144 -29 l 1197 -43 l 1148 -231 l 522 -231 m 501 255 l 481 290 l 541 324 l 562 290 l 501 255 m 655 116 l 621 136 l 655 195 l 690 176 l 655 116 m 545 -71 q 459 -48 491 -71 q 413 33 427 -26 q 399 200 399 92 l 414 200 q 608 31 508 83 q 830 -22 707 -22 q 1053 31 953 -22 q 1247 200 1153 83 l 1261 200 q 1247 33 1261 92 q 1201 -48 1233 -26 q 1115 -71 1169 -71 q 949 -71 1008 -71 q 865 -71 890 -71 q 835 -71 840 -71 q 830 -71 829 -71 q 826 -71 831 -71 q 795 -71 821 -71 q 711 -71 770 -71 q 545 -71 652 -71 m 437 452 l 437 493 l 507 493 l 507 452 l 437 452 m 818 72 l 818 141 l 859 141 l 859 72 l 818 72 m 541 621 l 481 656 l 501 690 l 561 656 l 541 621 m 1021 115 l 987 176 l 1021 196 l 1056 136 l 1021 115 m 795 458 l 642 549 l 670 596 l 823 504 l 795 458 m 838 3 q 1018 40 934 3 q 1166 141 1102 77 q 1267 291 1231 205 q 1303 473 1303 376 q 1267 655 1303 570 q 1166 804 1231 740 q 1018 905 1102 869 q 838 942 934 942 q 659 905 743 942 q 510 804 574 869 q 409 655 446 740 q 373 473 373 570 q 409 291 373 376 q 510 141 446 205 q 659 40 574 77 q 838 3 743 3 m 838 401 q 788 422 809 401 q 767 473 767 444 q 788 523 767 503 q 838 544 809 544 q 888 523 867 544 q 909 473 909 503 q 888 422 909 444 q 838 401 867 401 m 655 749 l 621 810 l 655 830 l 690 770 l 655 749 m 1175 255 l 1116 290 l 1135 325 l 1195 290 l 1175 255 m 876 465 l 854 500 l 1050 622 l 1073 587 l 876 465 m 1170 452 l 1170 493 l 1239 493 l 1239 452 l 1170 452 m 818 804 l 818 873 l 859 873 l 859 804 l 818 804 m 404 747 q 418 914 404 856 q 464 995 432 972 q 550 1018 496 1018 q 716 1018 657 1018 q 800 1018 774 1018 q 831 1018 825 1018 q 835 1018 836 1018 q 840 1018 834 1018 q 870 1018 845 1018 q 954 1018 895 1018 q 1120 1018 1013 1018 q 1206 995 1174 1018 q 1252 914 1238 972 q 1265 747 1265 856 l 1252 747 q 1058 917 1158 865 q 835 968 958 968 q 612 917 712 968 q 418 747 513 865 l 404 747 m 1021 750 l 986 770 l 1021 829 l 1056 810 l 1021 750 m 1135 621 l 1115 656 l 1175 690 l 1196 656 l 1135 621 m 1339 392 q 1316 414 1316 392 l 1316 537 q 1339 559 1316 559 l 1411 559 q 1435 534 1426 559 q 1444 475 1444 509 q 1435 417 1444 442 q 1411 392 1426 392 l 1339 392 m 526 979 l 473 992 l 522 1180 l 1148 1180 l 1197 992 l 1144 979 l 1106 1126 l 564 1126 l 526 979 z "},"⌛":{"ha":1763,"x_min":434,"x_max":1329,"o":"m 1235 -8 q 1162 275 1235 164 q 928 451 1089 385 l 928 496 q 1162 677 1088 562 q 1235 975 1235 793 l 1290 975 q 1209 651 1290 778 q 958 454 1128 524 l 956 493 q 1209 301 1128 423 q 1290 -8 1290 178 l 1235 -8 m 882 -231 q 695 -223 781 -231 q 548 -203 610 -216 q 458 -174 487 -191 q 439 -157 444 -165 q 434 -133 434 -149 l 434 -10 l 487 -10 l 487 -179 l 452 -110 q 617 -161 511 -145 q 882 -176 724 -176 q 1146 -161 1040 -176 q 1311 -110 1253 -145 l 1276 -179 l 1276 -10 l 1329 -10 l 1329 -133 q 1324 -157 1329 -149 q 1305 -174 1319 -165 q 1215 -203 1276 -191 q 1068 -223 1154 -216 q 882 -231 983 -231 m 882 -89 q 713 -83 793 -89 q 570 -68 633 -78 q 470 -45 507 -58 q 434 -17 434 -32 q 470 12 434 -1 q 569 35 507 24 q 713 50 632 45 q 882 56 793 56 q 1051 50 970 56 q 1194 35 1131 45 q 1293 12 1257 24 q 1329 -17 1329 -1 q 1293 -45 1329 -32 q 1194 -68 1257 -58 q 1050 -83 1131 -78 q 882 -89 970 -89 m 588 1 q 616 62 593 27 q 670 136 638 97 q 736 213 703 175 q 796 284 768 250 q 839 345 824 318 q 864 381 854 372 q 882 391 873 391 q 900 381 891 391 q 924 345 909 372 q 967 284 939 318 q 1027 213 996 250 q 1093 136 1061 175 q 1148 62 1125 97 q 1175 1 1171 27 l 588 1 m 473 -8 q 554 301 473 178 q 808 493 635 423 l 806 454 q 554 651 635 524 q 473 975 473 778 l 528 975 q 602 677 528 793 q 835 496 675 562 l 835 451 q 601 275 674 385 q 528 -8 528 164 l 473 -8 m 882 901 q 703 908 788 901 q 554 930 617 916 q 461 960 490 943 q 440 980 446 969 q 434 1009 434 990 l 434 1107 l 487 1107 l 487 957 l 448 1036 q 591 976 475 998 q 882 955 707 955 q 1172 976 1056 955 q 1316 1036 1289 998 l 1276 957 l 1276 1107 l 1329 1107 l 1329 1009 q 1323 980 1329 990 q 1302 960 1318 969 q 1210 930 1274 943 q 1061 908 1146 916 q 882 901 976 901 m 882 1036 q 713 1041 793 1036 q 570 1056 633 1046 q 470 1079 507 1066 q 434 1107 434 1093 q 470 1136 434 1123 q 569 1159 507 1149 q 713 1175 632 1169 q 882 1180 793 1180 q 1051 1175 970 1180 q 1194 1159 1131 1169 q 1293 1136 1257 1149 q 1329 1107 1329 1123 q 1293 1079 1329 1093 q 1194 1056 1257 1066 q 1050 1041 1131 1046 q 882 1036 970 1036 z "},"⌨":{"ha":1763,"x_min":115,"x_max":1649,"o":"m 264 7 q 154 46 193 7 q 115 156 115 85 l 115 793 q 154 903 115 864 q 264 943 193 943 l 1499 943 q 1609 903 1570 943 q 1649 793 1649 864 l 1649 156 q 1609 46 1649 85 q 1499 7 1570 7 l 264 7 m 264 61 l 1499 61 q 1571 84 1548 61 q 1594 156 1594 108 l 1594 793 q 1571 865 1594 842 q 1499 888 1548 888 l 264 888 q 192 865 216 888 q 169 793 169 842 l 169 156 q 192 84 169 108 q 264 61 216 61 m 275 269 l 332 269 q 347 285 347 269 l 347 341 q 342 353 347 348 q 332 358 338 358 l 275 358 q 260 341 260 358 l 260 285 q 275 269 260 269 m 425 269 l 481 269 q 494 273 489 269 q 498 285 498 278 l 498 341 q 494 353 498 348 q 483 358 490 358 l 427 358 q 411 341 411 358 l 411 285 q 425 269 411 269 m 275 413 l 427 413 q 441 429 441 413 l 441 486 q 427 502 441 502 l 275 502 q 260 486 260 502 l 260 429 q 275 413 260 413 m 275 557 l 380 557 q 395 574 395 557 l 395 630 q 380 646 395 646 l 275 646 q 260 630 260 646 l 260 574 q 264 562 260 567 q 275 557 269 557 m 517 413 l 573 413 q 588 428 588 413 l 588 484 q 573 500 588 500 l 517 500 q 501 484 501 500 l 501 428 q 506 418 501 422 q 517 413 511 413 m 276 701 l 333 701 q 348 718 348 701 l 348 774 q 333 791 348 791 l 276 791 q 261 774 261 791 l 261 718 q 276 701 261 701 m 467 557 l 524 557 q 535 562 530 557 q 541 574 541 567 l 541 630 q 524 646 541 646 l 467 646 q 452 630 452 646 l 452 574 q 457 562 452 567 q 467 557 461 557 m 661 413 l 718 413 q 732 428 732 413 l 732 484 q 718 500 732 500 l 661 500 q 646 484 646 500 l 646 428 q 650 418 646 422 q 661 413 655 413 m 413 701 l 470 701 q 485 718 485 701 l 485 774 q 470 791 485 791 l 413 791 q 398 774 398 791 l 398 718 q 413 701 398 701 m 574 269 l 1187 269 q 1204 285 1204 269 l 1204 341 q 1199 353 1204 349 q 1187 358 1195 358 l 574 358 q 558 341 558 358 l 558 285 q 563 274 558 279 q 574 269 568 269 m 606 557 l 662 557 q 678 574 678 557 l 678 630 q 662 646 678 646 l 606 646 q 589 630 589 646 l 589 574 q 594 562 589 567 q 606 557 600 557 m 805 413 l 862 413 q 877 428 877 413 l 877 484 q 862 500 877 500 l 805 500 q 790 484 790 500 l 790 428 q 794 418 790 422 q 805 413 799 413 m 550 701 l 607 701 q 618 706 614 701 q 623 718 623 711 l 623 774 q 607 791 623 791 l 550 791 q 534 774 534 791 l 534 718 q 550 701 534 701 m 743 557 l 799 557 q 811 562 806 557 q 816 574 816 567 l 816 630 q 799 646 816 646 l 743 646 q 726 630 726 646 l 726 574 q 731 562 726 567 q 743 557 736 557 m 949 413 l 1006 413 q 1021 428 1021 413 l 1021 484 q 1006 500 1021 500 l 949 500 q 935 484 935 500 l 935 428 q 939 418 935 422 q 949 413 943 413 m 688 701 l 745 701 q 757 706 752 701 q 762 718 762 711 l 762 774 q 745 791 762 791 l 688 791 q 672 774 672 791 l 672 718 q 688 701 672 701 m 880 557 l 936 557 q 948 562 943 557 q 953 574 953 567 l 953 630 q 936 646 953 646 l 880 646 q 863 630 863 646 l 863 574 q 868 562 863 567 q 880 557 873 557 m 1094 413 l 1150 413 q 1165 428 1165 413 l 1165 484 q 1150 500 1165 500 l 1094 500 q 1078 484 1078 500 l 1078 428 q 1083 418 1078 422 q 1094 413 1088 413 m 825 701 l 882 701 q 894 706 889 701 q 899 718 899 711 l 899 774 q 882 791 899 791 l 825 791 q 809 774 809 791 l 809 718 q 825 701 809 701 m 1281 269 l 1338 269 q 1354 285 1354 269 l 1354 341 q 1350 353 1354 348 q 1338 358 1345 358 l 1281 358 q 1265 341 1265 358 l 1265 285 q 1281 269 1265 269 m 1018 557 l 1074 557 q 1086 562 1081 557 q 1091 574 1091 567 l 1091 630 q 1074 646 1091 646 l 1018 646 q 1002 630 1002 646 l 1002 574 q 1007 562 1002 567 q 1018 557 1012 557 m 964 701 l 1021 701 q 1032 706 1027 701 q 1037 718 1037 711 l 1037 774 q 1021 791 1037 791 l 964 791 q 947 774 947 791 l 947 718 q 964 701 947 701 m 1430 269 l 1487 269 q 1499 273 1494 269 q 1503 285 1503 278 l 1503 341 q 1499 353 1503 348 q 1487 358 1494 358 l 1430 358 q 1414 341 1414 358 l 1414 285 q 1419 274 1414 279 q 1430 269 1424 269 m 1155 557 l 1211 557 q 1223 562 1218 557 q 1228 574 1228 567 l 1228 630 q 1211 646 1228 646 l 1155 646 q 1139 630 1139 646 l 1139 574 q 1144 562 1139 567 q 1155 557 1149 557 m 1238 412 l 1486 412 q 1502 428 1502 412 l 1502 488 q 1486 505 1502 505 l 1238 505 q 1226 500 1232 505 q 1221 488 1221 495 l 1221 428 q 1226 416 1221 421 q 1238 412 1232 412 m 1101 701 l 1158 701 q 1169 706 1164 701 q 1174 718 1174 711 l 1174 774 q 1158 791 1174 791 l 1101 791 q 1084 774 1084 791 l 1084 718 q 1101 701 1084 701 m 1293 557 l 1350 557 q 1366 574 1366 557 l 1366 630 q 1350 646 1366 646 l 1293 646 q 1277 630 1277 646 l 1277 574 q 1282 562 1277 567 q 1293 557 1286 557 m 1238 701 l 1295 701 q 1306 706 1301 701 q 1311 718 1311 711 l 1311 774 q 1295 791 1311 791 l 1238 791 q 1221 774 1221 791 l 1221 718 q 1226 706 1221 711 q 1238 701 1232 701 m 1430 557 l 1487 557 q 1498 562 1493 557 q 1503 574 1503 567 l 1503 630 q 1487 646 1503 646 l 1430 646 q 1414 630 1414 646 l 1414 574 q 1419 562 1414 567 q 1430 557 1424 557 m 1382 701 l 1487 701 q 1498 706 1493 701 q 1503 718 1503 711 l 1503 774 q 1498 786 1503 782 q 1487 791 1493 791 l 1382 791 q 1366 774 1366 791 l 1366 718 q 1382 701 1366 701 m 1594 417 l 1649 417 l 1649 281 q 1609 172 1649 211 q 1499 132 1570 132 l 264 132 q 154 172 193 132 q 115 281 115 211 l 115 417 l 169 417 l 169 281 q 192 210 169 233 q 264 186 216 186 l 1499 186 q 1571 210 1548 186 q 1594 281 1594 233 l 1594 417 z "},"⏏":{"ha":1763,"x_min":176,"x_max":1587,"o":"m 288 -231 q 210 -197 243 -231 q 176 -119 176 -164 l 176 1068 q 210 1147 176 1114 q 288 1180 243 1180 l 1474 1180 q 1554 1147 1520 1180 q 1587 1069 1587 1115 l 1587 -119 q 1554 -197 1587 -164 q 1475 -231 1521 -231 l 288 -231 m 532 62 l 1231 62 l 1231 194 l 532 194 l 532 62 m 529 320 l 1234 320 l 882 919 l 529 320 z "},"⏩":{"ha":1763,"x_min":176,"x_max":1587,"o":"m 288 -231 q 210 -197 243 -231 q 176 -119 176 -164 l 176 1068 q 210 1147 176 1114 q 288 1180 243 1180 l 1475 1180 q 1554 1147 1521 1180 q 1587 1068 1587 1114 l 1587 -119 q 1554 -198 1587 -165 q 1474 -231 1520 -231 l 288 -231 m 433 172 l 863 426 l 863 172 l 1377 475 l 863 777 l 863 524 l 433 777 l 433 172 z "},"⏪":{"ha":1763,"x_min":176,"x_max":1587,"o":"m 289 -231 q 210 -198 243 -231 q 176 -119 176 -165 l 176 1068 q 210 1147 176 1114 q 288 1180 243 1180 l 1475 1180 q 1554 1147 1521 1180 q 1587 1068 1587 1114 l 1587 -119 q 1554 -197 1587 -164 q 1475 -231 1521 -231 l 289 -231 m 900 172 l 900 426 l 1330 172 l 1330 777 l 900 524 l 900 777 l 387 475 l 900 172 z "},"⏫":{"ha":1763,"x_min":176,"x_max":1587,"o":"m 288 -231 q 210 -197 243 -231 q 176 -119 176 -164 l 176 1068 q 210 1147 176 1114 q 288 1180 243 1180 l 1475 1180 q 1554 1147 1521 1180 q 1587 1068 1587 1114 l 1587 -119 q 1554 -198 1587 -165 q 1474 -231 1520 -231 l 288 -231 m 579 26 l 1184 26 l 930 456 l 1184 456 l 882 970 l 579 456 l 833 456 l 579 26 z "},"⏬":{"ha":1763,"x_min":176,"x_max":1587,"o":"m 288 -231 q 210 -197 243 -231 q 176 -119 176 -164 l 176 1068 q 210 1147 176 1114 q 288 1180 243 1180 l 1474 1180 q 1554 1147 1520 1180 q 1587 1069 1587 1115 l 1587 -119 q 1554 -197 1587 -164 q 1475 -231 1521 -231 l 288 -231 m 882 -20 l 1184 493 l 930 493 l 1184 923 l 579 923 l 833 493 l 579 493 l 882 -20 z "},"⏭":{"ha":1763,"x_min":176,"x_max":1587,"o":"m 288 -231 q 210 -197 243 -231 q 176 -119 176 -164 l 176 1068 q 210 1147 176 1114 q 288 1180 243 1180 l 1475 1180 q 1554 1147 1521 1180 q 1587 1068 1587 1114 l 1587 -119 q 1554 -198 1587 -165 q 1474 -231 1520 -231 l 288 -231 m 379 172 l 809 426 l 809 172 l 1229 420 l 1229 176 l 1379 176 l 1379 774 l 1229 774 l 1229 530 l 809 777 l 809 524 l 379 777 l 379 172 z "},"⏮":{"ha":1763,"x_min":176,"x_max":1587,"o":"m 289 -231 q 210 -198 243 -231 q 176 -119 176 -165 l 176 1068 q 210 1147 176 1114 q 288 1180 243 1180 l 1475 1180 q 1554 1147 1521 1180 q 1587 1068 1587 1114 l 1587 -119 q 1554 -197 1587 -164 q 1475 -231 1521 -231 l 289 -231 m 384 176 l 534 176 l 534 420 l 954 172 l 954 426 l 1384 172 l 1384 777 l 954 524 l 954 777 l 534 530 l 534 774 l 384 774 l 384 176 z "},"⏯":{"ha":1763,"x_min":176,"x_max":1587,"o":"m 288 -231 q 210 -197 243 -231 q 176 -119 176 -164 l 176 1068 q 210 1147 176 1114 q 288 1180 243 1180 l 1474 1180 q 1554 1147 1520 1180 q 1587 1069 1587 1115 l 1587 -119 q 1554 -197 1587 -164 q 1475 -231 1521 -231 l 288 -231 m 410 172 l 923 475 l 410 777 l 410 172 m 1015 176 l 1139 176 l 1139 774 l 1015 774 l 1015 176 m 1235 176 l 1359 176 l 1359 774 l 1235 774 l 1235 176 z "},"⏰":{"ha":1763,"x_min":271,"x_max":1492,"o":"m 882 -231 q 644 -183 755 -231 q 449 -51 533 -136 q 318 144 366 33 q 271 382 271 255 q 319 619 271 508 q 450 814 366 730 q 645 945 534 898 q 882 993 755 993 q 1119 945 1008 993 q 1313 814 1230 898 q 1444 619 1397 730 q 1492 382 1492 509 q 1444 144 1492 255 q 1313 -52 1397 33 q 1119 -183 1230 -136 q 882 -231 1008 -231 m 538 -231 l 492 -202 l 554 -104 l 600 -133 l 538 -231 m 707 24 l 659 51 l 694 112 l 742 85 l 707 24 m 551 159 l 524 206 l 585 241 l 612 194 l 551 159 m 485 354 l 485 408 l 555 408 l 555 354 l 485 354 m 854 -16 l 854 54 l 909 54 l 909 -16 l 854 -16 m 1225 -231 l 1162 -133 l 1208 -104 l 1272 -202 l 1225 -231 m 585 521 l 524 556 l 551 604 l 612 568 l 585 521 m 1057 24 l 1021 85 l 1069 112 l 1104 51 l 1057 24 m 844 362 l 691 454 l 718 501 l 871 409 l 844 362 m 882 -176 q 1098 -133 997 -176 q 1275 -13 1199 -90 q 1395 165 1352 64 q 1438 382 1438 266 q 1395 598 1438 497 q 1275 776 1352 699 q 1098 896 1199 852 q 882 939 997 939 q 666 895 766 939 q 488 775 565 852 q 369 598 412 699 q 326 382 326 497 q 369 165 326 266 q 488 -13 412 64 q 665 -133 564 -90 q 882 -176 766 -176 m 882 -115 q 689 -77 779 -115 q 531 30 599 -38 q 424 189 463 98 q 385 382 385 279 q 424 575 385 485 q 531 732 463 665 q 689 839 599 800 q 882 878 779 878 q 1075 839 985 878 q 1233 732 1164 800 q 1339 574 1301 664 q 1378 382 1378 484 q 1339 189 1378 279 q 1233 30 1301 98 q 1075 -77 1164 -38 q 882 -115 985 -115 m 882 -61 q 1054 -27 973 -61 q 1195 68 1134 7 q 1290 209 1255 129 q 1324 382 1324 290 q 1290 553 1324 473 q 1194 694 1255 633 q 1053 789 1133 755 q 882 823 973 823 q 710 789 790 823 q 569 694 629 755 q 474 553 508 633 q 439 382 439 473 q 474 209 439 290 q 569 68 508 129 q 710 -27 629 7 q 882 -61 790 -61 m 884 315 q 837 334 857 315 q 817 381 817 354 q 837 429 817 409 q 884 448 857 448 q 932 429 912 448 q 951 381 951 409 q 932 334 951 354 q 884 315 912 315 m 1212 159 l 1151 194 l 1178 241 l 1239 206 l 1212 159 m 694 650 l 659 711 l 707 739 l 742 677 l 694 650 m 924 372 l 906 401 l 1102 523 l 1120 494 l 924 372 m 559 852 l 370 1152 l 416 1180 l 605 881 l 559 852 m 337 865 q 319 945 319 905 q 348 1046 319 998 q 429 1120 376 1095 q 536 1146 480 1146 q 632 1123 588 1146 q 700 1057 676 1100 l 337 865 m 854 708 l 854 779 l 909 779 l 909 708 l 854 708 m 1208 354 l 1208 408 l 1279 408 l 1279 354 l 1208 354 m 1069 650 l 1021 677 l 1057 739 l 1104 711 l 1069 650 m 1178 521 l 1151 568 l 1212 604 l 1239 556 l 1178 521 m 853 958 l 853 1112 l 907 1112 l 907 958 l 853 958 m 772 1084 l 772 1139 l 989 1139 l 989 1084 l 772 1084 m 1426 865 l 1063 1057 q 1132 1123 1087 1100 q 1227 1146 1176 1146 q 1335 1120 1283 1146 q 1416 1046 1387 1095 q 1444 945 1444 998 q 1426 865 1444 905 m 1204 852 l 1158 881 l 1347 1180 l 1393 1152 l 1204 852 z "},"⏱":{"ha":1763,"x_min":278,"x_max":1485,"o":"m 882 -231 q 646 -183 755 -231 q 454 -53 536 -136 q 325 141 371 31 q 278 378 278 252 q 325 614 278 504 q 454 808 371 724 q 646 939 536 892 q 882 986 755 986 q 1118 939 1008 986 q 1310 808 1227 892 q 1439 614 1392 725 q 1485 378 1485 504 q 1439 141 1485 252 q 1310 -53 1392 31 q 1117 -183 1227 -136 q 882 -231 1008 -231 m 708 23 l 661 50 l 699 116 l 746 89 l 708 23 m 553 159 l 526 206 l 592 244 l 619 197 l 553 159 m 488 351 l 488 405 l 564 405 l 564 351 l 488 351 m 853 -16 l 853 60 l 907 60 l 907 -16 l 853 -16 m 1054 23 l 1016 89 l 1063 116 l 1101 50 l 1054 23 m 592 513 l 526 551 l 553 598 l 619 560 l 592 513 m 882 -176 q 1097 -133 997 -176 q 1271 -14 1196 -90 q 1389 162 1346 62 q 1431 378 1431 263 q 1389 593 1431 493 q 1272 770 1347 694 q 1097 889 1196 846 q 882 932 997 932 q 667 889 767 932 q 492 769 568 846 q 375 593 417 693 q 332 378 332 492 q 375 163 332 263 q 492 -14 417 62 q 667 -133 568 -90 q 882 -176 767 -176 m 880 -116 q 690 -78 779 -116 q 534 29 601 -39 q 430 186 467 97 q 392 378 392 276 q 430 570 392 481 q 534 728 467 660 q 690 834 601 796 q 880 873 779 873 q 1072 834 983 873 q 1227 728 1160 796 q 1332 570 1295 660 q 1370 378 1370 481 q 1332 186 1370 276 q 1227 29 1295 97 q 1072 -78 1160 -39 q 880 -116 983 -116 m 880 -62 q 1051 -27 972 -62 q 1189 67 1130 7 q 1282 207 1249 127 q 1316 378 1316 287 q 1282 549 1316 469 q 1189 689 1249 629 q 1051 784 1130 750 q 880 819 972 819 q 711 784 789 819 q 573 689 632 750 q 480 549 513 629 q 446 378 446 469 q 480 207 446 287 q 573 67 513 127 q 711 -27 632 7 q 880 -62 789 -62 m 881 314 q 836 333 854 314 q 817 378 817 352 q 836 424 817 405 q 881 443 854 443 q 926 424 907 443 q 945 378 945 405 q 926 333 945 352 q 881 314 907 314 m 699 641 l 661 707 l 708 734 l 746 668 l 699 641 m 1208 159 l 1143 197 l 1170 244 l 1236 206 l 1208 159 m 854 378 l 854 791 l 909 791 l 909 378 l 854 378 m 1198 351 l 1198 405 l 1274 405 l 1274 351 l 1198 351 m 1170 513 l 1143 560 l 1208 598 l 1236 551 l 1170 513 m 1063 641 l 1016 668 l 1054 734 l 1101 707 l 1063 641 m 857 947 l 857 1046 l 911 1046 l 911 947 l 857 947 m 884 1034 q 818 1042 846 1034 q 791 1059 791 1050 l 791 1149 q 802 1168 791 1162 q 829 1176 810 1172 q 884 1180 847 1180 q 940 1176 922 1180 q 966 1168 959 1173 q 978 1149 978 1160 l 978 1059 q 950 1042 978 1050 q 884 1034 923 1034 m 1267 805 l 1228 842 l 1291 909 l 1330 872 l 1267 805 m 1386 836 q 1355 842 1381 829 q 1302 881 1330 854 q 1260 932 1275 907 q 1251 964 1244 958 l 1316 1034 q 1331 1040 1322 1040 q 1366 1025 1345 1040 q 1405 992 1387 1010 q 1446 947 1433 965 q 1458 917 1458 930 q 1453 905 1458 910 l 1386 836 z "},"⏲":{"ha":1763,"x_min":180,"x_max":1583,"o":"m 298 -231 q 210 -197 239 -231 q 184 -109 180 -164 l 223 525 q 284 789 232 669 q 425 997 337 909 q 630 1132 513 1084 q 882 1180 746 1180 q 1134 1132 1017 1180 q 1338 997 1250 1084 q 1479 789 1426 909 q 1540 525 1531 669 l 1579 -109 q 1554 -197 1583 -164 q 1465 -231 1525 -231 l 298 -231 m 648 -83 q 483 12 559 -48 q 353 152 408 73 q 348 173 346 162 q 360 190 351 184 q 381 194 370 196 q 398 182 391 191 q 517 55 448 110 q 667 -32 585 0 q 683 -46 678 -36 q 684 -67 687 -56 q 670 -83 680 -78 q 648 -83 660 -88 m 670 96 l 728 195 l 680 222 l 623 123 l 670 96 m 488 257 l 588 315 l 561 362 l 461 304 l 488 257 m 854 46 l 909 46 l 909 161 l 854 161 l 854 46 m 412 488 l 527 488 l 527 543 l 412 543 l 412 488 m 561 669 l 588 716 l 488 774 l 461 726 l 561 669 m 1093 96 l 1141 123 l 1083 222 l 1036 195 l 1093 96 m 1115 -83 q 1094 -83 1104 -88 q 1080 -67 1083 -78 q 1081 -46 1076 -56 q 1096 -32 1085 -36 q 1247 55 1179 0 q 1365 182 1315 110 q 1382 194 1372 191 q 1403 190 1393 196 q 1415 173 1413 184 q 1411 152 1418 162 q 1280 12 1356 73 q 1115 -83 1204 -48 m 298 -176 l 1465 -176 q 1512 -160 1497 -176 q 1525 -112 1527 -143 l 1486 521 q 1429 766 1478 655 q 1300 958 1381 877 q 1113 1082 1219 1038 q 882 1126 1006 1126 q 650 1082 757 1126 q 463 958 544 1038 q 334 766 382 877 q 277 521 286 655 l 238 -112 q 252 -160 236 -143 q 298 -176 267 -176 m 882 19 q 1075 58 985 19 q 1233 164 1165 96 q 1340 322 1301 232 q 1379 515 1379 412 q 1340 708 1379 618 q 1233 866 1301 798 q 1075 973 1165 935 q 882 1012 985 1012 q 688 973 779 1012 q 530 866 598 935 q 423 708 462 798 q 385 515 385 618 q 423 322 385 412 q 530 164 462 232 q 688 58 598 96 q 882 19 779 19 m 882 73 q 710 107 790 73 q 568 202 629 142 q 473 343 507 263 q 439 515 439 423 q 473 687 439 607 q 568 828 507 768 q 710 923 629 889 q 882 958 790 958 q 1054 923 973 958 q 1195 828 1134 889 q 1290 687 1256 768 q 1324 515 1324 607 q 1290 343 1324 423 q 1195 202 1256 263 q 1054 107 1134 142 q 882 73 973 73 m 882 216 q 801 237 837 216 q 744 294 765 258 q 722 374 722 330 l 722 656 q 744 736 722 701 q 801 794 765 772 q 882 815 837 815 q 963 794 926 815 q 1020 736 999 772 q 1041 656 1041 701 l 1041 374 q 1020 294 1041 330 q 963 237 999 258 q 882 216 926 216 m 882 270 q 957 300 926 270 q 987 374 987 331 l 987 656 q 957 731 987 701 q 882 761 926 761 q 807 731 837 761 q 777 656 777 701 l 777 374 q 807 300 777 331 q 882 270 837 270 m 854 362 l 854 689 l 909 689 l 909 362 l 854 362 m 1275 257 l 1302 304 l 1202 362 l 1175 315 l 1275 257 m 680 808 l 728 836 l 670 935 l 623 908 l 680 808 m 854 869 l 909 869 l 909 985 l 854 985 l 854 869 m 1236 488 l 1352 488 l 1352 543 l 1236 543 l 1236 488 m 1083 808 l 1141 908 l 1093 935 l 1036 836 l 1083 808 m 1202 669 l 1302 726 l 1275 774 l 1175 716 l 1202 669 m 882 1053 l 775 1153 l 988 1153 l 882 1053 z "},"⏳":{"ha":1763,"x_min":434,"x_max":1329,"o":"m 623 -7 q 742 107 685 42 q 835 264 799 172 q 871 484 871 356 q 864 523 871 509 q 825 555 857 538 q 746 611 785 578 q 675 682 706 644 q 631 762 644 721 q 760 769 688 762 q 908 788 833 777 q 1049 816 983 800 q 1159 849 1115 832 q 1101 686 1152 755 q 946 562 1050 618 q 907 530 916 546 q 899 489 899 515 q 924 273 899 363 q 1010 118 950 183 q 1172 1 1070 53 l 623 -7 m 882 -231 q 695 -223 781 -231 q 548 -203 610 -216 q 458 -174 487 -191 q 439 -157 444 -165 q 434 -133 434 -149 l 434 -10 l 487 -10 l 487 -179 l 452 -110 q 617 -161 511 -145 q 882 -176 724 -176 q 1146 -161 1040 -176 q 1311 -110 1253 -145 l 1276 -179 l 1276 -10 l 1329 -10 l 1329 -133 q 1324 -157 1329 -149 q 1305 -174 1319 -165 q 1215 -203 1276 -191 q 1068 -223 1154 -216 q 882 -231 983 -231 m 882 -89 q 713 -83 793 -89 q 570 -68 633 -78 q 470 -45 507 -58 q 434 -17 434 -32 q 470 12 434 -1 q 569 35 507 24 q 713 50 632 45 q 882 56 793 56 q 1051 50 970 56 q 1194 35 1131 45 q 1293 12 1257 24 q 1329 -17 1329 -1 q 1293 -45 1329 -32 q 1194 -68 1257 -58 q 1050 -83 1131 -78 q 882 -89 970 -89 m 473 -8 q 554 301 473 178 q 808 493 635 423 l 806 454 q 554 651 635 524 q 473 975 473 778 l 528 975 q 602 677 528 793 q 835 496 675 562 l 835 451 q 601 275 674 385 q 528 -8 528 164 l 473 -8 m 1235 -8 q 1162 275 1235 164 q 928 451 1089 385 l 928 496 q 1162 677 1088 562 q 1235 975 1235 793 l 1290 975 q 1209 651 1290 778 q 958 454 1128 524 l 956 493 q 1209 301 1128 423 q 1290 -8 1290 178 l 1235 -8 m 882 901 q 703 908 788 901 q 554 930 617 916 q 461 960 490 943 q 440 980 446 969 q 434 1009 434 990 l 434 1107 l 487 1107 l 487 957 l 448 1036 q 591 976 475 998 q 882 955 707 955 q 1172 976 1056 955 q 1316 1036 1289 998 l 1276 957 l 1276 1107 l 1329 1107 l 1329 1009 q 1323 980 1329 990 q 1302 960 1318 969 q 1210 930 1274 943 q 1061 908 1146 916 q 882 901 976 901 m 882 1036 q 713 1041 793 1036 q 570 1056 633 1046 q 470 1079 507 1066 q 434 1107 434 1093 q 470 1136 434 1123 q 569 1159 507 1149 q 713 1175 632 1169 q 882 1180 793 1180 q 1051 1175 970 1180 q 1194 1159 1131 1169 q 1293 1136 1257 1149 q 1329 1107 1329 1123 q 1293 1079 1329 1093 q 1194 1056 1257 1066 q 1050 1041 1131 1046 q 882 1036 970 1036 z "},"⏸":{"ha":1763,"x_min":176,"x_max":1587,"o":"m 288 -231 q 210 -197 243 -231 q 176 -119 176 -164 l 176 1068 q 210 1147 176 1114 q 288 1180 243 1180 l 1474 1180 q 1554 1147 1520 1180 q 1587 1069 1587 1115 l 1587 -119 q 1554 -197 1587 -164 q 1475 -231 1521 -231 l 288 -231 m 640 176 l 791 176 l 791 774 l 640 774 l 640 176 m 972 176 l 1123 176 l 1123 774 l 972 774 l 972 176 z "},"⏹":{"ha":1763,"x_min":176,"x_max":1587,"o":"m 288 -231 q 210 -197 243 -231 q 176 -119 176 -164 l 176 1068 q 210 1147 176 1114 q 288 1180 243 1180 l 1474 1180 q 1554 1147 1520 1180 q 1587 1069 1587 1115 l 1587 -119 q 1554 -197 1587 -164 q 1475 -231 1521 -231 l 288 -231 m 589 181 l 1175 181 l 1175 768 l 589 768 l 589 181 z "},"⏺":{"ha":1763,"x_min":176,"x_max":1587,"o":"m 289 -231 q 210 -198 243 -231 q 176 -119 176 -165 l 176 1068 q 210 1147 176 1114 q 288 1180 243 1180 l 1474 1180 q 1554 1147 1520 1180 q 1587 1069 1587 1115 l 1587 -119 q 1554 -197 1587 -164 q 1475 -231 1521 -231 l 289 -231 m 881 141 q 1049 186 974 141 q 1170 307 1125 231 q 1215 475 1215 382 q 1170 643 1215 567 q 1050 763 1125 718 q 882 808 975 808 q 714 763 790 808 q 593 643 638 718 q 548 475 548 567 q 593 307 548 383 q 714 186 638 231 q 881 141 789 141 z "},"Ⓜ":{"ha":1763,"x_min":176,"x_max":1587,"o":"m 541 119 l 620 119 l 620 534 q 619 605 620 570 q 617 670 618 640 q 613 719 615 699 l 617 719 l 842 119 l 913 119 l 1141 718 l 1145 718 q 1142 668 1143 697 q 1139 606 1140 639 q 1138 539 1138 572 l 1138 119 l 1223 119 l 1223 803 l 1097 803 l 882 243 l 878 243 l 668 803 l 541 803 l 541 119 m 882 -231 q 661 -194 766 -231 q 467 -92 555 -158 q 313 62 378 -26 q 212 256 248 151 q 176 475 176 361 q 212 694 176 589 q 313 887 248 799 q 467 1042 378 976 q 661 1144 555 1107 q 882 1180 766 1180 q 1103 1144 998 1180 q 1296 1042 1208 1107 q 1450 887 1385 976 q 1551 694 1515 799 q 1587 475 1587 589 q 1551 256 1587 361 q 1450 62 1515 151 q 1296 -92 1385 -26 q 1103 -194 1208 -158 q 882 -231 998 -231 z "},"▪":{"ha":1763,"x_min":685,"x_max":1078,"o":"m 775 278 l 988 278 q 1053 303 1027 278 q 1078 368 1078 329 l 1078 582 q 1053 646 1078 621 q 988 671 1027 671 l 775 671 q 711 646 736 671 q 685 582 685 621 l 685 368 q 711 303 685 329 q 775 278 736 278 m 776 300 l 806 300 l 806 650 l 776 650 l 776 300 m 707 369 l 1057 369 l 1057 399 l 707 399 l 707 369 m 775 309 q 732 326 749 309 q 715 368 715 342 l 715 582 q 732 624 715 608 q 775 641 749 641 l 988 641 q 1031 624 1015 641 q 1048 582 1048 608 l 1048 368 q 1031 326 1048 342 q 988 309 1015 309 l 775 309 m 867 300 l 897 300 l 897 650 l 867 650 l 867 300 m 707 460 l 1057 460 l 1057 490 l 707 490 l 707 460 m 958 300 l 987 300 l 987 650 l 958 650 l 958 300 m 707 551 l 1057 551 l 1057 581 l 707 581 l 707 551 z "},"▫":{"ha":1763,"x_min":685,"x_max":1078,"o":"m 775 278 q 711 303 736 278 q 685 368 685 329 l 685 582 q 711 646 685 621 q 775 671 736 671 l 988 671 q 1053 646 1027 671 q 1078 582 1078 621 l 1078 368 q 1053 303 1078 329 q 988 278 1027 278 l 775 278 m 775 309 l 988 309 q 1031 326 1015 309 q 1048 368 1048 342 l 1048 582 q 1031 624 1048 608 q 988 641 1015 641 l 775 641 q 732 624 749 641 q 715 582 715 608 l 715 368 q 732 326 715 342 q 775 309 749 309 z "},"▶":{"ha":1763,"x_min":176,"x_max":1587,"o":"m 288 -231 q 210 -197 243 -231 q 176 -119 176 -164 l 176 1068 q 210 1147 176 1114 q 288 1180 243 1180 l 1474 1180 q 1554 1147 1520 1180 q 1587 1069 1587 1115 l 1587 -119 q 1554 -197 1587 -164 q 1475 -231 1521 -231 l 288 -231 m 668 172 l 1181 475 l 668 777 l 668 172 z "},"◀":{"ha":1763,"x_min":176,"x_max":1587,"o":"m 288 -231 q 210 -197 243 -231 q 176 -119 176 -164 l 176 1069 q 210 1147 176 1115 q 289 1180 243 1180 l 1475 1180 q 1554 1147 1521 1180 q 1587 1068 1587 1114 l 1587 -119 q 1554 -197 1587 -164 q 1475 -231 1521 -231 l 288 -231 m 1095 172 l 1095 777 l 583 475 l 1095 172 z "},"◻":{"ha":1763,"x_min":336,"x_max":1428,"o":"m 423 -61 l 1341 -61 q 1402 -36 1377 -61 q 1428 25 1428 -10 l 1428 924 q 1402 985 1428 960 q 1341 1010 1377 1010 l 423 1010 q 361 985 387 1010 q 336 924 336 960 l 336 25 q 362 -36 336 -10 q 423 -61 388 -61 m 423 -7 q 400 3 410 -7 q 390 25 390 13 l 390 924 q 400 947 390 937 q 423 956 410 956 l 1341 956 q 1364 947 1354 956 q 1373 924 1373 937 l 1373 25 q 1364 3 1373 12 q 1341 -7 1354 -7 l 423 -7 z "},"◼":{"ha":1763,"x_min":336,"x_max":1428,"o":"m 423 -61 l 1341 -61 q 1402 -36 1377 -61 q 1428 25 1428 -10 l 1428 924 q 1402 985 1428 960 q 1341 1010 1377 1010 l 423 1010 q 361 985 387 1010 q 336 924 336 960 l 336 25 q 362 -36 336 -10 q 423 -61 388 -61 m 513 -34 l 560 -34 l 560 983 l 513 983 l 513 -34 m 363 106 l 1402 106 l 1402 153 l 363 153 l 363 106 m 686 -34 l 733 -34 l 733 983 l 686 983 l 686 -34 m 363 279 l 1402 279 l 1402 326 l 363 326 l 363 279 m 423 -7 q 400 3 410 -7 q 390 25 390 13 l 390 924 q 400 947 390 937 q 423 956 410 956 l 1341 956 q 1364 947 1354 956 q 1373 924 1373 937 l 1373 25 q 1364 3 1373 12 q 1341 -7 1354 -7 l 423 -7 m 363 451 l 1402 451 l 1402 498 l 363 498 l 363 451 m 858 -34 l 905 -34 l 905 983 l 858 983 l 858 -34 m 1031 -34 l 1078 -34 l 1078 983 l 1031 983 l 1031 -34 m 363 624 l 1402 624 l 1402 671 l 363 671 l 363 624 m 1204 -34 l 1251 -34 l 1251 983 l 1204 983 l 1204 -34 m 363 797 l 1402 797 l 1402 844 l 363 844 l 363 797 z "},"◽":{"ha":1763,"x_min":512,"x_max":1251,"o":"m 608 115 l 1155 115 q 1224 143 1197 115 q 1251 212 1251 170 l 1251 738 q 1224 807 1251 780 q 1155 834 1197 834 l 608 834 q 539 807 567 834 q 512 738 512 780 l 512 212 q 539 143 512 170 q 608 115 567 115 m 608 170 q 578 181 590 170 q 566 212 566 193 l 566 738 q 578 768 566 756 q 608 780 590 780 l 1155 780 q 1185 768 1173 780 q 1197 738 1197 756 l 1197 212 q 1185 181 1197 193 q 1155 170 1173 170 l 608 170 z "},"◾":{"ha":1763,"x_min":512,"x_max":1251,"o":"m 608 115 l 1155 115 q 1224 143 1197 115 q 1251 212 1251 170 l 1251 738 q 1224 807 1251 780 q 1155 834 1197 834 l 608 834 q 539 807 567 834 q 512 738 512 780 l 512 212 q 539 143 512 170 q 608 115 567 115 m 682 136 l 736 136 l 736 810 l 682 810 l 682 136 m 531 277 l 1232 277 l 1232 331 l 531 331 l 531 277 m 608 170 q 578 181 590 170 q 566 212 566 193 l 566 738 q 578 768 566 756 q 608 780 590 780 l 1155 780 q 1185 768 1173 780 q 1197 738 1197 756 l 1197 212 q 1185 181 1197 193 q 1155 170 1173 170 l 608 170 m 531 448 l 1232 448 l 1232 502 l 531 502 l 531 448 m 854 136 l 909 136 l 909 810 l 854 810 l 854 136 m 1027 136 l 1081 136 l 1081 810 l 1027 810 l 1027 136 m 531 619 l 1232 619 l 1232 673 l 531 673 l 531 619 z "},"☀":{"ha":1763,"x_min":179,"x_max":1584,"o":"m 756 -231 q 722 -217 735 -231 q 704 -180 708 -203 l 648 120 l 374 58 q 322 64 342 51 q 297 103 302 78 q 311 154 293 127 l 465 387 l 217 543 q 185 585 191 560 q 192 631 179 610 q 236 658 205 652 l 522 707 l 457 1000 q 462 1049 450 1030 q 497 1073 474 1069 q 545 1059 519 1076 l 789 894 l 951 1147 q 974 1171 961 1162 q 1002 1180 987 1180 q 1038 1165 1023 1180 q 1057 1126 1052 1149 l 1112 838 l 1409 893 q 1465 873 1449 901 q 1458 810 1482 845 l 1297 574 l 1547 413 q 1579 372 1573 396 q 1571 327 1584 347 q 1527 300 1558 306 l 1242 248 l 1305 -46 q 1297 -87 1310 -69 q 1262 -111 1284 -105 q 1221 -102 1241 -116 l 978 61 l 812 -195 q 756 -231 789 -231 m 766 -167 l 933 92 l 999 113 l 1241 -51 q 1248 -53 1245 -54 q 1249 -46 1251 -52 l 1187 250 l 1218 298 l 1518 353 q 1526 358 1526 355 q 1518 367 1527 362 l 1266 530 l 1242 589 l 1406 829 q 1400 836 1412 838 l 1125 786 l 1059 824 l 1003 1117 q 1001 1121 1002 1120 q 998 1118 999 1121 l 837 869 l 757 851 l 517 1012 q 512 1013 513 1014 q 511 1007 510 1012 l 576 709 l 547 656 l 244 604 q 237 599 237 604 q 244 590 237 595 l 509 423 l 519 370 l 355 123 q 351 111 349 114 q 360 111 352 109 l 650 176 l 699 141 l 757 -166 q 761 -171 758 -171 q 766 -167 763 -172 m 882 51 q 716 84 793 51 q 580 175 638 117 q 489 311 522 233 q 456 477 456 389 q 489 644 456 566 q 580 780 522 722 q 716 871 638 838 q 882 904 793 904 q 1049 871 971 904 q 1185 780 1126 838 q 1276 644 1243 722 q 1309 477 1309 566 q 1276 311 1309 389 q 1185 175 1243 233 q 1049 84 1126 117 q 882 51 971 51 m 882 105 q 1027 134 960 105 q 1146 214 1095 163 q 1226 333 1197 265 q 1255 477 1255 400 q 1226 622 1255 555 q 1146 741 1197 690 q 1027 821 1095 792 q 882 850 960 850 q 738 821 805 850 q 619 741 670 792 q 539 622 568 690 q 510 477 510 555 q 539 333 510 400 q 619 214 568 265 q 738 134 670 163 q 882 105 805 105 z "},"☁":{"ha":1763,"x_min":90,"x_max":1674,"o":"m 1141 -95 q 897 0 1000 -95 q 743 -33 827 -33 q 613 -11 675 -33 q 509 54 551 12 q 390 35 452 35 q 239 66 307 35 q 130 151 170 98 q 90 270 90 205 q 124 382 90 331 q 215 465 159 433 q 336 503 271 498 q 378 632 340 574 q 475 724 415 690 q 606 758 534 758 q 630 757 618 758 q 652 754 642 756 q 742 906 682 841 q 883 1008 802 971 q 1056 1044 964 1044 q 1220 1011 1143 1044 q 1356 920 1297 979 q 1447 785 1414 862 q 1480 621 1480 708 q 1477 573 1480 597 q 1470 526 1475 549 q 1574 481 1528 516 q 1647 395 1620 446 q 1674 282 1674 343 q 1640 158 1674 214 q 1551 68 1607 102 q 1426 35 1495 35 l 1418 35 q 1295 -61 1367 -27 q 1141 -95 1222 -95 m 1141 -41 q 1284 -6 1217 -41 q 1394 91 1350 28 q 1411 89 1404 90 q 1426 89 1418 89 q 1524 115 1480 89 q 1593 185 1567 141 q 1619 282 1619 229 q 1589 387 1619 340 q 1511 459 1559 433 q 1409 486 1463 486 q 1420 547 1415 512 q 1426 621 1426 582 q 1397 764 1426 697 q 1317 882 1368 831 q 1199 961 1266 932 q 1056 990 1133 990 q 906 959 977 990 q 783 871 836 927 q 705 740 730 814 q 829 643 781 710 q 877 494 877 575 l 823 494 q 793 598 823 551 q 715 675 764 646 q 606 704 666 704 q 497 675 547 704 q 419 596 448 646 q 390 488 390 547 l 390 453 q 259 421 315 448 q 174 356 204 395 q 144 270 144 316 q 177 179 144 220 q 266 114 210 138 q 390 89 322 89 q 524 119 463 89 q 615 47 557 73 q 743 21 673 21 q 907 68 838 21 q 1141 -41 1000 -41 z "},"☂":{"ha":1763,"x_min":172,"x_max":1592,"o":"m 589 387 q 488 467 541 440 q 378 493 435 493 q 277 476 330 493 q 174 425 224 459 q 172 449 173 437 q 172 473 172 461 q 227 711 172 601 q 380 903 282 821 q 606 1032 477 986 q 882 1078 735 1078 q 1157 1032 1028 1078 q 1383 903 1286 986 q 1536 711 1481 821 q 1592 473 1592 601 q 1591 449 1592 461 q 1590 425 1591 437 q 1486 476 1539 459 q 1385 493 1433 493 q 1275 467 1328 493 q 1175 387 1223 440 q 1055 491 1130 456 q 882 526 980 526 q 708 491 783 526 q 589 387 633 456 m 787 -231 q 694 -211 734 -231 q 630 -155 653 -191 q 607 -73 607 -119 q 629 5 607 -23 q 688 34 651 34 q 741 14 720 34 q 763 -47 763 -7 q 783 -72 763 -72 q 806 -53 806 -72 l 806 134 l 958 134 l 958 -76 q 910 -188 958 -144 q 787 -231 863 -231 m 787 -190 q 879 -159 845 -190 q 913 -76 913 -128 l 913 94 l 850 94 l 850 -54 q 831 -96 850 -79 q 784 -113 813 -113 q 736 -95 754 -113 q 719 -47 719 -77 q 711 -15 719 -23 q 688 -7 703 -7 q 651 -73 651 -7 q 688 -158 651 -125 q 787 -190 726 -190 m 854 112 l 854 553 l 909 553 l 909 112 l 854 112 m 584 467 q 882 581 694 581 q 1179 467 1069 581 q 1385 547 1274 547 q 1457 539 1419 547 q 1536 515 1495 532 q 1468 717 1523 625 q 1324 879 1413 810 q 1123 987 1236 949 q 882 1025 1010 1025 q 640 987 753 1025 q 439 879 527 949 q 296 717 351 810 q 227 515 241 625 q 307 539 269 532 q 378 547 345 547 q 584 467 490 547 m 559 443 q 597 678 559 560 q 704 898 635 795 q 865 1073 773 1001 l 899 1073 q 1059 898 990 1001 q 1166 678 1128 795 q 1204 443 1204 560 l 1150 443 q 1117 655 1150 549 q 1023 856 1083 762 q 882 1018 962 950 q 741 856 801 950 q 647 655 680 762 q 613 443 613 549 l 559 443 m 854 1036 l 854 1180 l 909 1180 l 909 1036 l 854 1036 z "},"☃":{"ha":1763,"x_min":319,"x_max":1444,"o":"m 882 -231 q 716 -203 793 -231 q 579 -126 638 -175 q 487 -12 520 -77 q 454 128 454 54 q 497 286 454 212 q 619 412 541 361 q 547 618 547 503 q 575 754 547 691 q 654 863 604 818 l 741 863 q 640 761 678 826 q 601 618 601 696 q 629 497 601 555 q 708 398 656 440 q 561 285 614 357 q 508 128 508 212 q 558 -25 508 45 q 694 -138 609 -96 q 882 -180 779 -180 q 1069 -138 985 -180 q 1205 -25 1154 -96 q 1255 128 1255 45 q 1202 285 1255 212 q 1055 398 1149 357 q 1135 497 1107 440 q 1162 618 1162 555 q 1124 761 1162 696 q 1023 863 1085 826 l 1109 863 q 1188 754 1159 818 q 1217 618 1217 691 q 1144 412 1217 503 q 1266 286 1222 361 q 1310 128 1310 212 q 1276 -12 1310 54 q 1184 -126 1243 -77 q 1048 -203 1125 -175 q 882 -231 970 -231 m 523 263 l 366 389 q 353 413 353 400 q 361 433 353 425 q 381 441 370 441 q 403 433 393 441 l 446 399 l 446 433 q 453 450 446 443 q 469 456 460 456 q 486 450 479 456 q 493 433 493 443 l 493 361 l 551 315 l 523 263 m 444 576 q 422 585 431 576 q 412 608 412 595 q 422 630 412 621 q 444 640 431 640 q 467 630 458 640 q 476 608 476 621 q 467 585 476 595 q 444 576 458 576 m 354 675 q 329 685 340 675 q 319 710 319 696 q 329 734 319 724 q 354 745 340 745 q 379 734 368 745 q 389 710 389 724 q 379 685 389 696 q 354 675 368 675 m 438 788 q 414 798 424 788 q 404 822 404 808 q 414 845 404 836 q 438 855 424 855 q 461 845 452 855 q 471 822 471 836 q 461 798 471 808 q 438 788 452 788 m 368 910 q 343 921 354 910 q 333 945 333 931 q 343 970 333 960 q 368 981 354 981 q 392 970 382 981 q 403 945 403 960 q 392 921 403 931 q 368 910 382 910 m 882 464 q 796 488 839 464 l 816 522 q 882 505 846 505 q 947 522 918 505 l 967 488 q 882 464 924 464 m 739 616 q 718 627 727 616 q 709 655 709 639 q 718 683 709 671 q 739 694 727 694 q 760 683 751 694 q 769 655 769 671 q 760 627 769 639 q 739 616 751 616 m 882 553 q 869 567 878 553 q 854 598 861 581 q 848 623 848 614 q 858 631 848 628 q 882 635 869 635 q 905 631 895 635 q 916 623 916 628 q 909 598 916 614 q 894 567 902 581 q 882 553 886 553 m 1240 263 l 1213 315 l 1270 361 l 1270 433 q 1277 450 1270 443 q 1294 456 1284 456 q 1310 450 1303 456 q 1317 433 1317 443 l 1317 399 l 1360 433 q 1382 441 1370 441 q 1402 433 1394 441 q 1411 413 1411 425 q 1397 389 1411 400 l 1240 263 m 1024 616 q 1003 627 1012 616 q 994 655 994 639 q 1003 683 994 671 q 1024 694 1012 694 q 1045 683 1036 694 q 1054 655 1054 671 q 1045 627 1054 639 q 1024 616 1036 616 m 962 831 q 693 845 787 831 q 600 887 600 860 q 642 916 600 905 q 741 928 685 927 l 741 1154 q 784 1172 741 1164 q 876 1180 826 1180 q 971 1172 925 1180 q 1046 1152 1017 1164 q 1074 1128 1075 1140 l 1048 914 q 1169 868 1169 905 q 1125 839 1169 847 q 962 831 1081 831 m 1381 569 q 1358 578 1368 569 q 1349 601 1349 588 q 1358 624 1349 614 q 1381 633 1368 633 q 1403 624 1394 633 q 1413 601 1413 614 q 1403 578 1413 588 q 1381 569 1394 569 m 1344 715 q 1319 725 1330 715 q 1309 750 1309 736 q 1319 774 1309 764 q 1344 785 1330 785 q 1369 774 1358 785 q 1379 750 1379 764 q 1369 725 1379 736 q 1344 715 1358 715 m 1292 944 q 1268 955 1278 944 q 1257 979 1257 965 q 1268 1004 1257 994 q 1292 1015 1278 1015 q 1317 1004 1306 1015 q 1327 979 1327 994 q 1317 955 1327 965 q 1292 944 1306 944 m 1411 846 q 1387 856 1397 846 q 1377 880 1377 865 q 1387 903 1377 893 q 1411 913 1397 913 q 1435 903 1425 913 q 1444 880 1444 893 q 1435 856 1444 865 q 1411 846 1425 846 z "},"☄":{"ha":1763,"x_min":210,"x_max":1553,"o":"m 540 -197 q 416 -173 477 -197 q 307 -101 355 -150 q 235 8 259 -53 q 210 132 210 68 q 234 257 210 196 q 307 368 258 318 l 970 1031 l 1009 993 l 346 330 q 264 132 264 248 q 285 26 264 77 q 345 -62 306 -24 q 540 -142 425 -142 q 736 -62 656 -142 l 1156 359 l 1195 320 l 774 -100 q 664 -173 725 -150 q 540 -197 604 -197 m 540 -28 q 458 -6 494 -28 q 399 53 421 16 q 378 135 378 90 q 399 217 378 180 q 458 276 421 254 q 540 298 494 298 q 622 276 585 298 q 680 217 659 254 q 702 135 702 180 q 680 53 702 90 q 622 -6 659 16 q 540 -28 585 -28 m 540 26 q 616 58 585 26 q 648 135 648 90 q 616 212 648 181 q 540 243 585 243 q 463 212 494 243 q 432 135 432 181 q 463 58 432 90 q 540 26 494 26 m 578 107 q 559 115 566 107 q 552 134 552 123 q 561 155 552 146 l 718 313 l 755 273 l 599 117 q 578 107 589 107 m 804 130 l 766 169 l 980 382 l 1018 347 l 804 130 m 600 333 l 562 372 l 991 801 l 1029 762 l 600 333 m 817 333 l 779 374 l 1239 829 l 1278 793 l 817 333 m 1259 384 l 1221 422 l 1402 604 l 1440 565 l 1259 384 m 1083 1070 l 1046 1109 l 1085 1146 l 1124 1107 l 1083 1070 m 1514 640 l 1476 678 l 1514 718 l 1553 679 l 1514 640 z "},"☎":{"ha":1763,"x_min":44,"x_max":1719,"o":"m 484 47 q 327 75 374 47 q 279 168 279 103 q 281 190 279 176 q 290 237 283 203 l 380 673 q 417 753 392 730 q 490 789 442 777 l 514 795 q 572 825 556 806 q 592 884 587 844 l 604 998 l 802 998 l 802 807 l 962 807 l 962 998 l 1159 998 l 1171 884 q 1192 825 1176 844 q 1249 795 1207 806 l 1274 789 q 1347 753 1322 777 q 1383 673 1372 730 l 1474 237 q 1483 190 1481 203 q 1485 168 1485 176 q 1437 75 1485 103 q 1279 47 1390 47 l 484 47 m 399 -231 q 312 -199 345 -231 q 279 -116 279 -168 l 279 168 l 333 154 l 333 -116 q 352 -161 333 -145 q 399 -176 371 -176 l 1364 -176 q 1411 -161 1392 -176 q 1430 -116 1430 -145 l 1430 142 l 1485 161 l 1485 -116 q 1452 -199 1485 -168 q 1364 -231 1419 -231 l 399 -231 m 600 284 l 703 284 q 730 302 728 284 l 739 361 q 733 377 740 370 q 717 385 726 385 l 611 385 q 590 367 592 385 l 581 309 q 585 292 579 299 q 600 284 591 284 m 626 420 l 726 420 q 748 438 745 420 l 755 497 q 750 513 757 507 q 734 520 744 520 l 636 520 q 616 503 619 520 l 606 444 q 610 428 604 435 q 626 420 616 420 m 819 284 l 944 284 q 960 291 954 284 q 966 306 966 297 l 963 364 q 956 379 962 373 q 942 385 949 385 l 821 385 q 808 379 814 385 q 801 364 802 373 l 798 306 q 804 291 798 297 q 819 284 810 284 m 648 556 l 742 556 q 763 575 761 556 l 770 639 q 765 655 772 648 q 749 662 759 662 l 659 662 q 639 646 642 662 l 627 581 q 632 564 626 572 q 648 556 639 556 m 541 189 q 520 210 520 189 l 520 270 q 521 285 520 276 q 524 303 522 294 l 605 682 q 624 698 608 698 l 1140 698 q 1160 682 1156 698 l 1240 303 q 1243 285 1242 294 q 1244 270 1244 276 l 1244 210 q 1223 189 1244 189 l 541 189 m 825 420 l 938 420 q 953 427 947 420 q 958 441 959 433 l 955 500 q 948 515 954 509 q 934 520 942 520 l 829 520 q 815 515 821 520 q 809 500 810 509 l 806 441 q 811 427 805 433 q 825 420 817 420 m 484 102 l 1279 102 q 1397 115 1364 102 q 1430 169 1430 127 q 1429 185 1430 175 q 1421 223 1428 195 l 1330 662 q 1309 715 1322 701 q 1261 737 1296 730 l 1236 743 q 1154 785 1181 755 q 1120 879 1128 815 l 1113 947 l 1009 947 l 1009 756 l 754 756 l 754 947 l 650 947 l 643 879 q 609 785 636 815 q 528 743 583 755 l 503 737 q 455 715 468 729 q 433 662 441 701 l 342 223 q 335 185 336 195 q 333 169 333 175 q 367 115 333 127 q 484 102 400 102 m 1061 284 l 1163 284 q 1179 292 1173 284 q 1183 309 1185 299 l 1174 367 q 1152 385 1172 385 l 1046 385 q 1031 377 1038 385 q 1025 361 1024 370 l 1034 302 q 1061 284 1036 284 m 833 556 l 930 556 q 946 563 940 556 q 952 578 953 569 l 949 642 q 927 662 947 662 l 836 662 q 815 642 817 662 l 812 578 q 817 563 811 569 q 833 556 823 556 m 1037 420 l 1137 420 q 1154 428 1147 420 q 1158 444 1160 435 l 1148 503 q 1127 520 1145 520 l 1029 520 q 1014 513 1020 520 q 1008 497 1008 507 l 1016 438 q 1037 420 1018 420 m 1021 556 l 1116 556 q 1132 564 1125 556 q 1137 581 1138 572 l 1125 646 q 1104 662 1122 662 l 1014 662 q 999 655 1005 662 q 994 639 993 648 l 1001 575 q 1021 556 1003 556 m 292 517 q 107 563 171 517 q 44 695 44 609 q 103 912 44 821 q 273 1063 162 1004 q 537 1151 383 1122 q 882 1180 692 1180 q 1226 1151 1072 1180 q 1491 1063 1380 1122 q 1660 912 1601 1004 q 1719 695 1719 821 q 1656 563 1719 609 q 1472 517 1593 517 q 1419 518 1438 517 q 1376 525 1400 520 l 1377 583 q 1417 573 1396 576 q 1471 571 1437 571 q 1617 607 1570 571 q 1665 695 1665 643 q 1610 891 1665 809 q 1453 1024 1556 972 q 1206 1101 1350 1076 q 882 1126 1061 1126 q 557 1101 702 1126 q 310 1024 413 1076 q 153 891 208 972 q 98 695 98 809 q 146 607 98 643 q 292 571 194 571 q 347 573 326 571 q 387 583 368 576 l 387 525 q 345 518 364 520 q 292 517 325 517 m 778 863 l 779 910 q 826 912 798 911 q 882 912 854 912 q 937 912 909 912 q 985 910 966 911 l 985 863 q 937 865 966 865 q 882 865 907 865 q 827 865 857 865 q 778 863 797 865 m 1692 782 l 1697 728 q 1647 712 1685 721 q 1559 695 1609 703 q 1462 682 1510 687 q 1379 677 1413 677 q 1358 677 1367 677 q 1344 680 1350 678 l 1334 732 q 1348 731 1340 732 q 1364 730 1356 730 q 1447 735 1399 730 q 1544 748 1495 740 q 1634 764 1594 755 q 1692 782 1674 773 m 71 782 q 130 764 90 773 q 220 748 170 755 q 317 735 269 740 q 399 730 365 730 q 416 731 408 730 q 430 732 424 732 l 420 680 q 405 677 414 678 q 384 677 396 677 q 301 682 350 677 q 204 695 253 687 q 117 712 155 703 q 66 728 79 721 l 71 782 z "},"☑":{"ha":1763,"x_min":176,"x_max":1587,"o":"m 645 -21 q 593 -5 616 -21 q 561 39 570 12 l 392 549 q 388 574 388 562 q 413 635 388 608 q 475 662 438 662 q 527 646 504 662 q 558 603 549 630 l 678 250 l 1219 937 q 1250 961 1232 952 q 1289 970 1268 970 q 1352 945 1326 970 q 1377 882 1377 920 q 1358 827 1377 850 l 714 13 q 645 -21 686 -21 m 289 -231 q 210 -198 243 -231 q 176 -119 176 -165 l 176 1068 q 210 1147 176 1114 q 288 1180 243 1180 l 1475 1180 q 1554 1147 1521 1180 q 1587 1068 1587 1114 l 1587 -119 q 1554 -197 1587 -164 q 1475 -231 1521 -231 l 289 -231 m 289 -176 l 1475 -176 q 1516 -159 1499 -176 q 1533 -119 1533 -142 l 1533 1068 q 1516 1109 1533 1092 q 1475 1126 1499 1126 l 288 1126 q 248 1109 265 1126 q 231 1068 231 1092 l 231 -119 q 248 -159 231 -142 q 289 -176 265 -176 z "},"☔":{"ha":1763,"x_min":172,"x_max":1592,"o":"m 589 353 q 488 433 541 406 q 378 459 435 459 q 277 442 330 459 q 174 391 224 425 q 172 415 173 403 q 172 439 172 427 q 227 677 172 567 q 380 869 282 787 q 606 998 477 952 q 882 1044 735 1044 q 1157 998 1028 1044 q 1383 869 1286 952 q 1536 677 1481 787 q 1592 439 1592 567 q 1591 415 1592 427 q 1590 391 1591 403 q 1486 442 1539 425 q 1385 459 1433 459 q 1275 433 1328 459 q 1175 353 1223 406 q 1055 457 1130 422 q 882 492 980 492 q 708 457 783 492 q 589 353 633 422 m 787 -231 q 694 -211 734 -231 q 630 -155 653 -191 q 607 -73 607 -119 q 629 5 607 -23 q 688 34 651 34 q 741 14 720 34 q 763 -47 763 -7 q 783 -72 763 -72 q 806 -53 806 -72 l 806 121 l 958 121 l 958 -76 q 910 -188 958 -144 q 787 -231 863 -231 m 787 -190 q 879 -159 845 -190 q 913 -76 913 -128 l 913 80 l 850 80 l 850 -54 q 831 -96 850 -79 q 784 -113 813 -113 q 736 -95 754 -113 q 719 -47 719 -77 q 711 -15 719 -23 q 688 -7 703 -7 q 651 -73 651 -7 q 688 -158 651 -125 q 787 -190 726 -190 m 464 567 q 420 583 435 567 q 404 625 404 598 q 430 696 404 659 l 464 747 l 498 696 q 517 659 511 676 q 523 625 523 642 q 508 583 523 598 q 464 567 492 567 m 854 98 l 854 519 l 909 519 l 909 98 l 854 98 m 372 1000 q 328 1015 344 1000 q 313 1058 313 1031 q 338 1129 313 1091 l 372 1180 l 406 1129 q 426 1092 420 1109 q 431 1058 431 1074 q 416 1015 431 1031 q 372 1000 401 1000 m 584 433 q 882 547 694 547 q 1179 433 1069 547 q 1385 513 1274 513 q 1457 506 1419 513 q 1536 481 1495 498 q 1468 683 1523 591 q 1324 845 1413 776 q 1123 953 1236 915 q 882 991 1010 991 q 640 953 753 991 q 439 845 527 915 q 296 683 351 776 q 227 481 241 591 q 307 506 269 498 q 378 513 345 513 q 584 433 490 513 m 559 409 q 597 644 559 526 q 704 864 635 762 q 865 1039 773 967 l 899 1039 q 1059 864 990 967 q 1166 644 1128 762 q 1204 409 1204 526 l 1150 409 q 1117 621 1150 515 q 1023 822 1083 728 q 882 984 962 916 q 741 822 801 916 q 647 621 680 728 q 613 409 613 515 l 559 409 m 882 640 q 838 656 853 640 q 822 699 822 671 q 848 770 822 732 l 882 821 l 916 770 q 941 699 941 732 q 926 656 941 671 q 882 640 910 640 m 854 1002 l 854 1146 l 909 1146 l 909 1002 l 854 1002 m 1299 567 q 1256 583 1271 567 q 1240 625 1240 598 q 1246 659 1240 642 q 1265 696 1252 676 l 1299 747 l 1333 696 q 1359 625 1359 659 q 1343 583 1359 598 q 1299 567 1328 567 m 1391 1000 q 1347 1015 1362 1000 q 1332 1058 1332 1031 q 1338 1092 1332 1074 q 1357 1129 1343 1109 l 1391 1180 l 1425 1129 q 1451 1058 1451 1091 q 1435 1015 1451 1031 q 1391 1000 1419 1000 z "},"☕":{"ha":1763,"x_min":237,"x_max":1526,"o":"m 836 -75 q 505 93 612 -75 q 397 604 397 261 q 443 690 397 650 q 568 758 489 730 q 745 795 647 785 l 789 743 q 624 718 701 739 q 499 666 547 696 q 452 604 452 636 q 483 558 452 580 q 567 520 513 537 q 690 494 621 503 q 836 484 760 484 q 981 494 912 484 q 1104 520 1050 503 q 1188 558 1158 537 q 1219 604 1219 580 q 1167 669 1219 638 q 1033 722 1116 701 q 856 745 949 743 l 863 798 q 1070 768 977 795 q 1218 698 1163 741 q 1274 604 1274 655 q 1166 92 1274 259 q 836 -75 1059 -75 m 836 -231 q 600 -211 709 -231 q 410 -155 491 -191 q 283 -72 328 -119 q 237 31 237 -24 q 290 136 237 88 q 463 229 342 183 l 485 178 q 337 105 382 140 q 292 31 292 69 q 335 -48 292 -11 q 453 -115 378 -86 q 627 -160 529 -143 q 836 -176 725 -176 q 1044 -160 946 -176 q 1218 -115 1142 -143 q 1336 -48 1293 -86 q 1379 31 1379 -11 q 1334 105 1379 69 q 1186 178 1289 140 l 1208 229 q 1381 136 1329 183 q 1434 31 1434 88 q 1388 -72 1434 -24 q 1261 -155 1343 -119 q 1071 -211 1180 -191 q 836 -231 962 -231 m 648 160 q 632 158 640 156 q 621 168 625 161 q 585 253 598 210 q 572 335 572 295 q 591 356 572 356 q 606 351 600 356 q 612 336 612 345 q 625 263 614 300 q 656 189 635 226 q 648 160 667 170 m 836 -21 q 1040 37 958 -21 q 1166 213 1122 94 q 1217 516 1210 332 q 1062 453 1162 477 q 836 430 962 430 q 609 453 709 430 q 454 516 509 477 q 506 213 462 332 q 631 37 549 94 q 836 -21 713 -21 m 1197 -40 q 1183 -34 1188 -40 q 1178 -20 1178 -28 q 1185 -5 1178 -12 q 1213 28 1201 11 q 1236 65 1225 45 q 1255 77 1242 77 q 1269 72 1263 77 q 1274 58 1274 67 q 1261 21 1274 45 q 1230 -21 1248 -2 q 1197 -40 1211 -40 m 833 450 l 513 522 q 589 561 538 543 q 706 591 639 580 q 846 603 772 603 q 1035 579 956 603 q 1151 524 1114 555 l 833 450 m 1226 264 l 1226 332 q 1398 360 1339 334 q 1458 433 1458 385 q 1407 499 1458 479 q 1242 519 1356 519 l 1242 587 q 1452 547 1378 587 q 1526 433 1526 507 q 1445 312 1526 357 q 1226 264 1364 268 m 899 656 q 752 735 806 687 q 699 848 699 783 q 722 925 699 893 q 783 979 745 956 q 862 1019 820 1002 q 941 1051 903 1036 q 1001 1083 978 1066 q 1025 1123 1025 1100 q 1018 1149 1025 1136 q 991 1180 1011 1162 q 1129 1137 1077 1180 q 1181 1027 1181 1095 q 1159 948 1181 979 q 1101 900 1137 918 q 1027 869 1066 882 q 952 844 987 856 q 895 814 917 831 q 872 768 872 797 q 877 730 872 751 q 899 656 882 709 m 816 736 q 814 751 814 744 q 813 765 813 758 q 836 832 813 806 q 895 874 859 858 q 970 904 930 891 q 1046 932 1010 918 q 1105 970 1082 947 q 1128 1028 1128 992 q 1111 1080 1128 1056 q 1070 1114 1094 1105 q 1071 1108 1071 1111 q 1071 1102 1071 1105 q 1039 1042 1071 1067 q 959 998 1006 1017 q 865 959 912 979 q 785 912 817 939 q 753 848 753 886 q 775 791 753 817 q 835 751 798 765 l 816 736 z "},"☘":{"ha":1763,"x_min":203,"x_max":1560,"o":"m 1284 60 q 985 227 1116 60 l 955 265 q 900 329 916 315 q 868 342 884 342 q 829 333 850 342 q 764 296 808 324 l 715 266 q 564 194 642 220 q 418 168 486 168 q 260 219 316 168 q 203 362 203 270 q 285 546 203 469 q 245 665 245 600 q 271 768 245 722 q 343 840 298 813 q 446 866 389 866 q 654 791 553 866 q 634 871 642 829 q 627 949 627 913 q 653 1068 627 1017 q 724 1150 679 1120 q 825 1180 768 1180 q 920 1159 875 1180 q 996 1100 964 1137 q 1053 1130 1021 1120 q 1117 1141 1085 1141 q 1225 1112 1177 1141 q 1301 1034 1273 1084 q 1329 919 1329 983 q 1310 810 1329 859 q 1251 714 1291 760 q 1345 724 1297 724 q 1500 670 1440 724 q 1560 527 1560 615 q 1541 439 1560 479 q 1487 374 1522 399 q 1513 320 1504 348 q 1522 264 1522 292 q 1492 157 1522 203 q 1409 85 1462 111 q 1284 60 1355 60 m 1015 -231 q 883 -75 929 -181 q 837 179 837 31 l 837 218 q 839 297 837 256 q 842 363 840 337 l 899 363 q 893 297 895 333 q 891 210 891 260 l 891 157 q 931 -53 891 38 q 1044 -185 972 -143 l 1015 -231 m 1284 114 q 1418 155 1368 114 q 1468 264 1468 196 q 1415 387 1468 325 q 1481 440 1457 403 q 1506 527 1506 477 q 1461 633 1506 595 q 1337 670 1417 670 q 1230 653 1286 670 q 1114 597 1173 635 l 977 506 l 946 551 l 1090 646 q 1232 776 1190 712 q 1274 919 1274 840 q 1231 1040 1274 994 q 1117 1086 1187 1086 q 1052 1074 1084 1086 q 985 1031 1021 1062 q 918 1101 960 1076 q 825 1126 875 1126 q 722 1076 763 1126 q 682 949 682 1027 q 706 810 682 884 q 779 669 730 736 l 858 563 l 815 530 l 737 635 q 596 768 672 724 q 446 812 521 812 q 341 770 383 812 q 299 665 299 728 q 314 597 299 628 q 353 542 330 566 q 282 460 306 503 q 258 363 258 417 q 418 222 258 222 q 550 246 480 222 q 687 312 619 269 l 735 342 q 813 385 785 374 q 868 397 841 397 q 926 377 901 397 q 997 299 951 357 l 1027 261 q 1149 150 1086 185 q 1284 114 1212 114 z "},"☝":{"ha":1763,"x_min":401,"x_max":1359,"o":"m 886 -231 q 540 -95 651 -231 q 429 328 429 40 l 485 298 q 582 -62 485 53 q 886 -176 679 -176 q 1195 -80 1085 -176 q 1305 181 1305 16 q 1246 346 1305 290 q 1074 402 1188 402 q 876 392 949 402 q 769 358 802 381 q 736 296 736 335 q 772 237 736 255 q 888 217 808 218 q 1007 207 962 216 q 1085 171 1053 197 q 1155 96 1118 145 l 1111 64 q 1055 126 1080 106 q 992 154 1029 147 q 887 163 954 161 q 732 197 783 165 q 682 296 682 230 q 703 370 682 340 q 771 420 724 401 q 893 448 818 439 q 1077 456 968 456 q 1229 425 1166 456 q 1325 331 1292 393 q 1359 180 1359 270 q 1302 -37 1359 55 q 1140 -180 1246 -130 q 886 -231 1034 -231 m 549 285 q 613 304 589 285 q 644 351 637 323 l 627 525 q 601 563 625 547 q 543 578 576 578 q 478 552 500 578 q 458 478 456 526 l 464 372 q 487 307 466 329 q 549 285 509 285 m 979 -18 l 929 -12 q 968 98 937 49 q 1053 174 1000 148 l 1080 131 q 1011 70 1036 111 q 979 -18 987 28 m 549 231 q 476 247 507 231 q 429 295 446 264 q 410 371 412 326 l 404 479 q 439 589 401 546 q 544 632 478 632 q 588 626 566 632 q 627 607 610 620 q 670 686 635 656 q 760 715 705 715 q 818 705 794 715 q 860 679 842 696 q 907 739 876 718 q 985 761 939 761 q 1091 720 1059 761 q 1126 609 1123 679 l 1135 433 l 1084 429 l 1076 600 q 1054 681 1074 652 q 984 710 1034 710 q 918 674 939 710 q 901 582 896 638 l 914 419 l 860 419 l 848 566 q 822 637 844 614 q 760 661 801 661 q 694 632 715 661 q 679 545 673 603 l 693 399 q 705 348 696 365 q 733 324 714 332 l 722 274 q 676 296 694 281 q 628 249 659 268 q 549 231 597 231 m 1344 243 l 1290 291 l 1290 1039 q 1268 1103 1290 1080 q 1208 1126 1246 1126 q 1148 1103 1169 1126 q 1127 1038 1127 1080 l 1127 578 l 1073 711 l 1073 1042 q 1111 1142 1073 1103 q 1208 1180 1148 1180 q 1306 1142 1267 1180 q 1344 1043 1344 1103 l 1344 243 z "},"☠":{"ha":1763,"x_min":172,"x_max":1591,"o":"m 810 -80 q 718 -35 752 -80 q 713 -35 715 -35 q 708 -35 711 -35 q 626 0 660 -35 q 591 83 591 35 q 579 115 591 99 q 530 156 568 130 q 456 227 476 193 q 436 315 436 261 q 444 363 436 340 q 417 528 417 442 q 452 709 417 626 q 550 855 487 793 q 697 951 613 917 q 882 985 782 985 q 1066 951 981 985 q 1213 855 1150 917 q 1311 709 1276 793 q 1346 528 1346 626 q 1319 363 1346 442 q 1327 315 1327 340 q 1308 227 1327 261 q 1234 156 1288 193 q 1184 115 1196 130 q 1172 83 1172 99 q 1138 0 1172 35 q 1055 -35 1103 -35 q 1050 -35 1053 -35 q 1046 -35 1048 -35 q 954 -80 1011 -80 q 882 -56 913 -80 q 810 -80 850 -80 m 395 -231 q 320 -201 349 -231 q 283 -121 290 -171 q 203 -85 233 -115 q 172 -11 172 -56 q 206 59 172 31 q 301 95 240 86 l 306 96 q 364 108 346 101 q 395 128 382 115 l 494 225 l 530 186 l 433 90 q 387 59 413 70 q 314 41 361 48 l 309 41 q 227 -11 227 28 q 253 -55 227 -41 q 332 -73 279 -69 q 350 -153 335 -129 q 395 -176 366 -176 q 426 -158 414 -176 q 442 -99 437 -140 l 443 -94 q 459 -17 450 -42 q 488 28 469 9 l 591 132 l 627 92 l 526 -9 q 508 -39 513 -22 q 497 -100 503 -56 l 496 -106 q 464 -199 489 -167 q 395 -231 438 -231 m 753 -33 l 712 -6 l 712 82 q 732 106 712 106 q 753 82 753 106 l 753 -33 m 861 -33 l 861 82 q 882 106 861 106 q 902 82 902 106 l 902 -33 l 861 -33 m 1010 -33 l 1010 82 q 1031 106 1010 106 q 1051 82 1051 106 l 1051 -6 l 1010 -33 m 676 346 q 610 375 637 346 q 583 447 583 404 q 612 524 583 492 q 684 557 642 557 q 751 528 724 557 q 778 456 778 498 q 748 379 778 412 q 676 346 719 346 m 846 229 q 821 264 821 229 q 829 313 821 285 q 850 362 837 341 q 882 384 864 384 q 913 362 899 384 q 934 313 926 341 q 942 264 942 285 q 917 229 942 229 q 900 233 909 229 q 882 244 891 237 q 863 233 872 237 q 846 229 854 229 m 810 -26 q 849 -18 830 -26 q 882 4 869 -9 q 914 -18 895 -9 q 954 -26 933 -26 q 994 -11 976 -26 q 1019 27 1012 3 q 1055 20 1044 20 q 1099 38 1081 20 q 1118 83 1118 57 q 1137 147 1118 120 q 1199 199 1156 174 q 1258 249 1242 225 q 1273 315 1273 273 q 1261 361 1273 339 q 1292 528 1292 444 q 1238 735 1292 644 q 1092 879 1185 826 q 882 931 1000 931 q 671 879 764 931 q 525 735 578 826 q 471 528 471 644 q 502 361 471 444 q 490 315 490 339 q 506 249 490 273 q 564 199 521 225 q 627 147 608 174 q 646 83 646 120 q 664 38 646 57 q 708 20 682 20 q 745 27 719 20 q 769 -11 751 3 q 810 -26 787 -26 m 486 732 l 395 821 q 364 842 382 835 q 306 854 346 848 l 301 854 q 206 891 240 863 q 172 960 172 918 q 203 1035 172 1005 q 283 1071 233 1064 q 320 1151 290 1121 q 395 1180 349 1180 q 464 1148 438 1180 q 496 1055 489 1116 l 497 1050 q 508 988 503 1006 q 526 959 513 971 l 613 871 l 577 831 l 488 921 q 459 966 469 941 q 443 1043 450 991 l 442 1048 q 426 1108 437 1090 q 395 1126 414 1126 q 350 1102 366 1126 q 332 1022 335 1078 q 253 1005 279 1019 q 227 960 227 991 q 309 909 227 921 l 314 908 q 387 890 361 901 q 433 859 413 880 l 522 771 l 486 732 m 1369 -231 q 1300 -199 1325 -231 q 1267 -106 1274 -167 l 1266 -100 q 1255 -39 1261 -56 q 1238 -9 1250 -22 l 1137 92 l 1173 132 l 1276 28 q 1304 -17 1295 9 q 1320 -94 1314 -42 l 1321 -99 q 1338 -158 1326 -140 q 1369 -176 1350 -176 q 1413 -153 1398 -176 q 1432 -73 1428 -129 q 1510 -55 1484 -69 q 1537 -11 1537 -41 q 1454 41 1537 28 l 1449 41 q 1376 59 1402 48 q 1330 90 1350 70 l 1234 186 l 1270 225 l 1368 128 q 1400 108 1381 115 q 1457 96 1418 101 l 1462 95 q 1557 59 1523 86 q 1591 -11 1591 31 q 1560 -85 1591 -56 q 1480 -121 1530 -115 q 1444 -201 1473 -171 q 1369 -231 1415 -231 m 1087 346 q 1015 379 1044 346 q 985 456 985 412 q 1013 528 985 498 q 1079 557 1040 557 q 1151 524 1121 557 q 1181 447 1181 492 q 1154 375 1181 404 q 1087 346 1126 346 m 1278 732 l 1242 771 l 1330 859 q 1376 890 1350 880 q 1449 908 1402 901 l 1454 909 q 1537 960 1537 921 q 1510 1005 1537 991 q 1432 1022 1484 1019 q 1413 1102 1428 1078 q 1369 1126 1398 1126 q 1338 1108 1350 1126 q 1321 1048 1326 1090 l 1320 1043 q 1304 966 1314 991 q 1276 921 1295 941 l 1186 831 l 1150 871 l 1238 959 q 1255 988 1250 971 q 1266 1050 1261 1006 l 1267 1055 q 1300 1148 1274 1116 q 1369 1180 1325 1180 q 1444 1151 1415 1180 q 1480 1071 1473 1121 q 1560 1035 1530 1064 q 1591 960 1591 1005 q 1557 891 1591 918 q 1462 854 1523 863 l 1457 854 q 1400 842 1418 848 q 1368 821 1381 835 l 1278 732 z "},"☢":{"ha":1763,"x_min":176,"x_max":1587,"o":"m 882 -231 q 609 -175 737 -231 q 384 -22 481 -120 q 232 203 287 75 q 176 475 176 331 q 232 747 176 620 q 384 972 287 875 q 609 1125 481 1069 q 882 1180 737 1180 q 1154 1125 1026 1180 q 1379 972 1282 1069 q 1532 747 1476 875 q 1587 475 1587 620 q 1532 203 1587 331 q 1379 -22 1476 75 q 1154 -175 1282 -120 q 882 -231 1026 -231 m 880 -81 q 737 -63 805 -81 q 612 -12 669 -45 l 810 332 q 882 315 844 315 q 953 332 919 315 l 1152 -12 q 1026 -63 1094 -45 q 880 -81 958 -81 m 330 477 q 363 656 330 568 q 456 819 396 744 q 600 944 517 893 l 799 601 q 747 549 766 581 q 727 477 728 516 l 330 477 m 881 391 q 825 414 848 391 q 802 470 802 437 q 825 526 802 503 q 881 549 848 549 q 938 526 915 549 q 961 470 961 503 q 938 414 961 437 q 881 391 915 391 m 882 -176 q 1133 -125 1015 -176 q 1340 16 1251 -74 q 1481 224 1430 106 q 1533 475 1533 342 q 1481 727 1533 609 q 1340 934 1430 844 q 1133 1075 1251 1024 q 882 1126 1015 1126 q 630 1075 748 1126 q 423 934 513 1024 q 282 727 333 844 q 231 475 231 609 q 282 224 231 342 q 423 16 333 106 q 630 -125 513 -74 q 882 -176 748 -176 m 1036 477 q 1016 549 1035 516 q 964 601 997 581 l 1164 944 q 1307 819 1246 893 q 1400 656 1367 744 q 1433 477 1433 568 l 1036 477 z "},"☣":{"ha":1763,"x_min":176,"x_max":1587,"o":"m 882 -231 q 609 -175 737 -231 q 384 -22 481 -120 q 232 203 287 75 q 176 475 176 331 q 232 747 176 620 q 384 972 287 875 q 609 1125 481 1069 q 882 1180 737 1180 q 1154 1125 1026 1180 q 1379 972 1282 1069 q 1532 747 1476 875 q 1587 475 1587 620 q 1532 203 1587 331 q 1379 -22 1476 75 q 1154 -175 1282 -120 q 882 -231 1026 -231 m 772 237 q 675 315 713 262 q 632 431 637 368 l 673 433 q 707 339 677 381 q 787 276 738 297 l 772 237 m 642 -37 l 640 -26 q 783 65 728 0 q 839 221 839 130 q 832 286 839 249 q 813 352 825 323 q 813 374 807 368 l 827 389 q 838 394 833 394 q 852 390 844 394 q 882 385 861 385 q 910 390 900 385 q 925 394 920 394 q 936 389 930 394 l 950 374 q 950 352 956 368 q 932 286 939 323 q 924 221 924 249 q 980 65 924 130 q 1124 -26 1036 0 l 1121 -37 q 1001 0 1048 -25 q 912 79 954 25 q 896 98 903 90 q 882 105 889 105 q 868 98 875 105 q 851 79 861 90 q 762 0 809 25 q 642 -37 715 -25 m 320 308 l 311 311 q 357 425 329 378 q 427 505 385 471 q 519 554 465 535 q 655 583 574 574 q 595 694 616 642 q 574 800 574 747 q 592 899 574 851 q 646 1000 609 947 l 654 995 q 625 922 634 955 q 616 856 616 888 q 645 733 616 789 q 727 640 675 677 q 848 591 779 603 q 863 575 863 589 q 850 558 863 564 q 794 481 794 534 q 796 461 794 472 q 801 437 798 450 q 795 416 804 424 q 768 418 780 406 q 681 478 728 459 q 583 498 633 498 q 408 433 488 498 q 320 308 356 391 m 882 -176 q 1133 -125 1015 -176 q 1340 16 1251 -74 q 1481 224 1430 106 q 1533 475 1533 342 q 1481 727 1533 609 q 1340 934 1430 844 q 1133 1075 1251 1024 q 882 1126 1015 1126 q 630 1075 748 1126 q 423 934 513 1024 q 282 727 333 844 q 231 475 231 609 q 282 224 231 342 q 423 16 333 106 q 630 -125 513 -74 q 882 -176 748 -176 m 991 237 l 977 276 q 1056 339 1025 297 q 1092 433 1087 381 l 1132 431 q 1089 314 1127 367 q 991 237 1050 262 m 769 658 l 747 692 q 882 730 808 730 q 1015 692 955 730 l 994 658 q 882 689 942 689 q 769 658 821 689 m 1443 308 q 1355 433 1407 391 q 1180 498 1276 498 q 1083 478 1131 498 q 995 418 1035 459 q 968 416 983 406 q 962 437 960 424 q 967 461 966 450 q 969 481 969 472 q 913 558 969 534 q 901 575 901 564 q 915 591 901 589 q 1037 640 984 603 q 1118 733 1089 677 q 1147 856 1147 789 q 1138 922 1147 888 q 1109 995 1129 955 l 1117 1000 q 1172 899 1155 947 q 1189 800 1189 851 q 1168 694 1189 747 q 1108 583 1147 642 q 1245 554 1191 574 q 1337 505 1299 535 q 1407 425 1379 471 q 1453 311 1434 378 l 1443 308 z "},"☦":{"ha":1763,"x_min":176,"x_max":1587,"o":"m 288 -231 q 210 -197 243 -231 q 176 -119 176 -164 l 176 1068 q 210 1147 176 1114 q 288 1180 243 1180 l 1475 1180 q 1554 1147 1521 1180 q 1587 1068 1587 1114 l 1587 -119 q 1554 -198 1587 -165 q 1474 -231 1520 -231 l 288 -231 m 839 0 l 924 0 l 924 178 l 1065 101 l 1107 173 l 924 275 l 924 565 l 1293 565 l 1293 649 l 924 649 l 924 777 l 1114 777 l 1114 863 l 924 863 l 924 977 l 839 977 l 839 863 l 649 863 l 649 777 l 839 777 l 839 649 l 470 649 l 470 565 l 839 565 l 839 322 l 698 401 l 656 328 l 839 226 l 839 0 z "},"☪":{"ha":1763,"x_min":176,"x_max":1587,"o":"m 289 -231 q 210 -198 243 -231 q 176 -119 176 -165 l 176 1068 q 210 1147 176 1114 q 288 1180 243 1180 l 1475 1180 q 1554 1147 1521 1180 q 1587 1068 1587 1114 l 1587 -119 q 1554 -197 1587 -164 q 1475 -231 1521 -231 l 289 -231 m 895 -58 q 1108 -15 1015 -58 q 1263 93 1202 28 q 1289 125 1278 109 q 1303 157 1299 142 q 1142 57 1228 92 q 969 22 1056 22 q 795 56 877 22 q 650 151 713 90 q 551 295 587 212 q 515 475 515 378 q 551 656 515 573 q 650 800 587 739 q 795 895 713 861 q 969 928 877 928 q 1142 894 1056 928 q 1303 794 1228 859 q 1289 825 1299 808 q 1263 858 1278 842 q 1108 965 1201 922 q 895 1009 1015 1009 q 680 968 779 1009 q 506 855 580 928 q 390 686 431 783 q 348 475 348 589 q 390 265 348 362 q 506 96 431 168 q 680 -18 580 23 q 895 -58 779 -58 m 1114 312 l 1230 375 l 1345 312 l 1304 433 l 1407 522 l 1278 522 l 1230 644 l 1181 522 l 1052 522 l 1155 433 l 1114 312 z "},"☮":{"ha":1763,"x_min":176,"x_max":1587,"o":"m 854 14 q 692 54 768 19 q 557 146 616 89 l 854 439 l 854 14 m 522 186 q 447 319 474 245 q 420 475 420 393 q 453 648 420 567 q 546 792 487 730 q 685 893 606 855 q 854 936 764 930 l 854 515 l 522 186 m 909 14 l 909 439 l 1206 146 q 1072 54 1148 89 q 909 14 996 19 m 882 -41 q 1082 -1 989 -41 q 1246 110 1175 39 q 1358 275 1318 181 q 1398 475 1398 368 q 1358 675 1398 582 q 1247 840 1318 769 q 1082 951 1176 911 q 882 991 989 991 q 682 951 775 991 q 517 840 588 911 q 406 675 446 768 q 366 475 366 582 q 406 275 366 368 q 517 110 446 181 q 682 -1 588 39 q 882 -41 775 -41 m 1242 186 l 909 515 l 909 936 q 1079 893 1000 930 q 1217 792 1158 855 q 1310 649 1276 730 q 1343 475 1343 568 q 1317 319 1343 393 q 1242 186 1290 245 m 289 -231 q 210 -198 243 -231 q 176 -119 176 -165 l 176 1068 q 210 1147 176 1114 q 288 1180 243 1180 l 1475 1180 q 1554 1147 1521 1180 q 1587 1068 1587 1114 l 1587 -119 q 1554 -197 1587 -164 q 1475 -231 1521 -231 l 289 -231 z "},"☯":{"ha":1763,"x_min":176,"x_max":1587,"o":"m 282 -231 q 208 -200 239 -231 q 176 -126 176 -169 l 176 1075 q 207 1149 176 1118 q 281 1180 238 1180 l 1482 1180 q 1556 1149 1525 1180 q 1587 1075 1587 1118 l 1587 -125 q 1556 -200 1587 -169 q 1482 -231 1525 -231 l 282 -231 m 881 204 q 837 222 855 204 q 819 267 819 241 q 837 311 819 292 q 881 330 855 330 q 925 311 907 330 q 944 267 944 292 q 925 222 944 241 q 881 204 907 204 m 882 -63 q 1092 -21 994 -63 q 1264 96 1190 21 q 1381 268 1339 170 q 1423 478 1423 366 q 1381 688 1423 590 q 1264 861 1339 786 q 1092 977 1190 935 q 882 1019 994 1019 q 672 977 770 1019 q 499 861 574 935 q 382 688 425 786 q 340 478 340 590 q 382 268 340 366 q 499 96 425 170 q 672 -21 574 21 q 882 -63 770 -63 m 882 -9 q 693 29 782 -9 q 538 134 605 67 q 433 289 471 201 q 395 478 395 378 q 433 667 395 579 q 538 822 471 755 q 693 927 605 889 q 882 965 781 965 q 1071 927 983 965 q 1226 822 1159 889 q 1331 667 1293 755 q 1369 478 1369 579 q 1331 289 1369 378 q 1226 134 1293 201 q 1071 29 1159 67 q 882 -9 983 -9 m 902 77 q 1050 109 979 77 q 1176 196 1120 141 q 1263 321 1231 251 q 1295 469 1295 391 q 1247 658 1295 571 q 1111 804 1200 745 q 1131 743 1124 774 q 1137 675 1137 713 q 1088 539 1137 592 q 958 477 1040 486 q 836 454 888 471 q 749 411 784 437 q 697 349 715 385 q 680 268 680 313 q 708 171 680 214 q 786 102 736 127 q 902 77 836 77 m 882 611 q 939 634 916 611 q 962 690 962 657 q 939 747 962 724 q 882 770 916 770 q 825 747 848 770 q 802 690 802 724 q 825 634 802 657 q 882 611 848 611 z "},"☸":{"ha":1763,"x_min":176,"x_max":1587,"o":"m 882 -77 q 901 -68 893 -77 q 909 -50 909 -60 l 909 23 q 1054 56 983 27 q 1182 136 1124 85 l 1233 85 q 1252 77 1242 77 q 1271 85 1263 77 q 1279 104 1279 93 q 1271 123 1280 115 l 1220 174 q 1300 302 1271 231 q 1334 448 1329 372 l 1406 448 q 1425 456 1417 448 q 1433 475 1433 465 q 1425 495 1433 487 q 1406 503 1417 503 l 1334 503 q 1300 648 1330 578 q 1219 776 1271 718 l 1271 827 q 1279 846 1279 835 q 1271 865 1279 857 q 1252 873 1263 873 q 1233 865 1242 873 l 1181 814 q 1054 894 1124 865 q 909 927 984 923 l 909 1000 q 901 1019 909 1011 q 882 1027 893 1027 q 863 1019 871 1027 q 854 1000 854 1011 l 854 927 q 709 894 779 923 q 582 814 639 865 l 530 865 q 511 873 522 873 q 492 865 500 873 q 484 846 484 857 q 492 827 484 835 l 544 776 q 463 648 492 718 q 429 503 433 578 l 357 503 q 338 495 347 503 q 330 475 330 487 q 338 456 330 465 q 357 448 347 448 l 429 448 q 463 302 434 372 q 543 174 492 231 l 492 123 q 484 104 484 115 q 492 85 484 93 q 511 77 500 77 q 530 85 522 77 l 581 136 q 710 56 640 85 q 854 23 780 27 l 854 -50 q 863 -68 854 -60 q 882 -77 871 -77 m 882 347 q 818 366 847 347 q 771 414 789 385 q 754 475 754 444 q 792 566 754 528 q 882 604 829 604 q 971 566 934 604 q 1009 475 1009 528 q 992 414 1009 444 q 946 366 975 385 q 882 347 917 347 m 582 214 q 513 322 538 262 q 484 448 488 382 l 702 448 q 736 368 708 404 l 582 214 m 854 78 q 729 107 789 82 q 621 175 669 132 l 774 330 q 854 296 810 302 l 854 78 m 909 78 l 909 296 q 989 330 954 302 l 1143 175 q 1034 107 1094 132 q 909 78 974 82 m 1181 214 l 1027 368 q 1061 448 1055 404 l 1279 448 q 1250 322 1275 382 q 1181 214 1225 262 m 1061 503 q 1027 583 1055 547 l 1181 736 q 1251 627 1225 687 q 1279 503 1276 567 l 1061 503 m 989 622 q 909 655 953 649 l 909 872 q 1033 844 973 869 q 1143 775 1093 819 l 989 622 m 774 622 l 621 775 q 730 844 670 819 q 854 872 791 869 l 854 655 q 774 622 810 649 m 484 503 q 513 627 488 567 q 582 736 538 687 l 736 583 q 702 503 708 547 l 484 503 m 289 -231 q 210 -198 243 -231 q 176 -119 176 -165 l 176 1068 q 210 1147 176 1114 q 288 1180 243 1180 l 1475 1180 q 1554 1147 1521 1180 q 1587 1068 1587 1114 l 1587 -119 q 1554 -197 1587 -164 q 1475 -231 1521 -231 l 289 -231 z "},"☹":{"ha":1763,"x_min":176,"x_max":1587,"o":"m 882 -231 q 607 -176 735 -231 q 382 -24 479 -121 q 231 200 286 73 q 176 475 176 328 q 231 749 176 621 q 382 974 286 877 q 607 1125 479 1071 q 882 1180 735 1180 q 1155 1125 1027 1180 q 1380 974 1283 1071 q 1532 749 1477 877 q 1587 475 1587 621 q 1532 200 1587 328 q 1380 -24 1477 73 q 1155 -176 1283 -121 q 882 -231 1027 -231 m 558 112 l 511 139 q 602 243 544 199 q 732 313 660 288 q 882 338 805 338 q 1030 313 958 338 q 1161 243 1103 288 q 1253 139 1219 198 l 1205 112 q 1126 201 1177 163 q 1012 262 1076 240 q 882 284 949 284 q 751 262 814 284 q 637 202 688 241 q 558 112 587 163 m 643 529 q 583 559 608 529 q 558 631 558 589 q 583 703 558 673 q 643 732 608 732 q 703 703 677 732 q 728 631 728 673 q 703 559 728 589 q 643 529 677 529 m 882 -176 q 1135 -126 1017 -176 q 1342 14 1253 -75 q 1482 222 1432 104 q 1533 475 1533 340 q 1482 728 1533 610 q 1342 935 1432 846 q 1135 1075 1253 1025 q 882 1126 1017 1126 q 629 1075 747 1126 q 421 935 511 1025 q 281 728 332 846 q 231 475 231 610 q 281 222 231 340 q 421 14 332 104 q 629 -126 511 -75 q 882 -176 747 -176 m 1120 529 q 1061 559 1086 529 q 1036 631 1036 589 q 1061 703 1036 673 q 1120 732 1086 732 q 1180 703 1155 732 q 1205 631 1205 673 q 1180 559 1205 589 q 1120 529 1155 529 z "},"☺":{"ha":1763,"x_min":176,"x_max":1587,"o":"m 882 -231 q 607 -176 735 -231 q 382 -24 479 -121 q 231 200 286 73 q 176 475 176 328 q 231 749 176 621 q 382 974 286 877 q 607 1125 479 1071 q 882 1180 735 1180 q 1155 1125 1027 1180 q 1380 974 1283 1071 q 1532 749 1477 877 q 1587 475 1587 621 q 1532 200 1587 328 q 1380 -24 1477 73 q 1155 -176 1283 -121 q 882 -231 1027 -231 m 431 321 q 423 345 416 329 l 460 422 q 484 431 468 439 q 492 408 499 423 l 454 330 q 431 321 447 313 m 506 302 q 498 326 490 311 l 553 441 q 576 450 560 458 q 584 427 591 441 l 529 311 q 506 302 522 294 m 598 321 q 590 345 583 329 l 627 422 q 650 431 635 439 q 659 408 666 423 l 621 330 q 598 321 614 313 m 882 83 q 625 192 758 83 l 661 234 q 882 137 776 137 q 1103 234 985 137 l 1137 192 q 882 83 1004 83 m 507 500 l 467 536 q 629 616 537 616 q 792 536 722 616 l 751 500 q 629 562 696 562 q 507 500 562 562 m 882 -176 q 1135 -126 1017 -176 q 1342 14 1253 -75 q 1482 222 1432 104 q 1533 475 1533 340 q 1482 728 1533 610 q 1342 935 1432 846 q 1135 1075 1253 1025 q 882 1126 1017 1126 q 629 1075 747 1126 q 421 935 511 1025 q 281 728 332 846 q 231 475 231 610 q 281 222 231 340 q 421 14 332 104 q 629 -126 511 -75 q 882 -176 747 -176 m 479 748 l 442 789 q 550 848 487 829 q 702 867 613 867 l 702 813 q 569 798 622 813 q 479 748 515 782 m 1113 321 q 1105 345 1098 329 l 1142 422 q 1165 431 1149 439 q 1173 408 1181 423 l 1136 330 q 1113 321 1128 313 m 1187 302 q 1179 326 1172 311 l 1234 441 q 1257 450 1242 458 q 1265 427 1273 441 l 1211 311 q 1187 302 1203 294 m 1280 321 q 1272 345 1265 329 l 1309 422 q 1332 431 1316 439 q 1340 408 1348 423 l 1303 330 q 1280 321 1295 313 m 1012 500 l 971 536 q 1134 616 1042 616 q 1297 536 1226 616 l 1256 500 q 1134 562 1201 562 q 1012 500 1067 562 m 1284 748 q 1195 798 1248 782 q 1061 813 1141 813 l 1061 867 q 1213 848 1150 867 q 1321 789 1276 829 l 1284 748 z "},"♀":{"ha":1763,"x_min":434,"x_max":1329,"o":"m 800 -231 l 800 -47 l 633 -47 l 633 116 l 800 116 l 800 287 q 611 371 694 307 q 481 529 528 435 q 434 730 434 623 q 469 905 434 823 q 565 1048 504 986 q 708 1145 627 1109 q 882 1180 789 1180 q 1056 1145 975 1180 q 1198 1048 1137 1109 q 1294 905 1259 986 q 1329 730 1329 823 q 1282 529 1329 623 q 1153 371 1235 435 q 963 287 1070 307 l 963 116 l 1131 116 l 1131 -47 l 963 -47 l 963 -231 l 800 -231 m 882 442 q 1025 481 961 442 q 1128 586 1090 520 q 1166 730 1166 651 q 1128 874 1166 809 q 1025 978 1090 939 q 882 1017 960 1017 q 738 978 803 1017 q 635 874 673 939 q 597 730 597 809 q 635 586 597 651 q 738 481 673 520 q 882 442 803 442 z "},"♂":{"ha":1763,"x_min":186,"x_max":1577,"o":"m 681 -231 q 490 -192 579 -231 q 332 -85 400 -153 q 225 73 264 -17 q 186 264 186 163 q 225 454 186 366 q 332 611 264 543 q 490 718 401 679 q 681 756 579 756 q 829 734 758 756 q 961 669 900 711 l 1297 1017 l 1066 1017 l 1066 1180 l 1577 1180 l 1577 669 l 1414 669 l 1414 903 l 1078 555 q 1149 418 1125 492 q 1174 264 1174 343 q 1136 72 1174 162 q 1029 -86 1097 -18 q 872 -192 962 -154 q 681 -231 783 -231 m 681 -68 q 847 -23 772 -68 q 967 97 922 22 q 1011 264 1011 173 q 967 430 1011 355 q 847 549 922 505 q 681 593 772 593 q 515 549 591 593 q 394 429 439 504 q 349 264 349 355 q 394 98 349 174 q 515 -23 439 22 q 681 -68 591 -68 z "},"♈":{"ha":1763,"x_min":176,"x_max":1587,"o":"m 882 -231 q 661 -194 766 -231 q 467 -92 555 -158 q 313 62 378 -26 q 212 256 248 151 q 176 475 176 361 q 212 694 176 589 q 313 887 248 799 q 467 1042 378 976 q 661 1144 555 1107 q 882 1180 766 1180 q 1103 1144 998 1180 q 1296 1042 1208 1107 q 1450 887 1385 976 q 1551 694 1515 799 q 1587 475 1587 589 q 1551 256 1587 361 q 1450 62 1515 151 q 1296 -92 1385 -26 q 1103 -194 1208 -158 q 882 -231 998 -231 m 844 86 l 919 86 l 990 537 q 1041 678 1006 633 q 1138 723 1077 723 q 1235 681 1196 723 q 1277 578 1274 639 l 1358 578 q 1327 693 1356 642 q 1249 774 1297 744 q 1138 804 1200 804 q 986 743 1044 804 q 909 549 928 682 l 882 358 l 854 549 q 777 743 836 682 q 625 804 719 804 q 515 774 564 804 q 436 693 466 744 q 405 578 407 642 l 486 578 q 528 681 489 639 q 625 723 568 723 q 722 678 686 723 q 773 537 758 633 l 844 86 z "},"♉":{"ha":1763,"x_min":176,"x_max":1587,"o":"m 882 -231 q 661 -194 766 -231 q 467 -92 555 -158 q 313 62 378 -26 q 212 256 248 151 q 176 475 176 361 q 212 694 176 589 q 313 887 248 799 q 467 1042 378 976 q 661 1144 555 1107 q 882 1180 766 1180 q 1103 1144 998 1180 q 1296 1042 1208 1107 q 1450 887 1385 976 q 1551 694 1515 799 q 1587 475 1587 589 q 1551 256 1587 361 q 1450 62 1515 151 q 1296 -92 1385 -26 q 1103 -194 1208 -158 q 882 -231 998 -231 m 882 77 q 756 110 813 77 q 666 201 699 144 q 632 326 632 258 q 666 452 632 395 q 756 542 699 509 q 882 576 813 576 q 1007 542 951 576 q 1098 452 1064 509 q 1131 326 1131 395 q 1098 201 1131 258 q 1007 110 1064 144 q 882 77 951 77 m 882 -5 q 1048 40 973 -5 q 1168 160 1123 85 q 1213 326 1213 235 q 1168 492 1213 415 q 1047 612 1124 569 q 1184 710 1127 648 q 1259 848 1240 772 l 1181 869 q 1120 762 1165 810 q 1013 685 1076 713 q 882 657 950 657 q 751 685 813 657 q 643 762 688 713 q 583 869 598 810 l 504 848 q 580 710 524 772 q 716 612 636 648 q 595 492 640 569 q 551 326 551 415 q 595 160 551 235 q 715 40 640 85 q 882 -5 791 -5 z "},"♊":{"ha":1763,"x_min":176,"x_max":1587,"o":"m 882 -231 q 661 -194 766 -231 q 467 -92 555 -158 q 313 62 378 -26 q 212 256 248 151 q 176 475 176 361 q 212 694 176 589 q 313 887 248 799 q 467 1042 378 976 q 661 1144 555 1107 q 882 1180 766 1180 q 1103 1144 998 1180 q 1296 1042 1208 1107 q 1450 887 1385 976 q 1551 694 1515 799 q 1587 475 1587 589 q 1551 256 1587 361 q 1450 62 1515 151 q 1296 -92 1385 -26 q 1103 -194 1208 -158 q 882 -231 998 -231 m 530 77 q 608 117 554 100 q 732 144 661 134 q 882 155 804 155 q 1031 144 960 155 q 1156 117 1102 134 q 1234 77 1209 100 l 1288 137 q 1214 182 1261 162 q 1105 214 1166 201 l 1105 735 q 1214 768 1166 749 q 1288 812 1261 787 l 1234 872 q 1156 833 1209 850 q 1031 805 1102 815 q 882 795 960 795 q 732 805 804 795 q 608 833 661 815 q 530 872 554 850 l 475 812 q 550 768 503 787 q 658 735 597 749 l 658 214 q 550 182 597 201 q 475 137 503 162 l 530 77 m 739 227 l 739 722 q 809 715 773 718 q 882 713 844 713 q 955 715 919 713 q 1024 722 990 718 l 1024 227 q 955 234 990 232 q 882 236 919 236 q 809 234 844 236 q 739 227 773 232 z "},"♋":{"ha":1763,"x_min":176,"x_max":1587,"o":"m 882 -231 q 661 -194 766 -231 q 467 -92 555 -158 q 313 62 378 -26 q 212 256 248 151 q 176 475 176 361 q 212 694 176 589 q 313 887 248 799 q 467 1042 378 976 q 661 1144 555 1107 q 882 1180 766 1180 q 1103 1144 998 1180 q 1296 1042 1208 1107 q 1450 887 1385 976 q 1551 694 1515 799 q 1587 475 1587 589 q 1551 256 1587 361 q 1450 62 1515 151 q 1296 -92 1385 -26 q 1103 -194 1208 -158 q 882 -231 998 -231 m 610 410 q 521 433 561 410 q 458 497 481 457 q 434 585 434 536 q 458 673 434 633 q 521 736 481 713 q 610 760 561 760 q 698 736 659 760 q 761 673 737 713 q 784 585 784 634 q 761 497 784 536 q 697 433 737 457 q 610 410 658 410 m 922 40 q 1178 81 1067 40 q 1349 195 1288 121 q 1411 364 1411 268 q 1376 494 1411 435 q 1283 587 1341 552 q 1154 621 1225 621 q 1025 587 1083 621 q 932 494 967 552 q 898 364 898 435 q 919 263 898 310 q 979 184 941 217 q 1067 135 1017 151 q 922 121 999 121 q 707 148 793 121 q 562 231 621 174 l 507 172 q 678 72 577 104 q 922 40 779 40 m 610 328 q 738 363 680 328 q 831 456 796 397 q 865 585 865 514 q 844 686 865 640 q 785 766 823 732 q 696 814 747 800 q 842 828 764 828 q 1056 802 970 828 q 1201 719 1142 776 l 1257 777 q 1086 878 1186 846 q 842 909 985 909 q 586 869 696 909 q 414 755 475 828 q 353 585 353 682 q 387 456 353 514 q 480 363 422 397 q 610 328 538 328 m 1154 190 q 1066 213 1105 190 q 1003 276 1026 237 q 979 364 979 316 q 1003 453 979 413 q 1066 516 1026 493 q 1154 540 1105 540 q 1242 516 1202 540 q 1306 453 1282 493 q 1329 364 1329 413 q 1306 276 1329 316 q 1242 213 1282 237 q 1154 190 1202 190 z "},"♌":{"ha":1763,"x_min":176,"x_max":1587,"o":"m 882 -231 q 661 -194 766 -231 q 467 -92 555 -158 q 313 62 378 -26 q 212 256 248 151 q 176 475 176 361 q 212 694 176 589 q 313 887 248 799 q 467 1042 378 976 q 661 1144 555 1107 q 882 1180 766 1180 q 1103 1144 998 1180 q 1296 1042 1208 1107 q 1450 887 1385 976 q 1551 694 1515 799 q 1587 475 1587 589 q 1551 256 1587 361 q 1450 62 1515 151 q 1296 -92 1385 -26 q 1103 -194 1208 -158 q 882 -231 998 -231 m 615 298 q 537 319 572 298 q 481 375 502 340 q 460 453 460 410 q 481 531 460 496 q 537 587 502 566 q 615 608 572 608 q 693 587 659 608 q 749 531 728 566 q 770 453 770 496 q 749 375 770 410 q 693 319 728 340 q 615 298 658 298 m 1116 10 q 1205 26 1163 10 q 1277 70 1248 41 l 1221 130 q 1118 92 1184 92 q 1042 121 1068 92 q 1016 208 1016 151 q 1043 308 1016 252 q 1122 429 1069 363 q 1204 544 1166 483 q 1242 673 1242 606 q 1206 809 1242 748 q 1110 906 1171 869 q 975 942 1049 942 q 843 908 904 942 q 745 818 782 875 q 707 689 707 760 q 707 680 707 684 q 707 670 707 675 q 663 684 686 680 q 615 689 639 689 q 496 657 550 689 q 410 572 442 625 q 378 453 378 518 q 410 334 378 388 q 496 249 442 281 q 615 217 550 217 q 734 249 680 217 q 820 335 788 281 q 852 453 852 389 q 839 525 852 494 q 813 579 827 557 q 794 624 800 601 q 787 673 787 646 q 812 768 787 726 q 880 836 838 810 q 975 861 923 861 q 1069 836 1027 861 q 1136 769 1112 811 q 1161 673 1161 726 q 1130 577 1161 625 q 1057 477 1099 530 q 973 351 1012 421 q 935 208 935 281 q 984 64 935 117 q 1116 10 1034 10 z "},"♍":{"ha":1763,"x_min":176,"x_max":1587,"o":"m 882 -231 q 661 -194 766 -231 q 467 -92 555 -158 q 313 62 378 -26 q 212 256 248 151 q 176 475 176 361 q 212 694 176 589 q 313 887 248 799 q 467 1042 378 976 q 661 1144 555 1107 q 882 1180 766 1180 q 1103 1144 998 1180 q 1296 1042 1208 1107 q 1450 887 1385 976 q 1551 694 1515 799 q 1587 475 1587 589 q 1551 256 1587 361 q 1450 62 1515 151 q 1296 -92 1385 -26 q 1103 -194 1208 -158 q 882 -231 998 -231 m 1246 -9 l 1287 63 q 1191 131 1222 100 q 1144 202 1159 162 q 1328 408 1265 307 q 1390 595 1390 508 q 1345 731 1390 680 q 1226 781 1301 781 q 1121 740 1162 781 q 1062 865 1109 820 q 941 909 1015 909 q 797 831 842 909 q 654 909 751 909 q 519 852 567 909 q 471 690 471 794 l 471 168 l 552 168 l 552 690 q 654 828 552 828 q 731 793 705 828 q 757 690 757 758 l 757 168 l 838 168 l 838 690 q 941 828 838 828 q 1017 793 991 828 q 1043 690 1043 758 l 1043 360 q 1045 289 1043 321 q 1052 232 1047 258 q 857 95 966 162 l 900 26 q 996 88 952 58 q 1078 149 1040 119 q 1138 68 1100 104 q 1246 -9 1177 32 m 1126 297 q 1125 329 1126 313 q 1124 360 1124 345 l 1124 574 q 1150 667 1124 633 q 1222 700 1176 700 q 1286 673 1263 700 q 1309 595 1309 646 q 1262 457 1309 533 q 1126 297 1216 380 z "},"♎":{"ha":1763,"x_min":176,"x_max":1587,"o":"m 882 -231 q 661 -194 766 -231 q 467 -92 555 -158 q 313 62 378 -26 q 212 256 248 151 q 176 475 176 361 q 212 694 176 589 q 313 887 248 799 q 467 1042 378 976 q 661 1144 555 1107 q 882 1180 766 1180 q 1103 1144 998 1180 q 1296 1042 1208 1107 q 1450 887 1385 976 q 1551 694 1515 799 q 1587 475 1587 589 q 1551 256 1587 361 q 1450 62 1515 151 q 1296 -92 1385 -26 q 1103 -194 1208 -158 q 882 -231 998 -231 m 468 127 l 1295 127 l 1295 209 l 468 209 l 468 127 m 468 314 l 752 314 l 752 414 q 675 498 704 444 q 646 616 646 553 q 677 727 646 677 q 763 807 709 777 q 882 837 817 837 q 1000 807 947 837 q 1086 727 1054 777 q 1118 616 1118 677 q 1088 498 1118 553 q 1011 414 1059 444 l 1011 314 l 1295 314 l 1295 395 l 1109 395 q 1176 496 1152 438 q 1199 616 1199 553 q 1156 768 1199 699 q 1041 878 1113 837 q 882 918 969 918 q 723 878 795 918 q 607 768 650 837 q 564 616 564 699 q 588 496 564 553 q 654 395 611 438 l 468 395 l 468 314 z "},"♏":{"ha":1763,"x_min":176,"x_max":1587,"o":"m 882 -231 q 661 -194 766 -231 q 467 -92 555 -158 q 313 62 378 -26 q 212 256 248 151 q 176 475 176 361 q 212 694 176 589 q 313 887 248 799 q 467 1042 378 976 q 661 1144 555 1107 q 882 1180 766 1180 q 1103 1144 998 1180 q 1296 1042 1208 1107 q 1450 887 1385 976 q 1551 694 1515 799 q 1587 475 1587 589 q 1551 256 1587 361 q 1450 62 1515 151 q 1296 -92 1385 -26 q 1103 -194 1208 -158 q 882 -231 998 -231 m 1207 113 q 1325 162 1282 113 q 1373 296 1369 211 l 1439 296 l 1332 444 l 1225 296 l 1291 296 q 1268 219 1289 244 q 1208 194 1248 194 q 1145 225 1166 194 q 1124 321 1124 256 l 1124 661 q 1075 823 1124 763 q 941 882 1026 882 q 856 862 892 882 q 797 801 820 841 q 738 862 774 841 q 654 882 701 882 q 519 824 567 882 q 471 661 471 766 l 471 168 l 552 168 l 552 661 q 577 767 552 732 q 654 801 603 801 q 730 765 704 801 q 757 661 757 729 l 757 168 l 838 168 l 838 661 q 941 801 838 801 q 1017 765 991 801 q 1043 661 1043 730 l 1043 319 q 1086 167 1043 221 q 1207 113 1129 113 z "},"♐":{"ha":1763,"x_min":176,"x_max":1587,"o":"m 882 -231 q 661 -194 766 -231 q 467 -92 555 -158 q 313 62 378 -26 q 212 256 248 151 q 176 475 176 361 q 212 694 176 589 q 313 887 248 799 q 467 1042 378 976 q 661 1144 555 1107 q 882 1180 766 1180 q 1103 1144 998 1180 q 1296 1042 1208 1107 q 1450 887 1385 976 q 1551 694 1515 799 q 1587 475 1587 589 q 1551 256 1587 361 q 1450 62 1515 151 q 1296 -92 1385 -26 q 1103 -194 1208 -158 q 882 -231 998 -231 m 564 75 l 812 323 l 970 168 l 1027 225 l 869 380 l 1177 687 l 1177 439 l 1258 439 l 1258 825 l 858 825 l 858 744 l 1120 744 l 812 437 l 654 593 l 597 535 l 755 380 l 507 132 l 564 75 z "},"♑":{"ha":1763,"x_min":176,"x_max":1587,"o":"m 882 -231 q 661 -194 766 -231 q 467 -92 555 -158 q 313 62 378 -26 q 212 256 248 151 q 176 475 176 361 q 212 694 176 589 q 313 887 248 799 q 467 1042 378 976 q 661 1144 555 1107 q 882 1180 766 1180 q 1103 1144 998 1180 q 1296 1042 1208 1107 q 1450 887 1385 976 q 1551 694 1515 799 q 1587 475 1587 589 q 1551 256 1587 361 q 1450 62 1515 151 q 1296 -92 1385 -26 q 1103 -194 1208 -158 q 882 -231 998 -231 m 862 -21 q 980 21 930 -21 q 1052 137 1030 62 q 1160 123 1101 123 q 1276 151 1225 123 q 1356 225 1327 178 q 1385 335 1385 273 q 1360 440 1385 394 q 1292 512 1335 486 q 1194 538 1249 538 q 1088 506 1133 538 q 1019 412 1044 474 q 986 259 993 350 q 911 439 911 318 l 911 675 q 862 826 911 770 q 729 882 812 882 q 643 862 681 882 q 581 802 604 841 q 549 842 568 823 q 509 877 530 861 l 460 812 q 544 640 544 751 l 544 221 l 625 221 l 625 675 q 652 768 625 735 q 728 801 680 801 q 803 768 776 801 q 830 675 830 735 l 830 439 q 868 276 830 347 q 976 167 906 206 q 933 87 962 115 q 863 60 903 60 q 818 68 842 60 q 783 89 794 77 l 728 29 q 787 -7 749 7 q 862 -21 825 -21 m 1160 205 q 1065 217 1108 205 q 1085 356 1071 303 q 1126 433 1099 409 q 1194 457 1153 457 q 1273 423 1242 457 q 1303 335 1303 389 q 1264 241 1303 277 q 1160 205 1225 205 z "},"♒":{"ha":1763,"x_min":176,"x_max":1587,"o":"m 882 -231 q 661 -194 766 -231 q 467 -92 555 -158 q 313 62 378 -26 q 212 256 248 151 q 176 475 176 361 q 212 694 176 589 q 313 887 248 799 q 467 1042 378 976 q 661 1144 555 1107 q 882 1180 766 1180 q 1103 1144 998 1180 q 1296 1042 1208 1107 q 1450 887 1385 976 q 1551 694 1515 799 q 1587 475 1587 589 q 1551 256 1587 361 q 1450 62 1515 151 q 1296 -92 1385 -26 q 1103 -194 1208 -158 q 882 -231 998 -231 m 709 96 q 793 163 764 96 l 861 313 q 881 335 870 335 q 891 331 886 335 q 902 313 896 327 l 969 163 q 1053 96 999 96 q 1137 163 1107 96 l 1205 313 q 1216 331 1211 327 q 1225 335 1220 335 q 1246 313 1237 335 l 1342 107 l 1416 142 l 1316 351 q 1275 411 1296 393 q 1225 429 1254 429 q 1177 413 1198 429 q 1140 362 1156 397 l 1072 212 q 1062 194 1065 198 q 1053 189 1058 189 q 1045 194 1048 189 q 1034 212 1041 198 l 972 351 q 932 411 954 393 q 881 429 911 429 q 830 411 852 429 q 790 351 809 393 l 728 212 q 719 194 722 199 q 709 189 715 189 q 701 194 705 189 q 690 212 697 198 l 623 362 q 586 413 608 396 q 537 429 565 429 q 487 411 508 429 q 446 351 467 393 l 346 142 l 420 107 l 515 313 q 537 335 526 335 q 547 331 543 335 q 557 313 551 327 l 625 163 q 709 96 655 96 m 709 520 q 793 587 764 520 l 861 737 q 881 759 870 759 q 891 755 886 759 q 902 737 896 751 l 969 587 q 1053 520 999 520 q 1137 587 1107 520 l 1205 737 q 1216 755 1211 751 q 1225 759 1220 759 q 1246 737 1237 759 l 1342 531 l 1416 566 l 1316 774 q 1275 835 1296 817 q 1225 853 1254 853 q 1177 837 1198 853 q 1140 786 1156 821 l 1072 636 q 1062 617 1065 622 q 1053 613 1058 613 q 1045 617 1048 613 q 1034 636 1041 622 l 972 774 q 932 835 954 817 q 881 853 911 853 q 830 835 852 853 q 790 774 809 817 l 728 636 q 719 618 722 623 q 709 613 715 613 q 701 617 705 613 q 690 636 697 622 l 623 786 q 586 837 608 820 q 537 853 565 853 q 487 835 508 853 q 446 774 467 817 l 346 566 l 420 531 l 515 737 q 537 759 526 759 q 547 755 543 759 q 557 737 551 751 l 625 587 q 709 520 655 520 z "},"♓":{"ha":1763,"x_min":176,"x_max":1587,"o":"m 892 -231 q 611 -175 741 -231 q 383 -21 481 -119 q 231 209 286 78 q 176 490 176 340 q 231 755 176 631 q 381 975 286 880 q 603 1125 477 1071 q 871 1180 728 1180 q 1152 1124 1022 1180 q 1380 970 1282 1069 q 1532 741 1478 871 q 1587 459 1587 610 q 1532 194 1587 319 q 1381 -26 1478 70 q 1160 -176 1285 -121 q 892 -231 1034 -231 m 528 54 q 666 215 614 114 q 724 440 717 315 l 1040 440 q 1098 215 1047 315 q 1236 54 1149 114 l 1283 119 q 1170 252 1212 169 q 1122 440 1128 335 l 1327 440 l 1327 522 l 1122 522 q 1170 710 1128 627 q 1283 843 1212 793 l 1236 908 q 1098 747 1149 848 q 1040 522 1047 646 l 724 522 q 666 748 717 647 q 528 908 614 848 l 480 843 q 593 710 551 793 q 642 522 635 627 l 436 522 l 436 440 l 642 440 q 593 252 635 335 q 480 119 551 169 l 528 54 z "},"♟":{"ha":1763,"x_min":441,"x_max":1322,"o":"m 882 -231 q 731 -222 800 -231 q 608 -199 662 -214 q 517 -161 554 -183 q 460 -112 479 -140 q 441 -53 441 -85 q 455 0 441 -26 q 493 44 469 26 q 487 90 487 62 q 517 181 487 132 q 589 256 547 230 q 613 317 592 292 q 665 351 634 343 q 724 468 711 408 q 739 598 736 528 q 660 643 688 614 q 632 710 632 671 q 652 768 632 744 q 707 802 671 792 q 657 948 657 862 q 686 1067 657 1015 q 765 1150 714 1120 q 882 1180 815 1180 q 999 1150 948 1180 q 1078 1067 1049 1120 q 1106 948 1106 1015 q 1057 802 1106 862 q 1112 768 1092 792 q 1131 710 1131 744 q 1104 643 1131 671 q 1024 598 1076 614 q 1040 468 1027 528 q 1098 351 1053 408 q 1151 317 1130 343 q 1175 256 1172 292 q 1246 181 1217 230 q 1276 90 1276 132 q 1270 44 1276 62 q 1308 0 1294 26 q 1322 -53 1322 -26 q 1303 -112 1322 -85 q 1246 -161 1284 -140 q 1155 -199 1209 -183 q 1033 -222 1101 -214 q 882 -231 964 -231 m 835 -142 q 858 -137 848 -143 q 867 -119 867 -130 q 858 -101 867 -108 q 836 -94 850 -94 q 715 -77 771 -90 q 613 -46 659 -65 q 591 -43 601 -41 q 576 -56 581 -46 q 575 -75 571 -66 q 591 -90 580 -85 q 701 -125 639 -112 q 835 -142 762 -138 m 882 6 q 1067 24 987 6 q 1194 75 1147 42 q 1205 91 1203 81 q 1201 110 1207 101 q 1184 121 1194 120 q 1162 115 1174 122 q 1049 71 1118 85 q 882 57 979 57 q 714 71 784 57 q 601 115 645 85 q 579 121 589 122 q 562 110 570 120 q 558 91 556 101 q 569 75 560 81 q 697 24 616 42 q 882 6 777 6 m 882 216 q 995 222 945 216 q 1085 240 1044 227 q 1102 252 1097 243 q 1103 273 1107 261 q 1090 287 1100 283 q 1068 288 1081 292 q 984 273 1029 279 q 882 267 939 267 q 780 273 825 267 q 695 288 735 279 q 673 287 682 292 q 660 273 663 283 q 661 252 656 261 q 678 240 667 243 q 769 222 720 228 q 882 216 818 216 m 882 657 q 956 665 918 657 q 1039 687 994 672 q 1054 700 1050 690 q 1055 720 1058 709 q 1041 734 1051 730 q 1020 733 1031 738 q 952 714 986 720 q 882 708 918 708 q 743 733 810 708 q 722 734 732 738 q 709 720 712 730 q 709 700 705 709 q 724 687 713 690 q 807 664 770 671 q 882 657 845 657 m 792 934 q 822 960 814 930 q 840 991 827 979 q 874 1009 853 1002 q 894 1038 897 1017 q 882 1056 892 1050 q 861 1058 872 1061 q 803 1026 827 1049 q 772 966 780 1002 q 774 945 769 956 q 792 934 780 935 z "},"♠":{"ha":1763,"x_min":251,"x_max":1512,"o":"m 524 -231 q 493 -218 505 -231 q 481 -186 481 -206 q 497 -140 481 -163 q 546 -96 513 -118 q 627 -53 579 -74 q 704 -12 666 -36 q 768 46 743 12 q 794 130 794 81 q 791 164 794 145 q 706 104 746 127 q 625 72 666 81 q 536 62 585 62 q 387 96 452 62 q 287 193 323 131 q 251 338 251 256 q 281 485 251 408 q 372 648 311 562 q 522 832 432 734 q 604 917 556 869 q 703 1015 651 965 q 802 1109 755 1065 q 882 1180 848 1152 q 962 1109 915 1152 q 1060 1015 1008 1065 q 1160 917 1112 965 q 1241 832 1207 869 q 1392 648 1331 734 q 1482 485 1452 562 q 1512 338 1512 408 q 1476 193 1512 256 q 1376 96 1440 131 q 1227 62 1312 62 q 1138 72 1179 62 q 1057 104 1097 81 q 972 164 1017 127 q 969 130 969 145 q 995 46 969 81 q 1059 -12 1021 12 q 1136 -53 1098 -36 q 1217 -96 1185 -74 q 1266 -140 1250 -118 q 1282 -186 1282 -163 q 1271 -218 1282 -206 q 1240 -231 1259 -231 l 524 -231 z "},"♣":{"ha":1763,"x_min":203,"x_max":1560,"o":"m 517 -231 q 473 -213 490 -231 q 457 -169 457 -196 q 475 -111 457 -134 q 524 -71 494 -87 q 590 -40 554 -55 q 666 -3 628 -24 q 733 50 704 18 q 773 134 762 82 q 684 68 742 92 q 552 45 627 45 q 373 85 452 45 q 249 197 294 126 q 203 358 203 268 q 247 525 203 451 q 364 641 290 598 q 532 684 438 684 q 568 681 552 684 q 604 671 585 678 q 560 760 574 720 q 546 841 546 801 q 590 1015 546 938 q 710 1136 634 1091 q 882 1180 786 1180 q 1053 1136 977 1180 q 1173 1015 1129 1091 q 1217 841 1217 938 q 1203 760 1217 801 q 1160 671 1190 720 q 1195 681 1179 678 q 1232 684 1211 684 q 1400 641 1326 684 q 1517 525 1474 598 q 1560 358 1560 451 q 1515 197 1560 268 q 1391 85 1470 126 q 1211 45 1312 45 q 1080 68 1137 45 q 990 134 1022 92 q 1030 50 1001 82 q 1097 -3 1059 18 q 1173 -40 1135 -24 q 1239 -71 1209 -55 q 1288 -111 1270 -87 q 1306 -169 1306 -134 q 1290 -213 1306 -196 q 1246 -231 1274 -231 l 517 -231 z "},"♥":{"ha":1763,"x_min":122,"x_max":1641,"o":"m 882 -231 q 447 149 614 -26 q 201 481 279 324 q 122 786 122 637 q 172 990 122 901 q 308 1129 222 1079 q 505 1180 395 1180 q 655 1151 583 1180 q 785 1068 726 1122 q 882 936 844 1013 q 979 1068 920 1013 q 1109 1151 1037 1122 q 1259 1180 1181 1180 q 1455 1129 1369 1180 q 1591 990 1541 1079 q 1641 786 1641 901 q 1563 481 1641 637 q 1316 149 1484 324 q 882 -231 1149 -26 z "},"♦":{"ha":1763,"x_min":359,"x_max":1404,"o":"m 882 -231 q 835 -215 852 -231 q 791 -163 818 -200 l 401 380 q 368 434 376 416 q 359 475 359 452 q 368 515 359 497 q 401 569 376 534 l 791 1112 q 835 1165 818 1150 q 882 1180 852 1180 q 928 1165 911 1180 q 972 1112 945 1150 l 1362 569 q 1396 515 1388 534 q 1404 475 1404 497 q 1396 434 1404 452 q 1362 380 1388 416 l 972 -163 q 928 -215 945 -200 q 882 -231 911 -231 z "},"♨":{"ha":1763,"x_min":156,"x_max":1607,"o":"m 857 -231 q 580 -200 707 -231 q 357 -113 452 -169 q 209 17 262 -58 q 156 178 156 92 q 198 331 156 257 q 313 452 240 405 l 370 452 q 343 384 349 408 q 336 330 336 359 q 402 149 336 225 q 590 32 468 73 q 882 -9 713 -9 q 1173 32 1051 -9 q 1361 149 1295 73 q 1427 330 1427 225 q 1421 384 1427 359 q 1393 452 1415 408 l 1451 452 q 1565 331 1523 405 q 1607 178 1607 257 q 1554 17 1607 92 q 1406 -113 1501 -58 q 1183 -200 1311 -169 q 907 -231 1056 -231 l 857 -231 m 428 246 q 446 345 440 298 q 452 432 452 391 q 435 552 452 492 q 400 673 418 612 q 382 800 382 735 q 563 1077 382 950 l 629 1077 q 610 979 616 1025 q 604 891 604 932 q 622 771 604 831 q 657 650 640 711 q 674 524 674 589 q 494 246 674 373 l 428 246 m 748 250 q 765 361 759 302 q 770 457 770 420 q 750 603 770 534 q 711 738 730 672 q 691 870 691 804 q 738 1031 691 957 q 889 1180 785 1105 l 958 1180 q 942 1069 947 1128 q 936 973 936 1010 q 956 827 936 897 q 995 692 975 758 q 1015 560 1015 626 q 968 399 1015 473 q 817 250 921 325 l 748 250 m 1106 246 q 1124 345 1118 298 q 1131 432 1131 391 q 1113 552 1131 492 q 1078 673 1096 612 q 1061 800 1061 735 q 1241 1077 1061 950 l 1307 1077 q 1289 979 1295 1025 q 1282 891 1282 932 q 1300 771 1282 831 q 1335 650 1317 711 q 1352 524 1352 589 q 1172 246 1352 373 l 1106 246 z "},"♻":{"ha":1763,"x_min":119,"x_max":1645,"o":"m 1149 -231 l 905 56 l 1149 341 l 1198 341 l 1198 229 l 1380 229 q 1493 246 1447 229 q 1565 294 1540 263 q 1590 368 1590 326 q 1575 420 1590 395 l 1454 631 l 1259 521 l 1432 215 l 1383 191 l 1184 542 l 1474 705 l 1624 446 q 1645 368 1645 410 q 1632 309 1645 342 q 1598 243 1620 276 l 1417 -22 q 1376 -70 1396 -53 q 1328 -92 1356 -86 q 1256 -98 1300 -98 l 1198 -98 l 1198 -231 l 1149 -231 m 495 -146 q 402 -117 441 -146 q 331 -24 362 -88 l 191 264 q 174 307 178 290 q 169 340 169 323 q 177 385 169 361 q 203 441 184 408 l 234 494 l 119 559 l 144 602 l 513 673 l 640 319 l 615 277 l 519 331 l 432 176 q 396 95 408 133 q 384 25 384 58 q 415 -57 384 -22 q 494 -92 447 -92 l 741 -92 l 741 134 l 382 134 l 388 188 l 795 188 l 795 -146 l 495 -146 m 334 12 q 346 106 334 56 q 386 205 357 156 l 499 405 l 625 334 l 587 309 l 477 610 l 161 550 l 155 601 l 308 514 l 251 415 q 229 370 235 388 q 223 336 223 352 q 228 313 223 326 q 241 282 233 300 l 374 14 l 334 12 m 1143 -204 l 1143 -44 l 1254 -44 q 1310 -41 1291 -44 q 1342 -28 1329 -39 q 1371 6 1354 -18 l 1534 245 l 1570 229 q 1479 190 1529 205 q 1376 175 1429 175 l 1143 175 l 1143 318 l 1185 302 l 975 56 l 1183 -189 l 1143 -204 m 704 670 l 404 817 l 534 1086 q 603 1157 558 1135 q 717 1180 647 1180 l 1037 1180 q 1098 1173 1074 1180 q 1144 1146 1123 1166 q 1192 1089 1166 1126 l 1224 1042 l 1333 1117 l 1360 1076 l 1262 713 l 888 753 l 861 794 l 954 857 l 849 1009 q 766 1097 810 1067 q 681 1126 723 1126 q 583 1063 614 1126 l 477 843 l 679 742 l 836 1065 l 882 1035 l 704 670 m 1222 772 l 1308 1085 l 1345 1059 l 1211 967 l 1149 1056 q 1115 1100 1130 1085 q 1083 1120 1100 1115 q 1037 1126 1065 1126 l 743 1126 l 740 1158 q 825 1114 787 1143 q 896 1036 863 1085 l 1029 843 l 909 762 l 900 807 l 1222 772 z "},"♾":{"ha":1763,"x_min":176,"x_max":1587,"o":"m 585 279 q 500 303 538 279 q 438 366 461 326 q 416 452 416 405 q 438 539 416 500 q 500 602 461 578 q 585 625 538 625 q 704 585 646 625 q 838 452 761 544 q 704 320 762 361 q 585 279 647 279 m 583 212 q 730 258 662 212 q 882 401 799 304 q 1033 258 964 304 q 1180 212 1102 212 q 1298 244 1245 212 q 1383 332 1352 277 q 1415 452 1415 387 q 1383 573 1415 519 q 1298 661 1352 628 q 1180 693 1245 693 q 1034 647 1102 693 q 882 503 966 601 q 730 647 798 601 q 583 693 662 693 q 465 661 519 693 q 380 573 412 628 q 348 452 348 519 q 380 332 348 387 q 465 244 412 277 q 583 212 519 212 m 1179 279 q 1059 320 1117 279 q 925 452 1002 361 q 1060 585 1002 544 q 1179 625 1117 625 q 1264 602 1225 625 q 1325 539 1302 578 q 1348 452 1348 500 q 1325 366 1348 405 q 1264 303 1302 326 q 1179 279 1225 279 m 289 -231 q 210 -198 243 -231 q 176 -119 176 -165 l 176 1068 q 210 1147 176 1114 q 288 1180 243 1180 l 1475 1180 q 1554 1147 1521 1180 q 1587 1068 1587 1114 l 1587 -119 q 1554 -197 1587 -164 q 1475 -231 1521 -231 l 289 -231 z "},"♿":{"ha":1763,"x_min":176,"x_max":1587,"o":"m 289 -231 q 210 -198 243 -231 q 176 -119 176 -165 l 176 1068 q 210 1147 176 1114 q 288 1180 243 1180 l 1475 1180 q 1554 1147 1521 1180 q 1587 1068 1587 1114 l 1587 -119 q 1554 -197 1587 -164 q 1475 -231 1521 -231 l 289 -231 m 760 -40 q 863 -23 814 -40 q 954 26 913 -6 l 876 104 q 760 68 823 68 q 654 97 703 68 q 578 174 606 125 q 549 280 549 222 q 585 395 549 341 l 507 473 q 458 382 475 431 q 441 280 441 332 q 484 119 441 192 q 600 3 527 46 q 760 -40 672 -40 m 996 63 q 1058 164 1036 109 q 1080 280 1080 220 q 1072 352 1080 316 q 1045 425 1063 389 l 1139 430 l 1118 172 q 1133 126 1116 144 q 1178 108 1149 108 q 1219 123 1202 108 q 1238 162 1236 138 l 1263 488 q 1249 536 1266 518 q 1201 553 1231 554 l 972 541 l 1093 677 q 1116 732 1116 704 q 1078 794 1116 772 l 798 958 q 768 966 785 966 q 728 949 747 966 l 587 823 q 567 779 567 806 q 584 737 567 755 q 625 720 601 720 q 666 734 649 720 l 775 831 l 869 777 l 710 595 q 544 515 614 579 l 621 438 q 760 491 681 491 q 866 463 819 491 q 943 386 914 434 q 971 280 971 338 q 918 140 971 200 l 996 63 m 1177 812 q 1249 842 1219 812 q 1279 913 1279 871 q 1249 985 1279 955 q 1177 1015 1219 1015 q 1106 985 1136 1015 q 1076 913 1076 955 q 1106 842 1076 871 q 1177 812 1136 812 z "},"⚒":{"ha":1763,"x_min":95,"x_max":1668,"o":"m 444 -231 q 380 -207 408 -231 l 305 -140 q 271 -68 271 -109 q 296 -3 271 -28 l 1072 772 l 1110 731 l 334 -41 q 325 -68 325 -50 q 340 -100 325 -87 l 416 -165 q 444 -176 428 -176 q 477 -161 463 -176 l 1192 649 l 1232 612 l 517 -196 q 444 -231 486 -231 m 724 379 l 490 642 l 528 679 l 763 416 l 724 379 m 1305 -231 q 1232 -196 1263 -231 l 856 231 l 891 271 l 1273 -161 q 1305 -176 1286 -176 q 1334 -165 1322 -176 l 1410 -100 q 1425 -68 1425 -87 q 1415 -41 1425 -50 l 989 385 l 1024 426 l 1453 -3 q 1479 -68 1479 -28 q 1444 -140 1479 -109 l 1369 -207 q 1305 -231 1342 -231 m 317 482 q 229 518 265 482 l 130 618 q 95 705 95 654 q 130 790 95 755 l 486 1145 q 571 1180 520 1180 q 657 1145 622 1180 l 757 1045 q 792 959 792 1010 q 757 873 792 909 l 401 518 q 317 482 363 482 m 317 536 q 363 557 342 536 l 718 912 q 738 959 738 932 q 718 1006 738 987 l 618 1106 q 571 1126 599 1126 q 524 1107 545 1126 l 168 751 q 149 705 149 732 q 168 656 149 675 l 268 557 q 317 536 288 536 m 252 902 q 245 905 248 902 q 233 939 233 919 q 236 960 233 948 q 256 987 239 972 l 297 1027 q 322 1046 309 1038 q 353 1054 335 1054 q 376 1047 368 1054 q 385 1031 385 1040 q 382 1015 385 1023 q 367 995 378 1006 l 289 920 q 268 905 277 908 q 252 902 259 902 m 859 516 l 612 764 l 648 800 l 897 553 l 859 516 m 1611 436 q 1554 465 1579 436 q 1493 551 1529 493 q 1428 639 1464 597 q 1355 709 1392 680 l 1261 611 q 1236 600 1249 600 q 1217 606 1227 600 q 1180 631 1206 612 q 1157 652 1173 637 q 1122 686 1141 667 q 1086 722 1103 705 q 1061 748 1069 739 q 1049 777 1049 760 q 1058 800 1049 789 l 1140 894 q 1072 934 1113 915 q 987 967 1031 953 q 904 988 943 982 l 906 1049 l 1105 1180 q 1220 1142 1157 1172 q 1346 1066 1283 1112 q 1461 964 1409 1020 q 1570 813 1523 896 q 1643 648 1617 730 q 1668 500 1668 566 q 1652 456 1668 475 q 1611 436 1636 436 m 1605 490 q 1617 496 1615 490 q 1620 512 1620 503 q 1598 627 1620 558 q 1531 774 1575 696 q 1419 929 1486 853 q 1314 1023 1375 981 q 1193 1094 1254 1065 q 1086 1131 1133 1122 l 1144 1139 l 970 1025 q 1059 997 1013 1015 q 1147 954 1105 978 q 1221 905 1190 930 l 1112 779 q 1168 716 1137 746 q 1234 661 1199 686 l 1349 781 q 1439 708 1386 758 q 1539 581 1493 659 q 1584 509 1571 528 q 1605 490 1597 490 z "},"⚓":{"ha":1763,"x_min":214,"x_max":1550,"o":"m 882 -231 q 652 -192 760 -231 q 458 -78 545 -153 q 313 102 371 -3 q 283 94 299 97 q 252 90 268 92 q 224 216 234 155 q 214 328 214 277 q 233 433 214 396 q 290 470 253 470 q 321 461 306 470 q 359 431 336 453 q 416 366 381 408 l 430 349 q 481 292 452 323 q 548 224 511 260 q 527 198 540 210 q 499 177 515 186 q 571 122 530 147 q 653 81 612 96 q 727 66 695 66 q 739 70 734 66 q 743 83 743 75 l 775 507 l 673 525 q 618 549 637 532 q 598 596 598 566 q 618 645 598 627 q 673 668 638 663 l 790 686 l 799 807 q 712 877 747 829 q 678 983 678 924 q 706 1083 678 1038 q 780 1154 733 1128 q 882 1180 826 1180 q 984 1154 938 1180 q 1058 1083 1030 1128 q 1085 983 1085 1038 q 1051 877 1085 924 q 964 807 1017 829 l 973 686 l 1090 668 q 1145 645 1126 663 q 1165 596 1165 627 q 1146 549 1165 566 q 1090 525 1126 532 l 988 507 l 1020 83 q 1025 70 1021 75 q 1036 66 1029 66 q 1110 81 1068 66 q 1193 122 1152 96 q 1264 177 1234 147 q 1236 198 1249 186 q 1215 224 1223 210 q 1282 292 1253 260 q 1333 349 1312 323 l 1347 366 q 1405 431 1383 408 q 1442 461 1427 453 q 1474 470 1458 470 q 1530 433 1510 470 q 1550 328 1550 396 q 1539 216 1550 277 q 1511 90 1529 155 q 1480 94 1496 92 q 1451 102 1464 97 q 1305 -78 1392 -3 q 1111 -192 1219 -153 q 882 -231 1003 -231 m 882 -176 q 1201 -87 1059 -176 q 1423 165 1343 3 q 1450 157 1437 160 q 1473 153 1463 154 q 1484 205 1478 172 q 1493 274 1489 239 q 1497 332 1497 309 q 1490 393 1497 370 q 1473 416 1484 416 q 1458 408 1468 416 q 1431 381 1448 399 q 1388 331 1415 363 l 1375 315 q 1338 274 1360 296 q 1291 225 1316 251 q 1315 209 1303 215 q 1343 193 1326 202 q 1293 129 1327 161 q 1213 71 1258 97 q 1122 28 1168 44 q 1036 12 1076 12 q 967 66 971 12 l 930 551 l 1081 578 q 1106 585 1101 581 q 1111 596 1111 589 q 1105 607 1111 603 q 1082 614 1100 611 l 922 639 l 907 840 q 998 889 962 849 q 1034 983 1034 928 q 1014 1059 1034 1025 q 959 1113 994 1093 q 882 1133 925 1133 q 804 1113 839 1133 q 749 1059 770 1093 q 729 983 729 1025 q 765 889 729 928 q 856 840 802 849 l 841 639 l 682 614 q 658 607 663 611 q 652 596 652 603 q 658 585 652 589 q 682 578 663 581 l 833 551 l 796 66 q 727 12 792 12 q 641 28 688 12 q 550 71 595 44 q 471 129 505 97 q 420 193 436 161 q 449 209 438 202 q 472 225 460 215 q 426 274 447 251 q 389 315 404 296 l 375 331 q 332 381 349 363 q 306 408 315 399 q 290 416 296 416 q 273 393 279 416 q 267 332 267 370 q 270 274 267 309 q 279 205 274 239 q 290 153 285 172 q 313 157 300 154 q 340 165 326 160 q 562 -87 420 3 q 882 -176 704 -176 m 882 891 q 817 919 844 891 q 789 983 789 946 q 817 1048 789 1021 q 882 1076 844 1076 q 947 1048 920 1076 q 974 983 974 1021 q 947 919 974 946 q 882 891 920 891 m 882 932 q 918 947 903 932 q 933 983 933 962 q 918 1020 933 1004 q 882 1035 903 1035 q 845 1020 861 1035 q 830 983 830 1004 q 845 947 830 962 q 882 932 861 932 z "},"⚔":{"ha":1763,"x_min":156,"x_max":1607,"o":"m 660 69 l 622 108 l 1372 858 q 1503 1129 1475 961 l 1512 1120 q 1241 989 1343 1090 l 492 238 l 454 276 l 1202 1027 q 1361 1132 1268 1093 q 1563 1180 1455 1171 q 1516 978 1555 1071 q 1410 819 1476 886 l 660 69 m 308 -231 q 212 -175 267 -231 q 156 -79 156 -118 q 174 -34 156 -52 q 218 -19 191 -17 l 254 -22 l 256 -68 l 224 -64 q 211 -67 216 -63 q 205 -78 205 -71 q 216 -101 205 -87 q 249 -138 227 -116 q 284 -169 269 -159 q 307 -179 298 -179 q 322 -161 324 -179 l 319 -131 l 365 -134 l 369 -168 q 354 -213 372 -195 q 308 -231 336 -231 m 357 -89 l 381 -68 q 351 -48 366 -62 q 326 -22 335 -34 q 319 -17 322 -17 q 309 -22 314 -17 q 304 -33 304 -28 q 309 -47 304 -39 q 330 -72 317 -60 q 357 -89 342 -83 m 410 -43 l 435 -24 q 405 -1 420 -17 q 382 28 389 16 q 372 34 378 34 q 362 28 366 34 q 359 17 359 22 q 363 2 359 9 q 410 -43 381 -24 m 347 -153 q 314 -142 332 -153 q 277 -112 296 -131 q 247 -73 258 -92 q 235 -38 235 -53 q 242 -19 235 -28 l 400 163 l 550 13 l 368 -145 q 347 -153 359 -153 m 462 3 l 488 22 q 451 50 470 32 q 425 81 431 68 q 416 86 422 86 q 402 68 402 86 q 406 55 402 62 q 428 31 410 45 q 462 3 445 16 m 728 -121 q 681 -103 704 -121 q 588 -27 640 -71 q 470 85 536 17 q 358 206 402 156 q 281 297 313 256 q 264 344 264 320 q 280 381 264 367 q 317 396 296 396 q 363 380 340 396 q 418 338 390 361 q 484 281 447 315 q 575 191 522 246 q 664 99 629 136 q 722 34 699 62 q 764 -20 745 6 q 781 -67 781 -44 q 766 -104 781 -88 q 728 -121 751 -121 m 726 -76 q 735 -66 735 -76 q 728 -48 735 -58 q 687 5 709 -23 q 631 70 665 33 q 543 159 597 106 q 452 246 490 212 q 388 302 415 279 q 336 343 360 324 q 317 351 326 351 q 309 342 309 351 q 317 325 309 335 q 391 238 348 287 q 502 117 433 189 q 620 4 570 47 q 709 -67 670 -38 q 726 -76 720 -76 m 1103 69 l 859 313 l 897 352 l 1141 108 l 1103 69 m 1354 -43 q 1400 2 1382 -24 q 1404 17 1404 9 q 1400 28 1404 22 q 1391 34 1396 34 q 1381 28 1385 34 q 1359 -1 1374 15 q 1329 -24 1344 -17 l 1354 -43 m 1301 3 q 1335 30 1318 14 q 1358 55 1353 45 q 1361 68 1361 62 q 1357 81 1361 76 q 1347 86 1352 86 q 1338 81 1342 86 q 1311 51 1329 70 q 1276 22 1293 32 l 1301 3 m 1407 -89 q 1434 -72 1421 -83 q 1454 -47 1447 -60 q 1459 -33 1459 -39 q 1454 -23 1459 -28 q 1444 -17 1450 -17 q 1438 -22 1440 -17 q 1414 -48 1431 -35 q 1382 -68 1397 -62 l 1407 -89 m 1455 -231 q 1410 -213 1428 -231 q 1394 -168 1392 -195 l 1398 -134 l 1444 -131 l 1441 -161 q 1456 -179 1439 -179 q 1479 -169 1465 -179 q 1514 -138 1494 -159 q 1547 -101 1536 -116 q 1558 -78 1558 -87 q 1552 -67 1558 -71 q 1539 -64 1547 -63 l 1508 -68 l 1510 -22 l 1545 -19 q 1590 -34 1572 -17 q 1607 -79 1607 -52 q 1551 -175 1607 -118 q 1455 -231 1496 -231 m 1416 -153 q 1396 -145 1404 -153 l 1213 13 l 1363 163 l 1521 -19 q 1529 -38 1529 -28 q 1517 -73 1529 -53 q 1486 -112 1506 -92 q 1449 -142 1467 -131 q 1416 -153 1432 -153 m 1036 -121 q 998 -104 1013 -121 q 983 -67 983 -88 q 1000 -20 983 -44 q 1042 34 1019 6 q 1100 99 1065 62 q 1188 191 1135 136 q 1279 281 1242 246 q 1345 338 1316 315 q 1400 380 1373 361 q 1447 396 1423 396 q 1483 381 1467 396 q 1499 344 1499 367 q 1482 297 1499 320 q 1406 206 1451 256 q 1293 85 1362 156 q 1176 -28 1227 17 q 1082 -103 1126 -73 q 1036 -121 1057 -121 m 1037 -76 q 1055 -67 1043 -76 q 1144 4 1094 -38 q 1262 117 1194 46 q 1372 239 1331 189 q 1446 325 1413 289 q 1455 342 1455 334 q 1446 351 1455 351 q 1428 343 1439 351 q 1375 302 1402 325 q 1311 247 1348 280 q 1220 159 1274 213 q 1133 69 1167 106 q 1077 4 1099 32 q 1036 -48 1055 -23 q 1028 -66 1028 -59 q 1037 -76 1028 -76 m 688 484 l 353 819 q 248 978 288 886 q 200 1180 208 1071 q 402 1132 309 1171 q 561 1027 495 1093 l 899 687 l 861 650 l 522 989 q 251 1120 420 1090 l 260 1129 q 391 858 288 961 l 728 522 l 688 484 m 1192 163 l 950 406 l 979 435 l 1221 193 l 1192 163 m 782 574 l 233 1123 l 262 1152 l 811 602 l 782 574 m 1272 238 l 1027 483 l 1065 522 l 1310 276 l 1272 238 m 571 163 l 543 193 l 1501 1152 l 1531 1123 l 571 163 z "},"⚕":{"ha":1763,"x_min":356,"x_max":1407,"o":"m 1236 -209 q 1144 -159 1198 -180 q 1021 -129 1089 -138 l 820 -101 q 633 -51 688 -83 q 578 40 578 -19 q 628 140 578 104 q 768 176 677 176 l 1088 176 q 1168 184 1146 176 q 1191 212 1191 193 q 1179 231 1191 224 q 1136 245 1168 239 q 1043 258 1105 252 l 737 294 q 605 320 665 303 q 510 372 545 337 q 475 467 475 407 q 539 575 475 540 q 734 610 603 610 l 1122 610 q 1225 622 1195 610 q 1256 660 1256 633 q 1227 694 1256 684 q 1124 704 1199 704 l 787 704 q 463 753 570 704 q 356 902 356 802 q 417 1033 356 982 q 574 1084 479 1084 q 667 1072 629 1084 q 725 1038 705 1059 q 745 992 745 1017 q 709 961 745 961 l 671 961 q 652 945 652 961 q 671 929 652 929 l 696 929 q 631 903 694 903 q 550 908 588 903 q 490 921 513 912 q 515 869 490 890 q 605 840 541 849 q 786 830 669 830 l 1130 830 q 1407 660 1407 830 q 1334 531 1407 575 q 1117 488 1261 488 l 732 488 q 663 481 684 488 q 643 461 643 475 q 666 438 643 446 q 755 422 689 430 l 1057 385 q 1279 328 1212 366 q 1345 220 1345 290 q 1285 103 1345 140 q 1095 67 1225 66 l 764 69 q 721 40 721 69 q 743 11 721 22 q 820 -7 764 0 l 1029 -37 q 1186 -92 1139 -52 q 1236 -209 1234 -132 m 916 -231 l 916 984 l 970 984 l 970 -231 l 916 -231 m 608 986 q 629 1007 629 986 q 608 1029 629 1029 q 587 1007 587 1029 q 608 986 587 986 m 944 943 q 860 978 895 943 q 825 1062 825 1013 q 860 1145 825 1111 q 944 1180 895 1180 q 1027 1145 993 1180 q 1062 1062 1062 1111 q 1028 978 1062 1013 q 944 943 994 943 z "},"⚖":{"ha":1763,"x_min":129,"x_max":1634,"o":"m 1383 -5 q 1254 15 1311 -5 q 1164 72 1197 35 q 1131 161 1131 110 q 1135 194 1131 176 q 1144 230 1139 212 l 1316 827 l 1365 812 l 1193 211 q 1276 231 1227 227 q 1383 235 1325 235 q 1490 231 1441 235 q 1573 211 1539 227 l 1400 812 l 1450 827 l 1622 230 q 1631 194 1627 212 q 1634 161 1634 176 q 1601 72 1634 110 q 1512 15 1569 35 q 1383 -5 1455 -5 m 380 49 q 508 73 463 49 q 559 139 553 96 l 201 139 q 253 73 208 96 q 380 49 298 49 m 380 -5 q 252 15 309 -5 q 162 72 195 35 q 129 161 129 110 q 133 194 129 176 q 142 230 137 212 l 313 827 l 363 812 l 191 211 q 274 231 224 227 q 380 235 323 235 q 488 231 439 235 q 570 211 537 227 l 398 812 l 448 827 l 619 230 q 628 194 625 212 q 632 161 632 176 q 599 72 632 110 q 509 15 566 35 q 380 -5 452 -5 m 882 -231 q 684 -223 756 -231 q 581 -195 611 -215 q 550 -138 550 -174 q 578 -72 550 -96 q 671 -24 607 -47 q 733 5 718 -7 q 748 43 749 18 l 746 78 q 761 160 743 126 q 817 214 779 194 l 847 167 q 800 77 796 142 l 802 41 q 790 -9 804 11 q 749 -44 775 -30 q 691 -68 724 -58 q 629 -95 654 -81 q 604 -131 604 -110 q 614 -150 604 -141 q 653 -164 625 -158 q 737 -173 682 -170 q 882 -176 792 -176 q 1026 -173 971 -176 q 1110 -164 1081 -170 q 1149 -150 1139 -158 q 1159 -131 1159 -141 q 1134 -96 1159 -110 q 1072 -68 1109 -81 q 1015 -43 1040 -57 q 974 -9 989 -30 q 961 41 960 11 l 963 77 q 916 167 967 142 l 947 214 q 1017 78 1022 173 l 1015 43 q 1030 5 1014 18 q 1093 -24 1046 -7 q 1185 -72 1156 -47 q 1213 -138 1213 -96 q 1183 -195 1213 -174 q 1080 -223 1152 -215 q 882 -231 1007 -231 m 353 201 l 353 819 l 408 819 l 408 201 l 353 201 m 380 795 q 300 829 334 795 q 267 908 267 862 q 300 988 267 956 q 380 1021 333 1021 q 460 988 427 1021 q 494 908 494 955 q 460 829 494 862 q 380 795 427 795 m 380 850 q 422 867 404 850 q 439 908 439 885 q 422 949 439 932 q 380 967 404 967 q 339 949 356 967 q 321 908 321 932 q 339 867 321 885 q 380 850 356 850 m 882 130 q 800 156 838 130 l 800 790 l 854 764 l 854 197 q 882 191 871 191 q 909 197 892 191 l 909 764 l 964 790 l 964 156 q 882 130 926 130 m 540 760 q 385 817 450 760 l 451 836 q 492 820 470 825 q 540 814 515 814 q 604 822 570 814 q 681 846 638 830 l 692 850 q 734 864 711 858 q 781 874 757 869 l 772 817 q 739 810 754 814 q 711 800 724 806 l 701 796 q 627 771 670 783 q 540 760 585 760 m 1383 49 q 1511 73 1466 49 q 1562 139 1556 96 l 1204 139 q 1255 73 1210 96 q 1383 49 1301 49 m 542 867 q 459 889 498 867 l 480 941 q 542 921 506 921 q 652 949 582 921 l 663 953 q 726 972 692 964 q 798 985 760 981 l 787 929 q 683 903 730 921 l 673 899 q 605 876 638 885 q 542 867 572 867 m 882 741 q 783 775 822 741 q 744 863 744 810 q 767 965 744 909 q 825 1055 791 1021 l 865 1023 q 836 979 852 1008 q 809 917 821 949 q 798 863 798 885 q 821 814 798 833 q 882 795 844 795 q 942 814 919 795 q 965 863 965 833 q 954 917 965 885 q 927 979 943 949 q 898 1023 911 1008 l 939 1055 q 996 965 972 1021 q 1019 863 1019 909 q 980 775 1019 810 q 882 741 941 741 m 1356 201 l 1356 819 l 1410 819 l 1410 201 l 1356 201 m 882 999 q 818 1025 844 999 q 791 1089 791 1052 q 818 1154 791 1127 q 882 1180 844 1180 q 946 1154 920 1180 q 972 1089 972 1127 q 946 1025 972 1052 q 882 999 920 999 m 882 1053 q 908 1064 897 1053 q 918 1089 918 1074 q 908 1115 918 1105 q 882 1126 897 1126 q 856 1115 867 1126 q 845 1089 845 1105 q 856 1064 845 1074 q 882 1053 867 1053 m 1223 760 q 1136 771 1179 760 q 1062 796 1094 783 l 1053 800 q 1024 810 1039 806 q 991 817 1009 814 l 983 874 q 1029 864 1006 869 q 1072 850 1052 858 l 1082 846 q 1159 822 1125 830 q 1223 814 1194 814 q 1271 820 1249 814 q 1312 836 1293 825 l 1378 817 q 1223 760 1314 760 m 1221 867 q 1158 876 1192 867 q 1090 899 1125 885 l 1080 903 q 976 929 1033 921 l 965 985 q 1101 953 1042 977 l 1111 949 q 1221 921 1181 921 q 1283 941 1257 921 l 1304 889 q 1221 867 1265 867 m 1383 795 q 1303 829 1336 795 q 1270 908 1270 862 q 1303 988 1270 955 q 1383 1021 1336 1021 q 1463 988 1430 1021 q 1496 908 1496 956 q 1463 829 1496 862 q 1383 795 1430 795 m 1383 850 q 1424 867 1407 850 q 1442 908 1442 885 q 1424 949 1442 932 q 1383 967 1407 967 q 1341 949 1359 967 q 1324 908 1324 932 q 1342 867 1324 885 q 1383 850 1360 850 z "},"⚗":{"ha":1763,"x_min":161,"x_max":1597,"o":"m 245 -231 q 198 -215 218 -231 q 170 -175 178 -199 q 171 -126 161 -151 l 383 435 l 400 409 q 226 464 286 429 q 166 544 166 498 q 184 589 166 572 q 230 606 201 606 q 267 599 250 606 q 373 570 301 585 q 537 544 444 555 q 730 534 631 534 q 924 544 831 534 q 1088 570 1017 555 q 1194 599 1160 585 q 1231 606 1211 606 q 1277 589 1259 606 q 1295 544 1295 572 q 1233 461 1295 496 q 1062 410 1171 427 l 1078 435 l 1290 -126 q 1291 -175 1299 -151 q 1263 -215 1283 -199 q 1215 -231 1243 -231 q 1173 -218 1192 -231 q 1144 -185 1154 -206 l 899 381 l 562 381 l 317 -185 q 289 -218 308 -206 q 245 -231 269 -231 m 369 312 q 263 462 303 377 l 330 452 q 403 358 361 398 l 369 312 m 720 -152 q 666 -131 688 -152 q 641 -78 643 -109 l 625 190 l 680 174 l 695 -75 q 703 -91 696 -84 q 720 -98 710 -98 q 736 -91 730 -98 q 744 -75 743 -85 l 759 174 l 814 189 l 798 -78 q 774 -131 796 -109 q 720 -152 751 -152 m 245 -176 q 267 -163 262 -176 l 519 435 q 619 428 568 431 q 730 425 671 425 q 842 428 790 425 q 941 435 894 431 l 1194 -163 q 1215 -176 1199 -176 q 1238 -165 1229 -176 q 1243 -142 1248 -155 l 1019 444 q 1191 487 1128 460 q 1254 544 1254 513 q 1231 566 1254 566 q 1214 562 1223 566 q 1101 532 1175 548 q 930 504 1026 515 q 730 493 834 493 q 531 504 627 493 q 360 532 435 515 q 247 562 286 548 q 230 566 238 566 q 207 544 207 566 q 270 487 207 513 q 441 444 333 460 l 218 -142 q 222 -165 213 -155 q 245 -176 232 -176 m 724 167 q 600 182 661 167 q 484 227 539 198 l 471 290 q 601 238 540 254 q 724 221 663 221 q 838 235 781 221 q 956 281 895 250 l 975 233 q 853 184 918 201 q 724 167 789 167 m 732 289 q 621 304 669 289 q 524 347 573 319 l 558 409 l 907 409 l 941 347 q 844 304 892 319 q 732 289 796 289 m 723 519 l 375 545 q 362 595 368 567 q 355 650 357 623 q 429 629 377 638 q 557 615 481 620 q 723 610 632 610 q 889 615 814 610 q 1017 629 964 620 q 1090 650 1069 638 q 1084 595 1090 623 q 1071 545 1078 567 l 723 519 m 724 678 q 543 685 627 678 q 407 701 458 691 q 355 722 355 711 q 406 742 355 732 q 542 758 458 751 q 724 764 626 764 q 905 758 821 764 q 1040 742 989 751 q 1092 722 1092 732 q 1040 701 1092 711 q 904 685 988 691 q 724 678 821 678 m 1093 327 l 1065 380 q 1093 414 1081 397 q 1115 448 1105 431 l 1177 448 q 1093 327 1144 382 m 1165 581 q 1175 673 1175 627 q 1175 713 1175 697 q 1173 738 1175 728 l 1477 665 q 1513 677 1497 660 q 1537 728 1529 695 q 1544 775 1544 754 q 1525 821 1544 812 l 1181 989 q 1038 1054 1113 1023 q 885 1105 964 1085 q 724 1126 806 1126 q 548 1090 630 1126 q 404 993 466 1055 q 307 849 342 931 q 271 673 271 767 q 274 628 271 650 q 281 582 276 605 l 224 589 q 219 630 221 609 q 217 673 217 652 q 256 870 217 779 q 365 1032 296 962 q 527 1141 435 1101 q 724 1180 618 1180 q 896 1159 812 1180 q 1059 1105 981 1137 q 1205 1038 1137 1072 l 1555 866 q 1586 832 1575 856 q 1597 774 1597 808 q 1589 713 1597 744 q 1543 632 1575 662 q 1476 610 1510 602 l 1209 673 l 1230 686 q 1228 633 1230 660 q 1221 581 1226 607 l 1165 581 z "},"⚙":{"ha":1763,"x_min":176,"x_max":1588,"o":"m 761 -231 l 738 0 q 694 15 717 6 q 647 37 671 24 l 468 -109 l 297 62 l 443 241 q 407 332 419 288 l 176 355 l 176 595 l 408 618 q 444 707 420 666 l 297 888 l 468 1059 l 648 913 q 738 950 686 935 l 761 1180 l 1003 1180 l 1026 950 q 1116 913 1076 936 l 1295 1059 l 1467 888 l 1320 707 q 1356 618 1343 667 l 1588 595 l 1588 355 l 1357 332 q 1321 241 1343 288 l 1467 62 l 1295 -109 l 1116 37 q 1070 15 1093 24 q 1026 0 1048 6 l 1003 -231 l 761 -231 m 810 -176 l 954 -176 l 976 43 q 1121 104 1054 60 l 1293 -36 l 1394 64 l 1254 236 q 1313 381 1299 311 l 1533 404 l 1533 547 l 1314 568 q 1290 645 1305 609 q 1253 712 1274 681 l 1394 885 l 1293 985 l 1121 846 q 976 906 1050 892 l 954 1126 l 810 1126 l 787 906 q 642 846 713 892 l 471 985 l 370 885 l 511 712 q 474 645 490 681 q 450 568 459 609 l 231 547 l 231 404 l 451 381 q 509 236 464 311 l 370 64 l 471 -36 l 642 104 q 787 43 709 60 l 810 -176 m 882 285 q 786 310 829 285 q 718 379 743 336 q 692 474 692 422 q 718 570 692 527 q 786 638 743 613 q 882 664 829 664 q 978 638 935 664 q 1046 570 1021 613 q 1072 474 1072 527 q 1046 379 1072 422 q 978 310 1021 336 q 882 285 935 285 m 882 336 q 980 376 940 336 q 1021 474 1021 416 q 980 573 1021 532 q 882 613 940 613 q 784 573 824 613 q 743 474 743 532 q 784 376 743 416 q 882 336 824 336 m 882 184 q 1027 224 962 184 q 1132 329 1093 263 q 1171 474 1171 395 q 1132 620 1171 554 q 1027 724 1093 685 q 882 764 962 764 q 736 724 802 764 q 631 620 671 685 q 592 474 592 554 q 631 329 592 395 q 736 224 671 263 q 882 184 802 184 m 882 137 q 712 182 789 137 q 590 304 635 228 q 545 474 545 381 q 590 644 545 567 q 712 766 635 720 q 882 811 789 811 q 1051 766 975 811 q 1173 644 1128 720 q 1219 474 1219 568 q 1173 304 1219 381 q 1052 182 1128 228 q 882 137 975 137 z "},"⚛":{"ha":1763,"x_min":176,"x_max":1587,"o":"m 289 -231 q 210 -198 243 -231 q 176 -119 176 -165 l 176 1068 q 210 1147 176 1114 q 288 1180 243 1180 l 1475 1180 q 1554 1147 1521 1180 q 1587 1068 1587 1114 l 1587 -119 q 1554 -197 1587 -164 q 1475 -231 1521 -231 l 289 -231 m 564 174 q 460 212 484 174 q 451 248 451 228 q 478 332 451 284 q 554 434 505 380 q 602 391 576 413 q 658 347 627 370 q 668 265 662 304 q 683 192 675 226 q 564 174 617 174 m 882 -20 q 810 25 844 -20 q 750 155 776 71 q 815 179 782 165 q 882 209 848 193 q 949 179 916 193 q 1013 155 982 165 q 953 25 987 71 q 882 -20 919 -20 m 734 208 q 725 256 729 231 q 718 303 721 280 q 737 291 727 297 q 757 277 747 284 q 788 258 772 267 q 820 241 804 250 q 778 223 800 232 q 734 208 757 215 m 653 420 q 621 447 636 434 q 593 473 606 460 q 622 500 606 487 q 653 526 637 513 q 652 501 652 513 q 652 476 652 488 q 652 448 652 462 q 653 420 652 434 m 554 512 q 478 615 505 566 q 451 699 451 663 q 460 736 451 722 q 562 775 486 775 q 682 756 610 775 q 667 681 673 721 q 657 600 661 642 q 604 557 629 578 q 554 512 578 535 m 1029 208 q 985 223 1006 215 q 943 241 964 232 q 975 258 959 250 q 1006 277 991 267 q 1027 291 1017 284 q 1046 303 1037 297 q 1039 256 1043 280 q 1029 208 1034 231 m 882 -75 q 986 -19 939 -75 q 1066 139 1034 36 q 1137 124 1103 130 q 1198 119 1170 119 q 1290 136 1253 119 q 1348 184 1328 153 q 1367 248 1367 212 q 1336 353 1367 295 q 1247 473 1305 411 q 1336 594 1305 536 q 1367 701 1367 653 q 1349 765 1367 736 q 1292 812 1330 796 q 1202 829 1255 829 q 1136 824 1171 829 q 1066 808 1102 819 q 987 968 1035 911 q 882 1024 939 1024 q 777 968 825 1024 q 697 808 729 911 q 627 824 662 819 q 562 829 593 829 q 471 812 509 829 q 414 765 434 796 q 397 701 397 736 q 428 594 397 653 q 516 473 458 536 q 428 353 458 411 q 397 248 397 295 q 415 184 397 212 q 473 136 435 153 q 565 119 511 119 q 627 124 593 119 q 697 139 660 130 q 777 -19 729 36 q 882 -75 825 -75 m 882 270 q 834 296 859 282 q 785 324 809 309 q 747 349 766 336 q 710 375 728 362 q 707 425 708 399 q 706 476 706 450 q 707 524 706 500 q 709 571 708 548 q 750 600 730 586 q 789 625 770 613 q 833 651 810 638 q 882 677 857 665 q 930 651 907 665 q 975 625 953 638 q 1013 600 994 613 q 1054 571 1033 586 q 1056 524 1055 548 q 1057 476 1057 500 q 1056 425 1057 450 q 1053 375 1055 399 q 1017 349 1036 362 q 978 324 998 336 q 930 296 954 309 q 882 270 905 282 m 882 406 q 931 426 911 406 q 951 475 951 446 q 931 525 951 505 q 882 545 911 545 q 832 525 852 545 q 812 475 812 505 q 832 426 812 446 q 882 406 852 406 m 718 643 q 725 693 721 669 q 734 741 730 718 q 775 726 754 734 q 820 706 797 717 q 790 690 805 699 q 760 671 775 681 q 739 657 749 665 q 718 643 728 650 m 1200 174 q 1080 192 1147 174 q 1095 265 1088 226 q 1105 347 1101 304 q 1162 391 1136 370 q 1209 434 1187 413 q 1285 332 1259 380 q 1312 248 1312 284 q 1303 212 1312 228 q 1200 174 1280 174 m 1110 420 q 1111 448 1111 434 q 1112 476 1112 462 q 1111 501 1112 488 q 1110 526 1111 513 q 1142 500 1126 513 q 1171 473 1157 487 q 1142 447 1157 460 q 1110 420 1127 434 m 1046 643 q 1025 657 1036 650 q 1003 671 1014 665 q 974 690 988 681 q 943 706 959 699 q 988 726 966 717 q 1029 741 1009 734 q 1039 693 1034 718 q 1046 643 1043 669 m 882 739 q 815 769 848 755 q 749 793 781 783 q 810 924 775 878 q 882 970 844 970 q 954 924 919 970 q 1015 793 988 878 q 949 769 982 783 q 882 739 916 755 m 1209 512 q 1160 557 1186 535 q 1106 600 1134 578 q 1096 681 1102 642 q 1081 756 1090 721 q 1202 775 1153 775 q 1303 736 1279 775 q 1312 699 1312 722 q 1286 615 1312 663 q 1209 512 1259 566 z "},"⚜":{"ha":1763,"x_min":217,"x_max":1546,"o":"m 400 202 q 303 225 345 202 q 240 291 262 248 q 217 391 217 333 q 251 528 217 468 q 343 621 284 587 q 476 655 401 655 q 599 628 539 655 q 706 548 659 600 l 690 528 q 649 629 661 582 q 637 736 637 676 q 664 881 637 808 q 746 1030 692 955 q 882 1180 801 1105 q 1017 1030 962 1105 q 1099 881 1072 955 q 1126 736 1126 808 q 1115 629 1126 676 q 1074 528 1103 582 l 1057 548 q 1165 628 1105 600 q 1287 655 1224 655 q 1421 621 1362 655 q 1513 528 1479 587 q 1546 391 1546 468 q 1524 291 1546 333 q 1460 225 1501 248 q 1363 202 1419 202 q 1306 208 1331 202 q 1330 255 1322 230 q 1337 306 1337 280 q 1312 383 1337 354 q 1244 412 1286 412 q 1167 386 1200 412 q 1120 309 1135 359 l 1072 317 q 1136 422 1089 383 q 1244 461 1183 461 q 1348 417 1307 461 q 1388 304 1388 372 q 1384 269 1388 288 q 1363 223 1379 250 l 1356 252 q 1362 251 1358 252 q 1369 250 1365 250 q 1434 267 1407 250 q 1477 315 1461 283 q 1492 391 1492 347 q 1465 503 1492 454 q 1392 578 1438 551 q 1284 606 1345 606 q 1126 552 1200 606 q 1008 408 1051 498 l 1008 321 l 956 321 l 956 431 q 1030 544 1004 496 q 1066 636 1057 591 q 1076 736 1076 682 q 1054 857 1076 795 q 988 982 1031 919 q 882 1106 945 1044 q 775 982 819 1044 q 710 857 732 919 q 688 736 688 795 q 697 636 688 682 q 733 544 707 591 q 808 431 759 496 l 808 321 l 755 321 l 755 408 q 637 552 712 498 q 479 606 563 606 q 372 578 419 606 q 298 503 325 551 q 271 391 271 454 q 287 315 271 347 q 329 267 302 283 q 394 250 357 250 q 401 251 398 250 q 408 252 405 252 l 400 223 q 379 269 384 250 q 375 304 375 288 q 416 417 375 372 q 519 461 457 461 q 627 422 580 461 q 692 317 675 383 l 643 309 q 596 386 629 359 q 519 412 564 412 q 451 383 477 412 q 426 306 426 354 q 434 255 426 280 q 457 208 441 230 q 400 202 432 202 m 882 -231 q 778 -112 810 -182 q 746 43 746 -43 q 750 84 746 60 q 760 129 753 108 l 771 65 q 706 -14 748 14 q 608 -41 663 -41 q 498 -4 541 -41 q 455 92 455 34 q 469 149 455 122 q 513 198 483 175 q 547 158 531 170 q 585 146 563 146 q 632 168 616 146 q 647 235 647 190 l 696 233 q 668 133 696 168 q 587 97 639 97 q 538 108 560 97 q 503 140 516 119 l 524 140 q 510 117 514 130 q 506 92 506 105 q 534 31 506 55 q 608 7 562 7 q 724 69 680 7 q 767 236 767 131 l 842 236 q 808 132 819 179 q 797 46 797 85 q 820 -78 797 -21 q 882 -168 842 -134 q 944 -78 922 -134 q 966 46 966 -21 q 955 132 966 85 q 922 236 944 179 l 996 236 q 1040 69 996 131 q 1156 7 1083 7 q 1229 31 1201 7 q 1257 92 1257 55 q 1253 117 1257 105 q 1240 140 1249 130 l 1261 140 q 1225 108 1247 119 q 1177 97 1203 97 q 1096 133 1125 97 q 1067 233 1067 168 l 1116 235 q 1132 168 1116 190 q 1178 146 1147 146 q 1216 158 1200 146 q 1250 198 1232 170 q 1294 149 1280 175 q 1308 92 1308 122 q 1265 -4 1308 34 q 1156 -41 1222 -41 q 1058 -14 1100 -41 q 992 65 1015 14 l 1003 129 q 1014 84 1010 108 q 1017 43 1017 60 q 985 -112 1017 -43 q 882 -231 953 -182 m 592 205 q 539 226 561 205 q 517 279 517 248 q 539 332 517 311 q 592 353 561 353 l 1171 353 q 1224 332 1203 353 q 1246 279 1246 311 q 1224 226 1246 248 q 1171 205 1203 205 l 592 205 m 592 252 l 1171 252 q 1191 260 1183 252 q 1198 279 1198 267 q 1191 298 1198 290 q 1171 305 1183 305 l 592 305 q 572 298 580 305 q 565 279 565 290 q 572 260 565 267 q 592 252 580 252 z "},"⚠":{"ha":1763,"x_min":183,"x_max":1580,"o":"m 298 -231 q 216 -198 248 -231 q 183 -116 183 -165 q 200 -47 183 -83 l 769 1102 q 882 1180 808 1180 q 994 1102 956 1180 l 1563 -47 q 1580 -116 1580 -83 q 1548 -198 1580 -165 q 1466 -231 1516 -231 l 298 -231 m 882 -32 q 840 -15 857 -32 q 823 28 823 3 q 840 70 823 53 q 882 87 857 87 q 924 70 907 87 q 941 28 941 53 q 923 -15 941 3 q 882 -32 906 -32 m 298 -176 l 1466 -176 q 1510 -160 1493 -176 q 1526 -117 1526 -144 q 1514 -72 1526 -94 l 945 1078 q 882 1126 922 1126 q 818 1078 842 1126 l 249 -71 q 237 -117 237 -94 q 254 -160 237 -144 q 298 -176 271 -176 m 882 153 q 859 162 868 153 q 848 183 849 170 l 806 702 q 824 771 802 744 q 882 798 846 798 q 940 770 918 798 q 958 702 961 743 l 916 183 q 905 162 915 170 q 882 153 895 153 z "},"⚡":{"ha":1763,"x_min":319,"x_max":1444,"o":"m 519 -231 q 487 -217 500 -231 q 473 -184 473 -204 q 479 -159 473 -174 q 505 -113 486 -144 l 778 334 l 370 334 q 334 348 349 334 q 319 382 319 361 q 340 426 319 410 l 1248 1160 q 1269 1175 1259 1169 q 1289 1180 1279 1180 q 1331 1157 1316 1180 q 1329 1106 1345 1134 l 1030 619 l 1393 619 q 1430 606 1415 619 q 1444 570 1444 592 q 1424 527 1444 544 l 578 -198 q 544 -223 557 -216 q 519 -231 531 -231 m 543 -162 l 1385 560 q 1387 563 1387 562 q 1383 565 1386 565 l 938 565 l 1267 1104 q 1267 1108 1269 1107 q 1263 1107 1266 1109 l 378 392 q 377 389 376 391 q 379 388 377 388 l 870 388 l 537 -157 q 536 -164 534 -162 q 543 -162 538 -165 z "},"⚧":{"ha":1763,"x_min":203,"x_max":1560,"o":"m 820 -231 l 820 -92 l 669 -92 l 669 30 l 820 30 l 820 180 q 684 241 743 195 q 590 355 624 288 q 555 500 555 422 q 570 597 555 550 q 612 683 585 644 l 535 761 l 429 657 l 344 745 l 448 848 l 326 972 l 326 833 l 203 833 l 203 1180 l 551 1180 l 551 1058 l 413 1058 l 536 933 l 648 1042 l 733 954 l 623 846 l 700 770 q 786 812 740 798 q 882 827 831 827 q 978 812 932 827 q 1063 770 1024 798 l 1350 1058 l 1213 1058 l 1213 1180 l 1560 1180 l 1560 833 l 1438 833 l 1438 972 l 1151 683 q 1193 597 1179 644 q 1208 500 1208 550 q 1174 354 1208 422 q 1079 240 1139 286 q 942 180 1019 194 l 942 30 l 1093 30 l 1093 -92 l 942 -92 l 942 -231 l 820 -231 m 882 296 q 984 323 938 296 q 1058 398 1030 351 q 1086 500 1086 444 q 1058 603 1086 557 q 984 677 1030 649 q 882 705 938 705 q 780 677 826 705 q 705 603 733 649 q 677 500 677 557 q 705 398 677 445 q 780 323 733 351 q 882 296 826 296 z "},"⚪":{"ha":1763,"x_min":176,"x_max":1587,"o":"m 882 -231 q 609 -175 737 -231 q 384 -23 481 -120 q 232 202 287 75 q 176 475 176 330 q 232 747 176 619 q 384 972 287 875 q 609 1125 481 1069 q 882 1180 737 1180 q 1154 1125 1027 1180 q 1379 972 1282 1069 q 1532 747 1476 875 q 1587 475 1587 619 q 1532 202 1587 330 q 1379 -23 1476 75 q 1154 -175 1282 -120 q 882 -231 1027 -231 m 376 500 q 357 510 364 501 q 351 531 350 519 q 432 753 368 652 q 597 921 497 854 q 819 1004 698 987 q 842 999 833 1006 q 851 979 851 991 q 827 951 851 954 q 628 877 718 937 q 478 726 537 817 q 406 525 420 635 q 396 507 404 513 q 376 500 388 500 m 882 -176 q 1134 -125 1016 -176 q 1341 16 1251 -74 q 1481 223 1430 106 q 1533 475 1533 341 q 1481 726 1533 608 q 1341 933 1430 844 q 1134 1075 1251 1023 q 882 1126 1016 1126 q 631 1075 749 1126 q 423 933 513 1023 q 282 726 333 844 q 231 475 231 608 q 282 223 231 341 q 423 16 333 106 q 631 -125 513 -74 q 882 -176 749 -176 z "},"⚫":{"ha":1763,"x_min":176,"x_max":1587,"o":"m 882 -231 q 1154 -175 1027 -231 q 1379 -23 1282 -120 q 1532 202 1476 75 q 1587 475 1587 330 q 1532 747 1587 619 q 1379 972 1476 875 q 1154 1125 1282 1069 q 882 1180 1027 1180 q 609 1125 737 1180 q 384 972 481 1069 q 232 747 287 875 q 176 475 176 619 q 232 202 176 330 q 384 -23 287 75 q 609 -175 481 -120 q 882 -231 737 -231 m 882 -176 q 631 -125 749 -176 q 423 16 513 -74 q 282 223 333 106 q 231 475 231 341 q 282 726 231 608 q 423 933 333 844 q 631 1075 513 1023 q 882 1126 749 1126 q 1134 1075 1016 1126 q 1341 933 1251 1023 q 1481 726 1430 844 q 1533 475 1533 608 q 1481 223 1533 341 q 1341 16 1430 106 q 1134 -125 1251 -74 q 882 -176 1016 -176 m 386 5 l 1377 5 l 1391 49 l 372 49 l 386 5 m 412 -21 l 456 -21 l 456 967 l 412 967 l 412 -21 m 636 -159 l 680 -159 l 680 1109 l 636 1109 l 636 -159 m 248 229 l 1516 229 l 1516 273 l 248 273 l 248 229 m 214 453 l 1550 453 l 1550 496 l 214 496 l 214 453 m 860 -193 l 903 -193 l 903 1143 l 860 1143 l 860 -193 m 1084 -159 l 1127 -159 l 1127 1109 l 1084 1109 l 1084 -159 m 248 677 l 1516 677 l 1516 720 l 248 720 l 248 677 m 1308 -21 l 1351 -21 l 1351 967 l 1308 967 l 1308 -21 m 372 901 l 1391 901 l 1377 944 l 386 944 l 372 901 z "},"⚰":{"ha":1763,"x_min":202,"x_max":1561,"o":"m 256 931 l 256 624 l 411 226 l 1251 -168 l 1507 20 l 1507 323 l 975 975 l 538 1120 l 256 931 m 202 961 l 529 1180 l 1008 1021 l 1561 342 l 1561 -7 l 1258 -231 l 369 186 l 202 614 l 202 961 m 204 935 l 255 955 l 411 552 l 1251 158 l 1518 355 l 1550 311 l 1258 96 l 369 511 l 204 935 m 1282 -195 l 1227 -195 l 1227 125 l 1282 125 l 1282 -195 m 417 208 l 363 208 l 363 532 l 417 532 l 417 208 m 897 157 l 1107 58 l 1107 -2 l 897 97 l 897 157 m 531 329 l 741 230 l 741 170 l 531 269 l 531 329 z "},"⚱":{"ha":1763,"x_min":458,"x_max":1305,"o":"m 882 -231 q 751 -215 804 -231 q 643 -161 697 -199 q 565 -20 600 -103 q 507 166 530 63 q 470 387 483 269 q 458 633 458 505 q 497 784 458 720 q 630 909 536 848 q 657 941 648 922 q 672 1000 666 960 l 722 993 q 699 915 713 943 q 658 868 685 887 q 541 758 574 810 q 509 633 509 706 q 520 397 509 510 q 554 185 532 283 q 609 7 576 86 q 682 -127 641 -73 q 770 -168 724 -155 q 882 -180 817 -180 q 993 -168 947 -180 q 1082 -127 1040 -155 q 1154 7 1122 -73 q 1208 185 1186 87 q 1242 397 1231 284 q 1254 633 1254 511 q 1222 758 1254 707 q 1105 868 1190 810 q 1065 913 1079 886 q 1041 993 1050 941 l 1090 1000 q 1105 941 1097 960 q 1133 909 1114 922 q 1266 783 1227 847 q 1305 633 1305 720 q 1293 388 1305 506 q 1256 166 1280 270 q 1197 -20 1232 63 q 1118 -163 1162 -104 q 1012 -215 1066 -200 q 882 -231 958 -231 m 882 -92 q 694 -62 773 -92 q 564 3 616 -32 l 574 55 q 699 -11 622 20 q 882 -41 775 -41 q 1065 -11 989 -41 q 1190 55 1141 20 l 1200 3 q 1069 -62 1148 -32 q 882 -92 990 -92 m 882 568 q 691 583 774 568 q 552 616 608 597 q 470 647 496 635 l 490 693 q 569 664 516 682 q 700 633 621 646 q 882 619 778 619 q 1063 633 985 619 q 1194 664 1141 646 q 1272 693 1246 682 l 1292 647 q 1210 616 1265 635 q 1072 583 1155 597 q 882 568 989 568 m 882 447 q 688 461 771 447 q 550 494 605 475 q 470 526 496 513 l 490 571 q 568 542 516 559 q 697 511 619 524 q 882 498 776 498 q 1065 511 987 498 q 1195 542 1143 524 q 1272 571 1246 559 l 1293 526 q 1212 494 1267 513 q 1075 461 1158 475 q 882 447 993 447 m 882 835 q 727 844 792 835 q 625 873 661 854 l 656 915 q 745 893 688 901 q 882 886 802 886 q 1018 893 961 886 q 1107 915 1076 901 l 1139 873 q 1037 844 1102 854 q 882 835 971 835 m 882 957 q 653 982 730 957 q 576 1057 576 1006 q 602 1108 576 1087 q 680 1145 627 1128 l 706 1153 q 793 1173 748 1166 q 882 1180 838 1180 q 969 1173 924 1180 q 1057 1153 1015 1166 l 1084 1145 q 1162 1108 1137 1128 q 1187 1057 1187 1087 q 1110 982 1187 1007 q 882 957 1034 957 m 882 1008 q 1010 1015 954 1008 q 1101 1033 1067 1021 q 1134 1058 1134 1044 q 1118 1077 1134 1067 q 1069 1096 1101 1086 l 1042 1104 q 961 1123 1002 1116 q 882 1129 920 1129 q 803 1123 844 1129 q 721 1104 762 1117 l 694 1096 q 645 1076 661 1086 q 629 1058 629 1067 q 662 1033 629 1044 q 752 1015 695 1021 q 882 1008 810 1008 z "},"⚽":{"ha":1763,"x_min":176,"x_max":1587,"o":"m 882 -231 q 609 -175 737 -231 q 384 -23 481 -120 q 232 202 287 75 q 176 475 176 330 q 232 747 176 619 q 384 972 287 875 q 609 1125 481 1069 q 882 1180 737 1180 q 1154 1125 1027 1180 q 1379 972 1282 1069 q 1532 747 1476 875 q 1587 475 1587 619 q 1532 202 1587 330 q 1379 -23 1476 75 q 1154 -175 1282 -120 q 882 -231 1027 -231 m 424 -22 q 336 73 374 19 q 270 193 298 127 q 285 255 275 220 q 307 326 295 291 q 330 385 319 360 q 349 416 341 410 q 424 384 379 401 q 515 353 469 368 q 598 331 562 339 q 604 258 598 298 q 617 178 609 218 q 635 106 626 138 q 651 59 644 75 l 424 -22 m 958 -64 q 777 -22 869 -53 q 602 52 685 9 l 620 102 q 790 31 701 60 q 963 -10 879 1 l 958 -64 m 332 363 q 321 476 325 420 q 317 587 317 532 q 319 666 317 627 q 326 742 321 705 l 380 738 q 373 664 375 701 q 371 589 371 627 q 375 479 371 535 q 386 368 379 424 l 332 363 m 578 288 l 551 317 l 821 559 l 847 529 l 578 288 m 1021 -180 l 920 -29 l 1141 174 l 1346 134 l 1338 -20 q 1252 -89 1303 -56 q 1140 -144 1200 -121 q 1021 -180 1080 -168 m 345 677 q 320 690 338 680 q 285 714 302 701 q 258 736 267 727 q 299 818 272 770 q 385 932 326 865 q 508 1036 445 1001 q 606 1084 571 1072 l 572 883 q 449 786 509 836 q 345 677 389 737 m 882 -176 q 1134 -125 1016 -176 q 1341 16 1251 -74 q 1481 223 1430 106 q 1533 475 1533 341 q 1481 726 1533 608 q 1341 933 1430 844 q 1134 1075 1251 1023 q 882 1126 1016 1126 q 631 1075 749 1126 q 423 933 513 1023 q 282 726 333 844 q 231 475 231 608 q 282 223 231 341 q 423 16 333 106 q 631 -125 513 -74 q 882 -176 749 -176 m 1121 128 q 1110 221 1118 172 q 1090 320 1102 271 q 1063 410 1079 370 l 1116 424 q 1154 286 1138 365 q 1175 132 1169 206 l 1121 128 m 854 730 q 747 785 797 761 q 646 828 698 808 q 530 867 594 848 l 543 917 q 661 880 608 900 q 766 835 714 860 q 879 779 818 810 l 854 730 m 1331 85 l 1295 123 q 1371 194 1329 149 q 1450 291 1413 240 q 1508 380 1488 341 l 1554 347 q 1444 195 1504 266 q 1331 85 1384 125 m 1099 397 q 1021 413 1067 401 q 928 441 975 425 q 843 474 880 458 q 789 501 805 490 q 775 589 780 539 q 771 686 771 638 q 773 753 771 722 q 780 802 776 784 q 838 834 800 818 q 921 866 876 851 q 1005 890 966 881 q 1067 901 1045 900 l 1266 653 q 1221 565 1251 614 q 1159 470 1192 516 q 1099 397 1126 425 m 1482 566 q 1393 596 1445 582 q 1289 622 1341 610 q 1197 641 1237 634 l 1205 695 q 1299 676 1245 688 q 1406 649 1353 664 q 1498 618 1459 634 l 1482 566 m 1477 277 q 1474 396 1477 338 q 1462 508 1470 454 q 1442 616 1455 563 q 1458 659 1451 635 q 1472 710 1466 684 q 1482 760 1478 736 q 1534 621 1520 701 q 1548 458 1548 542 q 1548 412 1548 435 q 1545 362 1547 389 q 1539 302 1543 336 q 1515 289 1535 297 q 1477 277 1496 280 m 1079 854 l 1026 865 l 1085 1075 l 1138 1065 l 1079 854 m 1265 1023 l 1098 1024 q 1053 1056 1086 1034 q 983 1101 1020 1078 q 922 1137 947 1124 q 1013 1129 964 1135 q 1118 1103 1063 1123 q 1206 1062 1166 1086 q 1265 1023 1246 1038 z "},"⚾":{"ha":1763,"x_min":176,"x_max":1587,"o":"m 882 -231 q 609 -175 737 -231 q 384 -23 481 -120 q 232 202 287 75 q 176 475 176 330 q 232 747 176 619 q 384 972 287 875 q 609 1125 481 1069 q 882 1180 737 1180 q 1154 1125 1027 1180 q 1379 972 1282 1069 q 1532 747 1476 875 q 1587 475 1587 619 q 1532 202 1587 330 q 1379 -23 1476 75 q 1154 -175 1282 -120 q 882 -231 1027 -231 m 909 -193 q 918 -132 915 -163 q 922 -71 922 -101 q 903 151 922 52 q 836 337 884 250 q 699 511 787 425 q 556 615 630 578 q 421 652 483 652 q 347 639 382 652 q 280 600 311 626 q 222 534 249 573 l 194 583 q 261 651 225 623 q 337 692 297 678 q 421 707 378 707 q 576 666 493 707 q 735 551 659 626 q 887 356 836 454 q 957 154 939 259 q 976 -71 976 50 q 972 -132 976 -99 q 964 -193 968 -164 l 909 -193 m 933 -107 l 871 -72 q 858 -50 858 -64 q 866 -31 858 -39 q 884 -22 873 -22 q 905 -28 895 -22 l 947 -53 l 994 -33 q 1012 -29 1004 -29 q 1031 -38 1025 -29 q 1037 -56 1037 -47 q 1032 -71 1037 -64 q 1017 -82 1027 -78 l 957 -107 l 933 -107 m 939 51 l 858 71 q 838 96 838 75 q 850 118 838 111 q 878 121 861 125 l 936 107 l 985 146 q 1005 153 995 153 q 1024 145 1017 153 q 1031 127 1031 138 q 1028 114 1031 120 q 1019 102 1025 108 l 962 57 l 939 51 m 386 573 q 367 580 374 573 q 360 598 360 587 q 368 621 360 611 l 409 683 l 393 744 q 396 772 388 761 q 417 783 404 783 q 435 777 427 783 q 446 759 443 770 l 465 687 l 463 665 l 407 584 q 386 573 399 573 m 894 244 l 797 255 q 780 263 787 256 q 773 281 773 271 q 784 302 773 294 q 810 308 794 309 l 884 300 l 937 353 q 963 366 949 366 q 982 356 974 366 q 990 336 990 347 q 981 316 990 325 l 916 254 l 894 244 m 564 509 q 545 518 552 509 q 537 535 537 526 q 553 562 537 549 l 613 608 l 615 673 q 623 696 616 688 q 643 705 631 705 q 663 696 655 705 q 670 671 671 687 l 667 595 l 658 574 l 580 515 q 564 509 572 509 m 701 412 q 679 418 688 410 q 669 439 669 426 q 697 466 669 460 l 770 482 l 804 550 q 817 565 810 559 q 831 570 823 570 q 854 558 847 570 q 854 530 862 545 l 814 448 l 797 433 l 701 412 m 882 -176 q 1134 -125 1016 -176 q 1341 16 1251 -74 q 1481 223 1430 106 q 1533 475 1533 341 q 1481 726 1533 608 q 1341 933 1430 844 q 1134 1075 1251 1023 q 882 1126 1016 1126 q 631 1075 749 1126 q 423 933 513 1023 q 282 726 333 844 q 231 475 231 608 q 282 223 231 341 q 423 16 333 106 q 631 -125 513 -74 q 882 -176 749 -176 m 852 903 q 830 917 838 903 q 830 945 823 930 l 861 1010 l 880 1026 l 956 1031 q 979 1024 970 1033 q 988 1004 988 1016 q 958 977 988 979 l 903 974 l 879 922 q 868 908 875 913 q 852 903 861 903 m 1008 747 q 986 758 994 747 q 982 785 979 768 l 1001 870 l 1017 891 l 1104 918 q 1131 913 1120 922 q 1141 892 1141 904 q 1118 865 1141 873 l 1051 844 l 1037 774 q 1026 754 1034 762 q 1008 747 1019 747 m 1187 603 q 1167 613 1174 603 q 1162 640 1160 624 l 1172 724 l 1187 746 l 1270 779 q 1298 778 1287 786 q 1310 755 1310 770 q 1288 728 1310 737 l 1224 704 l 1215 632 q 1206 611 1214 618 q 1187 603 1198 603 m 1561 431 q 1365 565 1465 492 q 1169 714 1265 637 q 989 866 1073 791 q 839 1008 905 941 q 734 1127 773 1076 l 781 1155 q 878 1044 816 1108 q 1023 908 941 981 q 1198 759 1105 835 q 1390 612 1292 684 q 1582 480 1488 541 l 1561 431 m 1360 493 q 1341 502 1348 493 q 1335 524 1335 510 l 1335 595 l 1348 618 l 1416 655 q 1443 654 1431 663 q 1456 631 1456 645 q 1438 605 1456 614 l 1387 578 l 1387 526 q 1379 502 1387 510 q 1360 493 1372 493 z "},"⛄":{"ha":1763,"x_min":332,"x_max":1431,"o":"m 882 -231 q 716 -203 793 -231 q 579 -126 638 -175 q 487 -12 520 -77 q 454 128 454 54 q 497 286 454 212 q 619 412 541 361 q 547 618 547 503 q 575 754 547 691 q 654 863 604 818 l 741 863 q 640 761 678 826 q 601 618 601 696 q 629 497 601 555 q 708 398 656 440 q 561 285 614 357 q 508 128 508 212 q 558 -25 508 45 q 694 -138 609 -96 q 882 -180 779 -180 q 1069 -138 985 -180 q 1205 -25 1154 -96 q 1255 128 1255 45 q 1202 285 1255 212 q 1055 398 1149 357 q 1135 497 1107 440 q 1162 618 1162 555 q 1124 761 1162 696 q 1023 863 1085 826 l 1109 863 q 1188 754 1159 818 q 1217 618 1217 691 q 1144 412 1217 503 q 1266 286 1222 361 q 1310 128 1310 212 q 1276 -12 1310 54 q 1184 -126 1243 -77 q 1048 -203 1125 -175 q 882 -231 970 -231 m 523 263 l 346 406 q 332 430 332 417 q 341 450 332 442 q 361 458 350 458 q 382 450 373 458 l 444 401 l 444 452 q 451 469 444 462 q 467 475 458 475 q 484 469 477 475 q 491 452 491 462 l 491 363 l 551 315 l 523 263 m 882 464 q 796 488 839 464 l 816 522 q 882 505 846 505 q 947 522 918 505 l 967 488 q 882 464 924 464 m 739 616 q 718 627 727 616 q 709 655 709 639 q 718 683 709 671 q 739 694 727 694 q 760 683 751 694 q 769 655 769 671 q 760 627 769 639 q 739 616 751 616 m 882 553 q 869 567 878 553 q 854 598 861 581 q 848 623 848 614 q 858 631 848 628 q 882 635 869 635 q 905 631 895 635 q 916 623 916 628 q 909 598 916 614 q 894 567 902 581 q 882 553 886 553 m 1024 616 q 1003 627 1012 616 q 994 655 994 639 q 1003 683 994 671 q 1024 694 1012 694 q 1045 683 1036 694 q 1054 655 1054 671 q 1045 627 1054 639 q 1024 616 1036 616 m 1240 263 l 1213 315 l 1272 363 l 1272 452 q 1279 469 1272 462 q 1296 475 1286 475 q 1312 469 1305 475 q 1319 452 1319 462 l 1319 401 l 1381 450 q 1402 458 1390 458 q 1422 450 1414 458 q 1431 430 1431 442 q 1417 406 1431 417 l 1240 263 m 962 831 q 693 845 787 831 q 600 887 600 860 q 642 916 600 905 q 741 928 685 927 l 741 1154 q 784 1172 741 1164 q 876 1180 826 1180 q 971 1172 925 1180 q 1046 1152 1017 1164 q 1074 1128 1075 1140 l 1048 914 q 1169 868 1169 905 q 1125 839 1169 847 q 962 831 1081 831 z "},"⛅":{"ha":1763,"x_min":69,"x_max":1691,"o":"m 463 -163 q 306 -115 363 -163 q 248 17 248 -66 q 279 119 248 73 q 361 195 310 165 q 473 231 412 225 q 511 349 477 296 q 600 433 545 401 q 720 464 654 464 q 760 460 739 464 q 842 598 787 538 q 971 690 897 657 q 1129 724 1046 724 q 1275 693 1206 724 q 1397 610 1344 663 q 1480 487 1450 557 q 1510 336 1510 416 q 1501 252 1510 292 q 1636 181 1581 239 q 1691 42 1691 123 q 1662 -64 1691 -18 q 1583 -137 1634 -111 q 1466 -163 1533 -163 l 463 -163 m 500 212 q 384 337 426 262 q 341 500 341 412 q 387 673 341 595 q 511 797 433 751 q 683 843 589 843 q 856 796 778 843 q 979 670 935 749 l 930 650 q 828 750 893 712 q 684 789 762 789 q 539 750 604 789 q 434 646 473 711 q 395 500 395 581 q 422 379 395 436 q 500 278 450 323 l 500 212 m 463 -109 l 1466 -109 q 1590 -67 1544 -109 q 1636 42 1636 -26 q 1585 156 1636 111 q 1458 201 1534 201 q 1443 201 1451 201 q 1428 199 1435 201 q 1455 336 1455 267 q 1411 504 1455 428 q 1292 624 1366 579 q 1129 669 1218 669 q 994 641 1057 669 q 883 563 930 613 q 812 446 836 512 q 921 358 879 418 q 962 222 962 298 l 908 222 q 883 316 908 274 q 814 384 857 359 q 720 410 772 410 q 623 383 667 410 q 552 313 578 357 q 526 215 526 269 l 526 182 q 362 126 422 174 q 302 17 302 79 q 343 -76 302 -43 q 463 -109 385 -109 m 237 127 q 190 133 210 120 q 167 168 171 145 q 179 214 163 191 l 330 427 l 103 557 q 74 595 79 572 q 81 638 69 618 q 121 662 94 658 l 372 702 l 309 958 q 313 1003 302 985 q 345 1024 324 1021 q 389 1012 366 1028 l 604 854 l 743 1082 q 763 1104 751 1096 q 789 1112 774 1112 q 822 1098 808 1112 q 838 1064 835 1084 l 880 804 l 1145 865 q 1198 847 1182 874 q 1192 789 1214 821 l 1122 694 l 1055 694 l 1131 798 q 1132 804 1133 801 q 1126 805 1131 806 l 909 755 l 823 810 l 787 1036 q 784 1041 787 1040 q 779 1038 781 1042 l 659 839 l 564 816 l 374 956 q 368 957 370 959 q 366 950 366 955 l 424 720 l 379 648 l 140 610 q 135 606 135 609 q 138 600 134 602 l 346 480 l 366 384 l 229 189 q 228 183 226 185 q 234 182 229 182 l 483 245 l 491 191 l 237 127 z "},"⛈":{"ha":1763,"x_min":153,"x_max":1610,"o":"m 865 -164 q 832 -147 844 -164 q 825 -108 820 -130 l 859 60 l 703 60 q 666 73 680 60 q 652 108 652 87 q 659 137 652 121 l 732 325 l 366 325 q 212 372 270 325 q 153 497 153 419 q 214 629 153 578 q 378 688 275 681 q 418 805 383 753 q 508 889 452 858 q 631 920 564 920 q 651 920 641 920 q 671 918 661 919 q 753 1055 698 996 q 882 1147 808 1114 q 1040 1180 956 1180 q 1191 1150 1120 1180 q 1316 1066 1262 1120 q 1400 943 1369 1013 q 1430 792 1430 873 q 1421 709 1430 749 q 1558 644 1507 696 q 1610 512 1610 591 q 1547 375 1610 426 q 1376 325 1484 325 l 1035 325 l 1001 253 l 1103 253 q 1141 240 1126 253 q 1156 206 1156 228 q 1141 165 1156 184 l 903 -144 q 865 -164 888 -164 m 548 -231 q 496 -212 517 -231 q 475 -168 475 -194 q 489 -122 475 -149 q 524 -71 503 -96 q 566 -29 545 -45 q 604 -12 588 -12 q 621 -27 616 -12 q 627 -84 627 -42 q 548 -231 627 -231 m 385 27 q 334 45 355 27 q 313 90 313 64 q 327 136 313 109 q 361 187 340 162 q 404 229 382 212 q 441 245 425 245 q 458 231 453 245 q 464 174 464 216 q 385 27 464 27 m 897 -64 l 1085 182 q 1088 194 1090 189 q 1077 199 1085 199 l 916 199 l 975 325 l 790 325 l 714 130 q 724 114 709 114 l 925 114 l 890 -60 q 892 -66 889 -65 q 897 -64 895 -68 m 1341 27 q 1290 45 1311 27 q 1269 90 1269 64 q 1283 136 1269 109 q 1317 187 1297 162 q 1360 229 1338 212 q 1398 245 1381 245 q 1415 231 1409 245 q 1420 174 1420 216 q 1341 27 1420 27 m 380 379 l 1376 379 q 1509 414 1461 379 q 1556 512 1556 449 q 1504 620 1556 582 q 1356 663 1452 659 q 1371 727 1365 694 q 1376 792 1376 759 q 1331 960 1376 884 q 1209 1081 1285 1036 q 1040 1126 1133 1126 q 904 1098 968 1126 q 794 1020 841 1069 q 724 905 747 970 q 841 818 795 878 q 887 686 887 758 l 833 686 q 806 774 833 733 q 733 841 779 815 q 631 866 687 866 q 531 840 576 866 q 460 769 486 813 q 433 671 433 725 l 433 638 q 264 594 321 629 q 208 497 208 559 q 253 410 208 441 q 380 379 298 379 z "},"⛎":{"ha":1763,"x_min":176,"x_max":1587,"o":"m 882 -231 q 661 -194 766 -231 q 467 -92 555 -158 q 313 62 378 -26 q 212 256 248 151 q 176 475 176 361 q 212 694 176 589 q 313 887 248 799 q 467 1042 378 976 q 661 1144 555 1107 q 882 1180 766 1180 q 1103 1144 998 1180 q 1296 1042 1208 1107 q 1450 887 1385 976 q 1551 694 1515 799 q 1587 475 1587 589 q 1551 256 1587 361 q 1450 62 1515 151 q 1296 -92 1385 -26 q 1103 -194 1208 -158 q 882 -231 998 -231 m 882 90 q 769 119 820 90 q 688 200 718 149 q 659 313 659 251 l 659 551 q 682 554 670 553 q 707 555 694 555 q 869 523 778 555 q 968 495 922 504 q 1058 486 1015 486 q 1082 486 1070 486 q 1105 488 1093 487 l 1105 313 q 1075 200 1105 251 q 995 119 1045 149 q 882 90 944 90 m 882 8 q 1035 49 966 8 q 1145 159 1104 90 q 1186 313 1186 229 l 1186 506 q 1375 616 1276 536 l 1325 680 q 1252 628 1286 649 q 1186 593 1218 606 l 1186 903 l 1105 903 l 1105 570 q 1081 567 1093 568 q 1056 566 1069 566 q 981 574 1020 566 q 895 599 941 582 q 794 628 842 618 q 705 637 747 637 q 682 636 693 637 q 659 634 670 635 l 659 903 l 577 903 l 577 616 q 387 506 487 587 l 437 442 q 510 494 475 472 q 577 529 544 515 l 577 313 q 618 159 577 229 q 728 49 659 90 q 882 8 798 8 z "},"⛏":{"ha":1763,"x_min":193,"x_max":1570,"o":"m 704 557 l 745 591 l 1364 -161 q 1396 -176 1377 -176 q 1425 -165 1413 -176 l 1501 -100 q 1516 -68 1516 -87 q 1506 -40 1516 -51 l 831 669 l 871 707 l 1545 -3 q 1570 -68 1570 -30 q 1535 -140 1570 -109 l 1460 -207 q 1396 -231 1433 -231 q 1322 -196 1350 -231 l 704 557 m 681 852 q 927 1032 800 956 q 1194 1149 1053 1109 l 1192 1126 q 818 1071 976 1122 q 538 912 661 1019 q 331 632 401 791 q 252 281 261 474 l 231 282 q 371 531 285 413 q 574 760 458 650 l 705 614 q 725 604 714 604 q 779 641 741 604 q 810 673 800 661 q 820 694 820 685 q 812 711 820 703 l 681 852 m 581 1023 q 587 1009 587 1016 q 569 971 587 996 q 523 922 551 947 q 472 881 496 897 q 432 865 447 865 q 420 869 425 865 q 411 886 410 876 q 438 927 413 900 q 496 982 463 954 q 557 1027 529 1010 q 581 1023 570 1035 m 193 217 q 280 647 205 470 q 503 953 356 823 q 699 1081 592 1031 q 942 1156 806 1131 q 1252 1180 1078 1180 l 1252 1118 q 998 1014 1118 1080 q 760 848 878 947 l 858 742 q 874 722 869 731 q 879 703 879 713 q 862 654 879 681 q 816 600 846 627 q 714 547 758 547 q 692 552 702 547 q 672 570 683 558 l 572 682 q 441 538 502 614 q 334 380 381 462 q 256 217 287 299 l 193 217 z "},"⛑":{"ha":1763,"x_min":183,"x_max":1580,"o":"m 882 239 q 606 254 733 239 q 384 298 478 270 q 236 366 289 327 q 183 453 183 406 l 183 500 q 198 547 183 528 q 257 595 213 565 q 289 741 264 661 q 361 901 313 821 q 484 1045 408 980 q 667 1145 559 1110 l 667 1180 l 1097 1180 l 1097 1145 q 1280 1045 1204 1110 q 1402 901 1355 980 q 1475 741 1450 821 q 1506 595 1499 661 q 1565 547 1550 565 q 1580 500 1580 528 l 1580 453 q 1527 366 1580 406 q 1380 298 1474 327 q 1158 254 1285 270 q 882 239 1030 239 m 802 -231 q 749 -200 772 -231 q 725 -134 725 -170 l 725 -128 q 731 -113 725 -119 q 746 -106 737 -106 l 1017 -106 q 1033 -113 1027 -106 q 1038 -128 1038 -119 l 1038 -134 q 1015 -200 1038 -170 q 961 -231 991 -231 l 802 -231 m 882 -193 q 657 -155 760 -193 q 479 -45 554 -116 q 363 121 404 25 q 321 330 321 216 l 376 330 q 440 87 376 193 q 620 -79 505 -18 q 882 -139 734 -139 q 1144 -79 1030 -139 q 1323 87 1258 -18 q 1388 330 1388 193 l 1442 330 q 1400 121 1442 216 q 1284 -45 1359 25 q 1106 -155 1209 -116 q 882 -193 1004 -193 m 631 398 q 508 415 572 398 q 395 462 444 433 q 383 479 385 469 q 387 500 381 490 q 405 512 395 511 q 425 508 416 513 q 519 469 467 483 q 632 452 572 455 q 652 445 644 452 q 659 425 659 437 q 651 406 659 413 q 631 398 643 398 m 846 489 q 830 506 830 489 l 830 606 q 814 622 830 622 l 719 622 q 703 639 703 622 l 703 715 q 719 732 703 732 l 814 732 q 830 749 830 732 l 830 848 q 846 865 830 865 l 918 865 q 933 848 933 865 l 933 749 q 949 732 933 732 l 1044 732 q 1061 715 1061 732 l 1061 639 q 1044 622 1061 622 l 949 622 q 933 606 933 622 l 933 506 q 918 489 933 489 l 846 489 m 882 293 q 1127 307 1011 293 q 1333 343 1244 320 q 1474 395 1423 366 q 1526 453 1526 423 l 1526 500 q 1522 512 1526 507 q 1504 530 1519 518 q 1454 566 1489 542 q 1429 708 1450 629 q 1361 865 1407 787 q 1237 1008 1315 944 q 1042 1104 1159 1072 l 1042 1125 l 721 1125 l 721 1104 q 526 1008 604 1072 q 402 865 448 944 q 335 708 356 787 q 309 566 313 629 q 259 530 275 542 q 241 512 244 518 q 237 500 237 507 l 237 453 q 289 395 237 423 q 430 343 340 366 q 636 307 519 320 q 882 293 752 293 m 618 876 l 568 1079 l 703 1136 l 703 1164 l 741 1164 q 729 1007 741 1067 q 692 917 718 947 q 618 876 665 886 m 1145 876 q 1072 917 1099 886 q 1034 1007 1045 947 q 1023 1164 1023 1067 l 1061 1164 l 1061 1136 l 1195 1079 l 1145 876 z "},"⛓":{"ha":1763,"x_min":319,"x_max":1444,"o":"m 635 174 l 620 213 q 724 284 686 231 q 762 413 762 337 l 762 536 q 724 666 762 612 q 620 736 686 719 l 635 775 q 760 689 715 752 q 804 536 804 625 l 804 413 q 760 261 804 325 q 635 174 715 198 m 441 -231 l 441 -96 q 452 -33 441 -60 q 486 12 464 -5 l 509 -26 q 489 -53 496 -36 q 483 -96 483 -70 l 483 -231 l 441 -231 m 319 -231 l 319 -96 q 363 57 319 -7 q 488 143 408 120 l 503 104 q 399 34 437 87 q 361 -96 361 -20 l 361 -231 l 319 -231 m 640 -231 l 640 -96 q 634 -53 640 -70 q 614 -26 627 -36 l 637 12 q 671 -33 659 -5 q 682 -96 682 -60 l 682 -231 l 640 -231 m 762 -231 l 762 -96 q 724 34 762 -20 q 620 104 686 87 l 635 143 q 760 57 715 120 q 804 -96 804 -7 l 804 -231 l 762 -231 m 562 -101 q 503 -79 524 -101 q 481 -18 481 -57 l 481 335 q 504 397 481 375 q 562 418 526 418 q 620 397 599 418 q 642 335 642 375 l 642 -18 q 620 -78 642 -56 q 562 -101 599 -101 m 562 -58 q 590 -46 579 -58 q 601 -18 601 -35 l 601 335 q 590 364 601 353 q 562 376 579 376 q 534 364 545 376 q 522 335 522 353 l 522 -18 q 534 -46 522 -35 q 562 -58 545 -58 m 488 174 q 363 261 408 198 q 319 413 319 325 l 319 536 q 363 689 319 625 q 488 775 408 752 l 503 736 q 399 666 437 719 q 361 536 361 612 l 361 413 q 399 284 361 337 q 503 213 437 231 l 488 174 m 486 306 q 452 351 464 323 q 441 413 441 378 l 441 536 q 452 600 441 572 q 486 644 464 627 l 509 606 q 489 579 496 596 q 483 536 483 562 l 483 413 q 489 370 483 387 q 509 343 496 353 l 486 306 m 637 306 l 614 343 q 634 370 627 353 q 640 413 640 387 l 640 536 q 634 579 640 562 q 614 606 627 596 l 637 644 q 671 600 659 627 q 682 536 682 572 l 682 413 q 671 351 682 378 q 637 306 659 323 m 1119 -231 l 1119 22 q 1142 84 1119 62 q 1201 106 1164 106 q 1260 84 1238 106 q 1283 22 1283 62 l 1283 -231 l 1239 -231 l 1239 24 q 1229 52 1239 41 q 1201 63 1218 63 q 1174 52 1184 63 q 1163 24 1163 41 l 1163 -231 l 1119 -231 m 1128 -136 q 1003 -48 1048 -113 q 958 99 958 16 l 958 217 q 1003 369 958 304 q 1128 456 1048 433 l 1144 416 q 1040 344 1078 397 q 1002 221 1002 292 l 1002 99 q 1040 -24 1002 28 q 1144 -96 1078 -76 l 1128 -136 m 1126 -7 q 1090 43 1099 16 q 1081 106 1081 71 l 1081 202 q 1090 266 1081 238 q 1126 316 1099 293 l 1149 279 q 1130 248 1135 265 q 1125 207 1125 231 l 1125 102 q 1130 60 1125 77 q 1149 30 1135 43 l 1126 -7 m 562 531 q 503 553 524 531 q 481 614 481 575 l 481 967 q 503 1028 481 1006 q 562 1050 524 1050 q 620 1028 599 1050 q 642 967 642 1006 l 642 614 q 620 553 642 575 q 562 531 599 531 m 562 574 q 590 586 579 574 q 601 614 601 597 l 601 967 q 590 996 601 985 q 562 1008 578 1008 q 533 996 545 1008 q 522 967 522 985 l 522 614 q 534 586 522 597 q 562 574 545 574 m 488 806 q 363 893 408 830 q 319 1045 319 957 l 319 1180 l 361 1180 l 361 1045 q 399 916 361 969 q 503 845 437 863 l 488 806 m 1276 -7 l 1253 30 q 1272 60 1267 43 q 1277 102 1277 77 l 1277 207 q 1272 248 1277 231 q 1253 279 1267 265 l 1276 316 q 1312 266 1303 293 q 1321 202 1321 238 l 1321 106 q 1312 43 1321 71 q 1276 -7 1303 16 m 1274 -136 l 1258 -96 q 1362 -24 1324 -76 q 1400 99 1400 28 l 1400 221 q 1362 344 1400 292 q 1258 416 1324 397 l 1274 456 q 1399 369 1354 433 q 1444 217 1444 304 l 1444 99 q 1399 -48 1444 16 q 1274 -136 1354 -113 m 486 938 q 452 983 464 956 q 441 1045 441 1010 l 441 1180 l 483 1180 l 483 1045 q 489 1002 483 1019 q 509 975 496 985 l 486 938 m 1201 218 q 1142 240 1164 218 q 1119 302 1119 262 l 1119 648 q 1142 709 1119 688 q 1201 731 1164 731 q 1260 709 1238 731 q 1283 648 1283 688 l 1283 302 q 1260 240 1283 262 q 1201 218 1238 218 m 1201 261 q 1229 272 1218 261 q 1239 300 1239 283 l 1239 649 q 1229 677 1239 667 q 1201 688 1218 688 q 1174 677 1184 688 q 1163 649 1163 667 l 1163 300 q 1174 272 1163 283 q 1201 261 1184 261 m 635 806 l 620 845 q 724 916 686 863 q 762 1045 762 969 l 762 1180 l 804 1180 l 804 1045 q 760 893 804 957 q 635 806 715 830 m 637 938 l 614 975 q 634 1002 627 985 q 640 1045 640 1019 l 640 1180 l 682 1180 l 682 1045 q 671 983 682 1010 q 637 938 659 956 m 1128 493 q 1003 582 1048 517 q 958 732 958 646 l 958 850 q 1003 998 958 934 q 1128 1086 1048 1063 l 1144 1045 q 1040 974 1078 1026 q 1002 850 1002 921 l 1002 728 q 1040 606 1002 658 q 1144 534 1078 553 l 1128 493 m 1126 633 q 1090 684 1099 656 q 1081 747 1081 711 l 1081 843 q 1090 906 1081 879 q 1126 957 1099 934 l 1149 920 q 1130 889 1135 906 q 1125 848 1125 872 l 1125 743 q 1130 701 1125 718 q 1149 671 1135 684 l 1126 633 m 1276 633 l 1253 671 q 1272 701 1267 684 q 1277 743 1277 718 l 1277 848 q 1272 889 1277 872 q 1253 920 1267 906 l 1276 957 q 1312 906 1303 934 q 1321 843 1321 879 l 1321 747 q 1312 684 1321 711 q 1276 633 1303 656 m 1274 493 l 1258 534 q 1362 606 1324 553 q 1400 728 1400 658 l 1400 850 q 1362 974 1400 921 q 1258 1045 1324 1026 l 1274 1086 q 1399 998 1354 1063 q 1444 850 1444 934 l 1444 732 q 1399 582 1444 646 q 1274 493 1354 517 m 1201 844 q 1142 866 1164 844 q 1119 927 1119 888 l 1119 1180 l 1163 1180 l 1163 926 q 1174 898 1163 909 q 1201 886 1184 886 q 1229 898 1218 886 q 1239 926 1239 909 l 1239 1180 l 1283 1180 l 1283 927 q 1260 866 1283 888 q 1201 844 1238 844 z "},"⛔":{"ha":1763,"x_min":176,"x_max":1587,"o":"m 882 -193 q 611 -139 739 -193 q 386 10 484 -85 q 232 229 288 105 q 176 490 176 352 q 232 752 176 629 q 386 970 288 876 q 611 1119 484 1065 q 882 1173 739 1173 q 1152 1119 1025 1173 q 1377 970 1280 1065 q 1531 752 1475 876 q 1587 490 1587 629 q 1531 229 1587 352 q 1377 10 1475 105 q 1152 -139 1280 -85 q 882 -193 1025 -193 m 420 380 l 1345 382 q 1367 392 1358 382 q 1377 415 1377 402 l 1377 536 q 1367 560 1377 550 q 1345 570 1358 570 l 420 569 q 396 559 406 569 q 387 535 387 549 l 387 414 q 397 391 387 401 q 420 380 407 380 z "},"⛩":{"ha":1763,"x_min":81,"x_max":1682,"o":"m 394 -148 l 394 414 l 267 414 q 239 443 251 414 q 227 524 227 472 q 239 606 227 576 q 267 635 251 635 l 324 635 q 324 660 324 645 q 325 686 324 675 q 357 689 340 688 q 396 690 374 690 l 396 826 q 303 836 340 831 q 252 848 267 842 q 200 891 229 858 q 144 967 172 924 q 99 1053 117 1010 q 81 1123 81 1095 q 92 1164 81 1149 q 124 1180 102 1180 q 144 1177 132 1180 q 184 1162 155 1173 q 508 1080 335 1108 q 882 1051 682 1051 q 1255 1080 1082 1051 q 1579 1162 1428 1108 q 1620 1177 1609 1173 q 1639 1180 1631 1180 q 1671 1164 1661 1180 q 1682 1123 1682 1149 q 1664 1053 1682 1095 q 1619 967 1647 1010 q 1563 891 1592 924 q 1512 848 1534 858 q 1460 836 1496 842 q 1367 826 1423 831 l 1367 690 q 1407 689 1390 690 q 1438 686 1423 688 q 1439 660 1439 675 q 1439 635 1439 645 l 1497 635 q 1524 606 1512 635 q 1536 524 1536 576 q 1524 443 1536 472 q 1497 414 1512 414 l 1369 414 l 1369 -148 l 1182 -148 l 1182 414 l 581 414 l 581 -148 l 394 -148 m 488 -231 q 439 -229 465 -231 q 368 -222 412 -227 q 362 -143 362 -184 q 364 -103 362 -121 q 368 -66 366 -85 q 426 -62 396 -63 q 488 -61 456 -61 q 550 -62 520 -61 q 607 -66 579 -63 q 612 -103 610 -85 q 613 -143 613 -121 q 607 -222 613 -184 q 536 -229 563 -227 q 488 -231 510 -231 m 1276 -231 q 1227 -229 1253 -231 q 1156 -222 1200 -227 q 1150 -143 1150 -184 q 1152 -103 1150 -121 q 1156 -66 1154 -85 q 1214 -62 1184 -63 q 1276 -61 1243 -61 q 1337 -62 1308 -61 q 1395 -66 1367 -63 q 1400 -103 1398 -85 q 1401 -143 1401 -121 q 1395 -222 1401 -184 q 1324 -229 1351 -227 q 1276 -231 1298 -231 m 448 -94 l 527 -94 l 527 468 l 1236 468 l 1236 -94 l 1315 -94 l 1315 468 l 1472 468 q 1479 486 1476 468 q 1482 524 1482 505 q 1479 562 1482 544 q 1472 581 1476 581 l 1389 581 l 1389 636 q 1358 638 1377 637 q 1313 639 1338 639 l 1313 820 l 1238 816 l 1238 639 q 1194 638 1213 639 q 1162 636 1174 637 l 1162 581 l 916 581 l 916 861 q 1039 863 970 862 q 1179 867 1107 865 q 1316 874 1251 870 q 1430 886 1381 879 q 1499 902 1478 892 q 1546 949 1519 911 q 1603 1049 1573 987 l 1563 1039 q 1241 982 1409 1000 q 882 963 1074 963 q 522 982 690 963 q 201 1039 354 1000 l 161 1049 q 217 949 190 987 q 264 902 245 911 q 333 886 285 892 q 447 874 382 879 q 584 867 512 870 q 725 863 656 865 q 848 861 793 862 l 848 581 l 601 581 l 601 636 q 570 638 589 637 q 525 639 550 639 l 525 816 l 450 820 l 450 639 q 406 638 425 639 q 374 636 386 637 l 374 581 l 292 581 q 284 562 288 581 q 281 524 281 544 q 284 486 281 505 q 292 468 288 468 l 448 468 l 448 -94 m 651 635 l 793 635 l 793 808 q 682 810 738 809 q 579 813 627 812 l 579 690 q 619 689 602 690 q 650 686 635 688 q 651 660 651 675 q 651 635 651 645 m 970 635 l 1112 635 q 1112 660 1112 645 q 1113 686 1112 675 q 1144 689 1128 688 q 1184 690 1161 690 l 1184 813 q 1081 810 1137 812 q 970 808 1026 809 l 970 635 z "},"⛪":{"ha":1763,"x_min":319,"x_max":1444,"o":"m 683 -203 l 683 656 l 627 711 l 688 758 l 804 930 q 842 976 825 962 q 882 990 859 990 q 922 976 905 990 q 960 930 939 962 l 1075 758 l 1136 711 l 1080 656 l 1080 -203 l 1026 -203 l 1026 669 l 737 669 l 737 -203 l 683 -203 m 485 -94 l 485 8 l 587 8 l 587 -94 l 485 -94 m 472 -114 l 472 113 q 491 161 472 141 q 538 181 511 181 q 586 161 566 181 q 605 113 605 141 l 605 -114 l 472 -114 m 506 -80 l 571 -80 l 571 113 q 562 137 571 127 q 538 147 552 147 q 515 137 525 147 q 506 113 506 127 l 506 -80 m 356 113 l 319 152 l 699 529 l 736 490 l 356 113 m 349 -231 l 349 176 l 404 176 l 404 -176 l 1360 -176 l 1360 176 l 1414 176 l 1414 -231 l 349 -231 m 786 -203 l 786 75 q 812 148 786 118 q 882 177 838 177 q 951 148 925 177 q 977 75 977 118 l 977 -203 l 786 -203 m 865 -123 l 899 -123 l 899 29 l 939 29 l 939 62 l 899 62 l 899 133 l 865 133 l 865 62 l 824 62 l 824 29 l 865 29 l 865 -123 m 953 -60 q 962 -37 962 -60 q 953 -13 962 -13 q 943 -37 943 -13 q 953 -60 943 -60 m 1176 -94 l 1176 8 l 1278 8 l 1278 -94 l 1176 -94 m 1158 -114 l 1158 113 q 1178 161 1158 141 q 1225 181 1197 181 q 1272 161 1253 181 q 1291 113 1291 141 l 1291 -114 l 1158 -114 m 1192 -80 l 1257 -80 l 1257 113 q 1248 137 1257 127 q 1225 147 1238 147 q 1202 137 1212 147 q 1192 113 1192 127 l 1192 -80 m 1407 113 l 1027 490 l 1065 529 l 1444 152 l 1407 113 m 882 372 q 825 395 848 372 q 802 451 802 418 q 826 507 802 484 q 882 530 849 530 q 938 507 915 530 q 961 451 961 484 q 938 395 961 418 q 882 372 915 372 m 731 724 l 1032 724 l 917 897 q 897 925 905 915 q 882 936 888 936 q 867 925 875 936 q 846 897 859 915 l 731 724 m 854 937 l 854 1063 l 790 1063 l 790 1118 l 854 1118 l 854 1180 l 909 1180 l 909 1118 l 973 1118 l 973 1063 l 909 1063 l 909 937 l 854 937 z "},"⛰":{"ha":1763,"x_min":61,"x_max":1702,"o":"m 882 -197 q 638 -186 758 -197 q 414 -158 519 -176 q 231 -117 310 -140 q 106 -67 151 -94 q 61 -12 61 -40 q 73 26 61 3 q 112 84 84 48 q 186 175 139 120 l 198 189 q 286 289 254 254 q 336 335 317 323 q 368 348 355 348 q 393 340 378 348 q 430 317 408 333 q 483 277 452 302 q 554 218 513 252 l 729 156 l 1149 578 q 1181 651 1166 628 q 1216 674 1195 674 q 1248 660 1230 674 q 1305 600 1266 646 l 1438 379 q 1482 334 1459 366 q 1544 233 1504 302 q 1580 173 1560 204 q 1616 121 1600 142 q 1651 97 1631 121 q 1687 42 1671 73 q 1702 -12 1702 10 q 1657 -67 1702 -40 q 1533 -117 1612 -94 q 1349 -158 1453 -140 q 1125 -186 1244 -176 q 882 -197 1006 -197 m 119 -4 q 169 0 137 -2 q 238 4 201 2 q 308 6 275 5 q 360 7 340 7 l 403 72 l 398 180 l 379 216 l 383 282 q 375 288 380 286 q 366 290 371 290 q 336 269 357 290 q 288 215 315 248 q 230 144 260 182 q 162 59 185 89 q 129 15 138 28 q 119 -4 120 2 m 1064 -102 q 1130 -84 1109 -102 q 1095 68 1115 12 q 1056 124 1076 124 q 1038 106 1047 124 q 1018 43 1029 88 q 991 -84 1007 -3 q 1064 -102 1023 -102 m 442 -33 l 886 56 l 996 189 l 1084 225 l 1230 307 l 1312 270 l 1223 625 l 1160 452 l 979 319 l 943 309 q 927 298 938 308 q 885 255 917 288 l 753 119 q 622 87 677 106 q 524 39 567 68 q 442 -33 481 10 m 1389 -66 q 1449 -52 1419 -66 q 1432 59 1442 10 q 1410 137 1421 109 q 1390 166 1399 166 q 1365 104 1377 166 q 1346 -58 1353 43 q 1389 -66 1367 -66 m 737 146 l 671 149 l 605 397 l 688 593 l 635 840 l 740 925 l 787 606 l 719 441 l 719 351 l 815 319 l 815 393 l 940 558 l 932 623 l 958 756 l 858 857 l 895 1124 l 1034 934 l 1021 562 l 1119 511 l 737 146 m 411 285 l 365 313 q 474 511 433 427 q 541 654 516 595 q 579 754 565 714 q 606 815 593 791 q 636 859 618 838 q 681 906 654 879 l 761 986 q 838 1113 811 1080 q 888 1146 864 1146 q 936 1120 910 1146 q 999 1036 962 1095 q 1091 881 1036 978 q 1225 640 1146 783 l 1177 614 q 1063 818 1114 729 q 976 968 1013 907 q 918 1060 939 1029 q 891 1092 897 1092 q 871 1071 886 1092 q 838 1018 857 1050 q 804 954 820 986 l 719 868 q 676 822 691 840 q 652 785 661 804 q 631 735 642 766 q 562 567 608 675 q 411 285 515 459 m 1666 43 l 1560 159 q 1587 267 1575 232 q 1607 301 1600 301 q 1628 264 1617 301 q 1650 168 1640 227 q 1666 43 1661 109 z "},"⛱":{"ha":1763,"x_min":114,"x_max":1649,"o":"m 1489 260 q 1382 350 1440 317 q 1255 384 1324 384 q 1086 328 1171 384 q 1006 450 1063 400 q 876 527 949 500 q 724 554 802 554 q 614 535 665 554 q 521 480 562 517 q 410 610 471 574 q 257 646 350 646 q 197 645 228 646 q 139 640 167 643 q 265 885 176 782 q 482 1045 354 989 q 764 1102 610 1102 q 1056 1050 918 1102 q 1298 909 1193 999 q 1463 701 1403 819 q 1522 449 1522 583 q 1489 260 1522 354 m 943 -100 q 699 -94 795 -99 q 549 -77 603 -89 q 472 -45 494 -65 q 450 5 450 -25 q 486 70 450 47 q 587 92 521 92 l 587 41 q 530 31 555 41 q 505 5 505 21 q 546 -23 505 -12 q 683 -40 587 -35 q 943 -47 779 -46 l 943 -100 m 114 -231 l 114 153 q 364 207 239 189 q 609 226 489 226 q 817 213 720 226 q 1005 183 914 200 q 1187 153 1095 165 q 1380 140 1279 140 q 1504 145 1441 140 q 1649 164 1567 151 l 1649 -231 l 114 -231 m 168 -176 l 1595 -176 l 1595 100 q 1480 89 1531 93 q 1380 85 1430 85 q 1181 98 1274 85 q 998 129 1088 111 q 812 159 907 146 q 609 172 718 172 q 392 157 503 172 q 168 112 282 142 l 168 -176 m 705 -80 l 646 -64 l 821 585 l 879 567 l 705 -80 m 518 585 q 605 762 549 677 q 735 917 661 847 q 895 1036 809 987 q 769 1046 832 1046 q 529 1003 640 1046 q 336 882 418 960 q 215 698 255 804 q 245 700 230 699 q 274 701 260 701 q 408 672 347 701 q 518 585 470 644 m 1461 364 q 1468 450 1468 409 q 1416 673 1468 566 q 1267 864 1363 780 q 1041 996 1171 948 q 1125 791 1097 902 q 1154 568 1154 680 q 1140 416 1154 490 q 1257 438 1199 438 q 1364 419 1313 438 q 1461 364 1415 399 m 1000 1022 l 941 1038 l 980 1180 l 1039 1164 l 1000 1022 z "},"⛲":{"ha":1763,"x_min":269,"x_max":1494,"o":"m 882 -231 q 649 -200 760 -231 q 454 -118 539 -170 q 319 2 368 -66 q 269 143 269 69 q 339 253 269 214 q 562 310 409 293 q 557 412 559 376 q 554 475 555 448 q 553 539 553 502 q 522 573 534 555 q 499 616 510 591 q 471 669 471 640 q 486 712 471 692 q 495 741 486 731 q 514 759 505 751 q 523 783 523 768 q 552 986 523 897 q 631 1128 581 1076 q 748 1180 682 1180 q 830 1153 794 1180 q 882 1093 865 1125 q 933 1153 898 1125 q 1015 1180 969 1180 q 1132 1128 1081 1180 q 1212 986 1183 1076 q 1240 783 1240 897 l 1240 749 q 1293 673 1293 722 q 1265 621 1293 643 q 1243 578 1257 597 q 1213 543 1229 559 q 1210 480 1211 511 q 1209 409 1209 449 q 1208 309 1208 369 q 1426 252 1358 292 q 1494 143 1494 212 q 1444 2 1494 69 q 1310 -118 1395 -66 q 1114 -200 1224 -170 q 882 -231 1004 -231 m 589 81 q 541 96 564 81 q 517 127 517 111 q 528 153 517 143 q 550 170 538 163 q 566 182 562 177 q 569 197 571 189 q 583 204 568 204 q 603 200 594 204 q 611 188 611 195 q 593 166 611 177 q 576 137 576 155 q 587 111 576 125 q 598 89 598 97 q 589 81 598 81 m 690 321 q 747 324 720 323 q 802 325 775 325 q 770 411 800 376 q 697 454 741 447 q 692 403 694 435 q 690 321 690 371 m 882 110 q 775 122 808 110 q 743 159 743 135 q 757 188 743 177 q 785 216 770 198 q 803 271 800 233 q 736 269 774 271 q 656 264 699 268 q 662 433 656 370 q 680 526 668 495 q 711 565 692 556 q 757 574 730 574 q 832 573 802 574 q 882 572 863 572 q 930 573 899 572 q 1006 574 962 574 q 1057 561 1037 574 q 1087 514 1076 548 q 1102 420 1098 481 q 1107 264 1107 359 q 1027 269 1063 268 q 960 271 990 271 q 978 216 964 233 q 1006 188 993 198 q 1020 159 1020 177 q 988 122 1020 135 q 882 110 956 110 m 1207 96 q 1195 104 1195 96 q 1198 118 1195 109 q 1200 135 1200 127 q 1191 161 1200 151 q 1172 179 1181 172 q 1162 190 1162 186 q 1166 196 1162 193 q 1186 199 1171 199 q 1240 184 1217 199 q 1263 147 1263 170 q 1246 112 1263 128 q 1207 96 1230 96 m 743 622 q 683 638 711 622 q 655 671 655 654 q 682 704 655 688 q 736 720 709 720 q 753 711 753 720 q 739 697 753 705 q 724 673 724 689 q 739 646 724 657 q 755 629 755 635 q 743 622 755 622 m 1074 321 q 1072 403 1074 371 q 1066 454 1069 435 q 993 411 1022 447 q 961 325 964 376 q 1017 324 989 325 q 1074 321 1044 323 m 882 -7 q 1080 7 981 -7 q 1260 45 1179 22 q 1390 97 1341 68 q 1439 153 1439 125 q 1365 223 1439 194 q 1172 264 1292 252 q 1169 293 1170 275 q 1168 329 1168 311 q 1173 535 1168 456 q 1199 627 1179 614 q 1218 646 1211 635 q 1225 669 1225 656 q 1198 705 1225 689 q 1200 769 1200 738 q 1176 960 1200 876 q 1111 1091 1152 1043 q 1015 1139 1069 1139 q 946 1112 975 1139 q 882 1013 918 1085 q 817 1112 846 1085 q 748 1139 788 1139 q 653 1091 694 1139 q 587 960 611 1043 q 564 769 564 876 q 555 732 564 745 q 537 711 546 720 q 529 686 529 702 q 551 644 529 665 q 614 605 572 623 q 593 571 600 593 q 587 509 587 549 q 588 467 587 496 q 591 399 589 437 q 595 325 593 362 q 599 260 597 288 q 395 219 465 248 q 324 153 324 191 q 373 97 324 125 q 503 45 422 68 q 683 7 584 22 q 882 -7 782 -7 m 882 645 q 841 649 855 645 q 820 661 827 653 l 820 756 q 782 810 793 783 q 770 891 770 838 q 826 922 796 913 l 882 831 l 937 922 q 993 891 967 913 q 982 810 993 838 q 943 756 970 783 l 943 661 q 922 649 936 653 q 882 645 908 645 m 1045 624 q 1031 630 1031 624 q 1039 644 1031 635 q 1046 666 1046 652 q 1034 692 1046 684 q 1022 705 1022 700 q 1040 710 1022 710 q 1089 698 1067 710 q 1110 669 1110 686 q 1090 638 1110 652 q 1045 624 1070 624 m 621 727 q 619 747 620 739 q 618 767 618 756 q 638 938 618 870 q 688 1039 659 1006 q 747 1072 718 1072 q 809 1030 781 1072 q 848 900 837 987 l 850 890 q 861 871 851 879 q 882 864 871 864 q 903 871 893 864 q 913 890 912 879 l 915 900 q 954 1030 926 987 q 1016 1072 982 1072 q 1075 1039 1046 1072 q 1125 938 1105 1006 q 1145 767 1145 870 q 1144 747 1145 756 q 1143 727 1144 739 q 1045 744 1114 736 q 882 751 977 751 q 719 744 787 751 q 621 727 650 736 m 659 785 q 882 799 750 799 q 1104 785 1014 799 q 1090 908 1104 852 q 1055 998 1076 964 q 1016 1031 1035 1031 q 981 993 1000 1031 q 954 894 962 955 l 953 884 q 927 837 949 854 q 882 820 905 820 q 836 837 858 820 q 810 884 814 854 l 809 894 q 782 993 801 955 q 747 1031 764 1031 q 708 998 728 1031 q 673 908 688 964 q 659 785 659 852 z "},"⛳":{"ha":1763,"x_min":194,"x_max":1569,"o":"m 1025 -231 q 838 -213 914 -231 q 709 -165 761 -195 q 623 -98 658 -135 q 561 -21 588 -60 q 507 55 534 18 q 442 119 479 92 q 374 157 415 140 q 291 196 332 175 q 222 244 250 216 q 194 314 194 273 q 315 453 194 407 q 675 500 437 500 q 1027 468 865 500 q 1312 379 1190 436 q 1501 245 1434 321 q 1569 78 1569 168 q 1530 -46 1569 11 q 1417 -144 1490 -102 q 1244 -208 1344 -185 q 1025 -231 1145 -231 m 1025 -176 q 1278 -143 1167 -176 q 1452 -53 1388 -111 q 1515 78 1515 4 q 1450 221 1515 155 q 1270 338 1385 288 q 1003 417 1155 389 q 675 446 850 446 q 360 411 472 446 q 248 314 248 376 q 275 269 248 290 q 341 229 302 248 q 417 194 380 211 q 476 161 455 178 q 553 82 522 126 q 617 -8 585 37 q 697 -91 650 -53 q 823 -153 745 -130 q 1025 -176 901 -176 m 907 180 q 842 195 867 180 q 817 235 817 210 q 842 275 817 260 q 907 290 867 290 q 973 275 948 290 q 998 235 998 260 q 973 195 998 210 q 907 180 948 180 m 877 241 l 877 1154 q 884 1173 877 1166 q 905 1180 892 1180 q 926 1174 919 1180 q 932 1154 932 1167 l 932 241 l 877 241 m 922 640 l 883 666 q 961 745 900 706 q 1155 840 1022 784 l 1190 855 q 1325 920 1271 889 q 1408 981 1379 951 q 1197 1005 1297 981 q 987 1078 1097 1029 q 933 1099 951 1093 q 905 1107 914 1105 l 905 1159 q 956 1138 930 1149 q 1007 1118 981 1128 q 1058 1097 1033 1107 q 1262 1042 1161 1058 q 1476 1026 1362 1026 q 1447 960 1476 994 q 1359 891 1419 927 q 1207 814 1300 855 l 1172 800 q 1032 735 1083 762 q 956 686 981 708 q 922 640 931 665 z "},"⛴":{"ha":1763,"x_min":81,"x_max":1685,"o":"m 1596 210 l 1542 212 l 1550 507 q 1605 557 1596 511 l 1552 557 l 1555 681 l 1462 692 l 1462 858 l 1126 915 l 1126 1074 l 866 1125 l 699 1116 l 699 1006 l 644 1011 l 644 1113 l 617 1112 l 615 1166 l 869 1180 l 1210 1111 l 1210 1056 l 1180 1055 l 1180 960 l 1516 899 l 1516 739 l 1611 728 l 1607 592 l 1663 592 q 1646 516 1663 541 q 1604 481 1630 492 l 1596 210 m 406 -231 q 242 -178 312 -231 q 139 -32 173 -126 q 95 141 109 53 q 81 334 81 229 q 304 331 206 334 q 507 321 403 328 q 1090 274 801 300 q 1675 220 1380 248 l 1653 -47 q 1627 -140 1649 -98 q 1572 -206 1605 -181 q 1501 -231 1539 -231 l 406 -231 m 406 -176 l 1501 -176 q 1565 -136 1535 -176 q 1598 -43 1594 -96 l 1617 174 q 1059 223 1343 200 q 500 267 774 247 q 323 276 416 273 q 136 279 229 279 q 152 131 140 201 q 186 -5 165 61 q 271 -132 214 -88 q 406 -176 328 -176 m 684 298 l 397 310 l 507 576 l 657 576 l 684 298 m 1674 212 l 1630 218 l 1636 271 q 1613 298 1638 296 l 774 368 l 179 393 q 162 388 170 394 q 154 372 154 382 l 154 329 l 106 329 l 106 389 q 121 428 106 412 q 158 441 135 443 l 777 416 l 1628 345 q 1673 322 1662 342 q 1681 275 1685 303 l 1674 212 m 302 283 l 253 307 l 361 595 q 344 635 350 612 q 338 680 338 658 l 393 680 l 458 852 l 527 852 l 539 1018 l 794 1025 l 848 1019 l 848 1155 l 902 1143 l 902 951 l 796 970 l 589 966 l 578 798 l 496 798 l 438 646 l 397 646 q 403 617 397 631 q 420 597 410 602 l 302 283 m 928 269 l 928 385 l 975 385 l 975 269 l 928 269 m 505 650 l 538 736 l 706 736 l 706 650 l 505 650 m 797 260 l 743 266 l 760 595 q 790 609 777 595 q 806 645 804 624 l 762 645 l 781 1011 l 835 997 l 819 678 l 866 678 q 852 610 866 637 q 812 571 839 583 l 797 260 m 979 468 l 938 471 l 938 551 l 979 547 l 979 468 m 1138 249 l 1138 365 l 1185 365 l 1185 249 l 1138 249 m 627 836 l 633 908 l 667 909 l 661 836 l 627 836 m 1080 460 l 1040 463 l 1040 539 l 1080 534 l 1080 460 m 695 838 l 701 910 l 735 911 l 729 838 l 695 838 m 980 629 l 939 635 l 939 715 l 980 709 l 980 629 m 1182 451 l 1141 454 l 1141 527 l 1182 522 l 1182 451 m 1362 229 l 1362 351 l 1409 351 l 1409 229 l 1362 229 m 1082 618 l 1041 623 l 1041 701 l 1082 695 l 1082 618 m 1284 443 l 1243 446 l 1243 515 l 1284 510 l 1284 443 m 930 818 l 890 824 l 890 897 l 930 889 l 930 818 m 1183 606 l 1143 610 l 1143 687 l 1183 681 l 1183 606 m 731 1054 l 731 1084 l 754 1084 l 754 1054 l 731 1054 m 1385 434 l 1345 437 l 1345 503 l 1385 498 l 1385 434 m 1025 804 l 984 810 l 984 880 l 1025 872 l 1025 804 m 792 1054 l 792 1084 l 815 1084 l 815 1054 l 792 1054 m 1285 593 l 1244 598 l 1244 672 l 1285 666 l 1285 593 m 1486 426 l 1445 429 l 1445 493 l 1486 488 l 1486 426 m 1120 791 l 1079 797 l 1079 863 l 1120 854 l 1120 791 m 1387 581 l 1346 587 l 1346 658 l 1387 652 l 1387 581 m 990 1009 l 943 1018 l 943 1064 l 990 1055 l 990 1009 m 1215 777 l 1174 783 l 1174 845 l 1215 837 l 1215 777 m 1490 569 l 1448 574 l 1448 644 l 1490 637 l 1490 569 m 1085 990 l 1038 999 l 1038 1045 l 1085 1036 l 1085 990 m 1310 764 l 1269 770 l 1269 827 l 1310 819 l 1310 764 m 1404 750 l 1364 756 l 1364 810 l 1404 802 l 1404 750 z "},"⛵":{"ha":1763,"x_min":243,"x_max":1520,"o":"m 308 76 q 368 309 334 203 q 451 511 401 415 q 573 705 501 608 q 745 910 645 802 q 981 1152 846 1019 q 915 788 935 949 q 895 471 895 626 q 900 315 895 394 q 913 152 904 237 q 751 162 829 162 q 535 141 642 162 q 308 76 428 120 m 437 -176 l 1387 -176 q 1404 -166 1398 -176 l 1430 -124 l 313 -38 q 366 -142 334 -107 q 437 -176 397 -176 m 437 -231 q 315 -166 365 -231 q 243 22 266 -101 l 1520 -77 l 1452 -193 q 1387 -231 1431 -231 l 437 -231 m 1177 -67 l 538 -30 q 572 46 554 18 q 613 83 590 73 l 745 88 l 1120 47 q 1156 16 1148 43 l 1177 -67 m 849 -7 q 869 2 861 -7 q 878 24 878 12 q 869 46 878 37 q 849 55 861 55 q 829 46 838 55 q 821 24 821 37 q 829 2 821 12 q 849 -7 838 -7 m 973 -20 q 992 -11 984 -20 q 1000 10 1000 -2 q 992 31 1000 22 q 973 40 984 40 q 954 31 962 40 q 946 10 946 22 q 954 -11 946 -2 q 973 -20 962 -20 m 1087 -28 q 1104 -20 1097 -28 q 1111 -1 1111 -12 q 1104 18 1111 10 q 1087 26 1097 26 q 1070 18 1078 26 q 1063 -1 1063 10 q 1070 -20 1063 -12 q 1087 -28 1078 -28 m 380 153 q 561 201 466 184 q 751 217 655 217 q 802 216 777 217 q 852 212 827 214 q 840 473 840 345 q 853 730 840 603 q 891 986 865 857 q 693 769 778 871 q 548 568 608 667 q 446 368 487 469 q 380 153 406 266 m 895 50 l 972 1179 q 981 1180 977 1179 q 989 1180 985 1180 q 1027 1175 1006 1180 l 950 50 l 895 50 m 930 149 l 934 203 l 1322 210 l 982 1065 l 1008 1144 l 1402 157 l 930 149 z "},"⛷":{"ha":1763,"x_min":176,"x_max":1587,"o":"m 322 316 q 288 332 303 316 q 273 369 273 348 q 300 412 273 399 l 431 474 l 450 445 l 322 385 q 311 369 311 380 q 319 355 311 359 q 338 355 328 350 l 477 420 l 496 392 l 351 323 q 322 316 334 316 m 451 -197 q 517 -181 490 -197 l 1539 401 l 1512 441 l 522 -123 q 484 -134 505 -134 q 430 -121 456 -134 q 383 -109 405 -109 q 358 -118 368 -109 q 349 -142 349 -128 q 380 -181 349 -165 q 451 -197 411 -197 m 450 -231 q 356 -205 397 -231 q 315 -142 315 -180 q 335 -94 315 -114 q 383 -75 355 -75 q 438 -87 413 -75 q 482 -100 463 -100 q 505 -94 496 -100 l 1523 486 l 1587 389 l 534 -210 q 450 -231 497 -231 m 814 547 l 814 659 l 1461 967 q 1493 967 1478 975 q 1518 943 1508 960 q 1527 909 1527 927 q 1507 876 1527 886 l 814 547 m 848 600 l 1489 904 q 1495 913 1495 907 q 1488 930 1495 922 q 1472 935 1481 939 l 848 638 l 848 600 m 1448 806 l 1350 858 l 1373 970 q 1383 980 1375 979 q 1394 973 1391 981 l 1463 821 q 1461 808 1466 813 q 1448 806 1455 802 m 176 939 q 210 1060 176 1006 q 299 1147 243 1115 q 421 1180 355 1180 q 538 1149 485 1180 q 624 1065 591 1118 q 661 944 657 1012 q 743 953 703 950 q 819 956 782 956 q 984 941 908 956 q 1113 896 1061 926 q 1182 816 1165 865 l 827 652 l 827 570 l 1192 747 q 1151 649 1190 684 q 1039 587 1112 614 l 937 549 q 913 514 913 541 q 935 455 913 493 q 986 373 957 418 q 1037 285 1015 328 q 1061 208 1059 241 l 781 45 q 751 74 762 56 q 740 110 740 92 q 747 139 740 125 q 771 162 755 152 l 882 232 l 732 478 q 643 411 692 445 q 546 353 595 376 q 454 330 496 330 q 385 358 414 330 q 357 427 357 387 q 385 496 357 467 q 454 524 414 524 q 513 533 481 524 q 579 557 545 541 l 653 593 q 576 634 612 600 q 519 719 541 668 q 470 703 494 708 q 421 697 446 697 q 299 730 355 697 q 210 817 243 762 q 176 939 176 872 z "},"⛸":{"ha":1763,"x_min":156,"x_max":1607,"o":"m 1059 -51 q 919 -31 981 -51 q 797 14 857 -11 q 693 54 745 36 q 581 78 642 72 l 575 18 q 512 8 544 12 q 430 4 481 4 q 339 15 372 4 q 292 57 307 26 q 275 143 278 87 q 274 184 275 159 q 273 238 273 210 q 273 288 273 266 q 253 350 259 324 q 246 414 246 375 q 253 474 246 441 q 274 553 260 507 q 310 667 288 599 l 408 962 q 438 1025 420 1000 q 507 1061 457 1049 l 737 1119 q 784 1164 751 1148 q 861 1180 817 1180 q 952 1146 923 1180 q 989 1034 982 1113 l 1027 644 q 1052 588 1029 615 q 1125 523 1074 560 l 1449 285 q 1530 247 1495 268 q 1587 195 1566 227 q 1607 111 1607 163 q 1577 17 1607 52 q 1482 -35 1548 -19 q 1308 -51 1417 -51 l 1059 -51 m 1246 -231 q 995 -227 1122 -231 q 751 -218 867 -223 q 541 -208 634 -213 q 390 -198 447 -202 q 246 -185 307 -193 q 156 -174 185 -178 q 169 -127 156 -142 q 216 -110 182 -113 l 319 -102 q 357 -58 341 -95 q 383 27 373 -20 l 471 24 q 475 -54 471 -21 q 505 -111 480 -87 l 1078 -141 q 1128 -106 1114 -127 q 1141 -35 1141 -84 l 1213 -35 q 1222 -106 1213 -81 q 1259 -148 1230 -132 l 1440 -148 q 1484 -135 1468 -148 q 1501 -97 1501 -121 q 1491 -59 1501 -81 q 1465 -23 1480 -36 l 1506 -13 q 1572 -104 1552 -46 q 1592 -217 1592 -163 q 1474 -225 1528 -222 q 1367 -229 1421 -228 q 1246 -231 1312 -231 m 1579 76 q 1463 71 1519 73 q 1354 69 1408 69 q 1183 75 1265 69 q 1027 92 1102 81 q 903 114 968 100 q 768 147 838 128 q 621 188 698 165 q 461 238 545 211 q 284 294 377 264 l 284 349 q 505 278 401 311 q 702 219 609 245 q 877 173 794 193 q 1035 142 960 153 q 1189 125 1108 131 q 1360 120 1270 120 q 1467 122 1412 120 q 1579 126 1521 123 l 1579 76 m 1048 359 q 1013 372 1025 359 q 1000 406 1000 385 q 1013 441 1000 429 q 1048 454 1026 454 q 1082 441 1069 454 q 1095 406 1095 429 q 1082 372 1095 385 q 1048 359 1069 359 m 1181 239 q 1146 252 1159 239 q 1134 286 1134 264 q 1147 320 1134 308 q 1181 333 1160 333 q 1216 320 1203 333 q 1228 286 1228 308 q 1216 251 1228 264 q 1181 239 1203 239 m 928 496 q 894 509 907 496 q 881 543 881 522 q 894 577 881 565 q 928 590 907 590 q 963 577 950 590 q 975 543 975 565 q 963 508 975 521 q 928 496 950 496 m 1059 3 l 1308 3 q 1455 14 1401 3 q 1531 47 1508 24 q 1553 111 1553 71 q 1515 193 1553 168 q 1419 239 1477 219 l 1092 480 q 1010 551 1042 517 q 973 637 979 585 l 935 1030 q 915 1106 930 1087 q 859 1126 899 1126 q 800 1111 822 1126 q 777 1073 777 1097 l 521 1009 q 481 991 492 1002 q 458 946 470 980 l 361 653 q 326 541 339 585 q 306 468 312 497 q 300 414 300 439 q 307 352 300 377 q 327 292 313 328 q 327 242 327 271 q 329 186 328 214 q 330 142 330 159 q 340 86 333 104 q 368 63 348 68 q 430 58 389 58 q 481 60 456 58 q 525 65 507 62 l 530 135 q 683 114 616 135 q 817 64 750 92 q 931 22 874 41 q 1059 3 988 3 m 1058 380 l 1023 422 l 1168 546 l 1203 505 l 1058 380 m 851 685 q 817 697 829 685 q 804 732 804 710 q 817 766 804 753 q 851 779 830 779 q 885 766 873 779 q 898 732 898 753 q 885 697 898 710 q 851 685 873 685 m 1196 264 l 1155 301 l 1284 441 l 1324 405 l 1196 264 m 946 522 l 919 568 l 1077 659 l 1103 612 l 946 522 m 860 706 l 846 758 l 1035 809 l 1048 757 l 860 706 m 814 853 q 780 866 792 853 q 767 900 767 878 q 780 935 767 922 q 814 947 793 947 q 849 935 836 947 q 861 900 861 922 q 849 866 861 878 q 814 853 836 853 m 813 872 l 802 926 l 1017 973 l 1028 920 l 813 872 z "},"⛹":{"ha":1763,"x_min":207,"x_max":1556,"o":"m 801 -231 q 718 -202 753 -231 q 682 -133 682 -173 q 699 -83 682 -105 q 743 -47 715 -60 q 751 112 743 47 q 776 222 758 176 q 824 308 793 269 l 763 561 q 652 469 713 509 q 531 406 591 429 q 423 382 471 382 q 350 404 377 382 q 322 459 322 425 q 344 509 322 489 q 400 535 366 528 l 512 557 q 564 585 537 562 q 620 639 591 608 q 682 701 650 670 q 750 756 714 732 q 824 785 785 779 q 734 861 768 812 q 700 970 700 909 q 728 1076 700 1028 q 804 1152 756 1123 q 909 1180 851 1180 q 1014 1152 967 1180 q 1089 1076 1061 1124 q 1118 970 1118 1029 q 1098 888 1118 925 q 1045 821 1079 851 q 1234 797 1143 819 q 1398 736 1325 774 q 1514 652 1471 699 q 1556 558 1556 606 q 1534 504 1556 527 q 1480 481 1512 481 q 1432 498 1451 481 q 1395 539 1413 515 q 1351 589 1377 564 q 1283 630 1325 614 q 1174 647 1241 647 l 1239 413 q 1251 349 1249 380 q 1254 288 1254 317 q 1252 233 1254 263 q 1250 182 1250 202 q 1267 126 1250 148 q 1312 105 1285 105 q 1348 118 1334 105 q 1377 142 1362 130 q 1417 155 1392 155 q 1489 116 1461 155 q 1517 26 1517 78 q 1499 -36 1517 -14 q 1453 -58 1482 -58 q 1412 -45 1432 -58 q 1382 -12 1392 -33 q 1331 -43 1366 -31 q 1253 -55 1295 -55 q 1114 -6 1175 -55 q 990 154 1053 43 q 952 89 966 117 q 930 33 937 61 q 920 -32 922 4 q 918 -122 918 -68 q 884 -200 918 -170 q 801 -231 850 -231 m 279 -10 q 311 66 307 20 l 249 66 q 279 -10 253 24 m 385 -71 l 385 66 l 345 66 q 302 -35 339 4 q 385 -71 338 -66 m 249 100 l 311 100 q 279 175 305 147 q 249 100 253 142 m 418 -71 q 501 -35 465 -66 q 458 66 464 5 l 418 66 l 418 -71 m 401 -112 q 304 -86 348 -112 q 233 -15 260 -60 q 207 83 207 29 q 233 181 207 137 q 304 251 260 225 q 401 277 348 277 q 500 251 456 277 q 570 181 544 225 q 596 83 596 137 q 570 -15 596 29 q 500 -86 544 -60 q 401 -112 456 -112 m 345 100 l 385 100 l 385 236 q 302 200 337 231 q 345 100 339 161 m 524 -10 q 555 66 549 22 l 493 66 q 524 -10 497 19 m 418 100 l 458 100 q 502 200 464 161 q 418 236 466 231 l 418 100 m 493 100 l 555 100 q 525 175 549 143 q 493 100 497 146 z "},"⛺":{"ha":1763,"x_min":60,"x_max":1704,"o":"m 751 -75 q 687 -73 718 -75 q 639 -65 656 -70 q 536 -47 597 -62 q 407 -11 475 -33 q 274 38 339 12 q 158 90 210 64 q 80 140 106 117 l 87 234 q 163 396 111 292 q 282 616 216 499 l 294 638 q 367 783 332 705 q 425 935 401 861 q 464 1012 440 980 q 536 1044 488 1044 q 622 1036 562 1044 q 798 1015 682 1027 l 825 1013 q 978 999 906 1005 q 1101 989 1049 992 q 1173 985 1153 985 q 1226 968 1207 985 q 1264 904 1245 950 q 1302 815 1278 871 q 1353 696 1326 760 q 1407 576 1381 633 q 1449 484 1432 519 l 1675 20 l 1501 -7 l 1491 46 l 1594 62 l 1404 454 q 1361 547 1387 490 q 1306 668 1335 604 q 1254 789 1278 732 q 1216 878 1230 845 q 1194 921 1203 910 q 1171 931 1185 931 q 1151 925 1160 931 q 1134 901 1142 918 l 1026 675 q 905 428 968 553 q 782 189 842 303 q 673 -16 722 74 q 707 -19 687 -18 q 751 -21 728 -21 q 838 -18 787 -21 q 956 -6 889 -15 l 981 -47 q 928 -64 956 -58 q 859 -73 900 -71 q 751 -75 817 -75 m 104 93 q 73 103 75 93 l 61 286 q 95 308 60 308 q 133 286 132 308 l 145 107 q 104 93 146 93 m 652 -95 q 619 -87 621 -95 l 606 107 q 619 123 606 117 q 651 129 632 129 q 683 123 671 129 q 694 109 694 117 l 694 -82 q 652 -95 694 -95 m 618 -8 q 807 356 720 184 q 979 703 895 528 l 1091 935 q 949 946 1025 939 q 797 961 873 953 q 654 977 721 968 q 539 991 587 985 q 508 980 522 994 q 485 941 494 966 q 408 742 444 821 q 338 604 372 664 l 326 583 q 125 174 157 282 q 227 118 165 146 q 359 63 288 89 q 498 18 431 37 q 618 -8 566 -1 m 1052 -5 l 1042 49 q 1189 67 1116 63 q 1334 71 1262 71 l 1331 16 q 1193 13 1262 16 q 1052 -5 1123 10 m 869 -68 q 814 -64 832 -68 q 795 -54 795 -61 q 822 12 795 -39 q 890 133 848 62 q 978 284 931 203 q 1065 444 1024 366 q 1129 587 1105 523 l 1154 652 q 1171 671 1161 671 q 1186 653 1181 671 q 1221 536 1200 601 q 1270 393 1242 471 l 1283 357 q 1352 235 1308 292 q 1443 134 1396 178 q 1522 58 1490 89 q 1555 12 1555 26 q 1528 -6 1555 3 q 1461 -21 1501 -15 q 1385 -27 1422 -27 q 1340 -24 1363 -27 q 1301 -14 1318 -20 l 1219 399 q 1193 498 1206 465 q 1172 532 1179 532 q 1150 500 1162 532 q 1124 418 1137 469 q 1100 306 1111 367 q 1082 186 1088 245 q 1075 79 1075 126 q 1074 7 1075 31 q 1070 -27 1073 -17 q 1039 -47 1067 -38 q 966 -62 1011 -56 q 869 -68 922 -68 m 1660 -7 q 1632 -4 1645 -7 q 1619 4 1619 0 l 1626 193 q 1665 212 1627 212 q 1702 194 1704 212 l 1692 7 q 1660 -7 1691 -7 z "},"⛽":{"ha":1763,"x_min":190,"x_max":1573,"o":"m 255 -231 q 205 -214 221 -231 q 190 -169 190 -198 q 205 -112 190 -140 q 248 -65 220 -83 l 248 884 q 289 1036 248 969 q 399 1142 329 1103 q 557 1180 469 1180 l 806 1180 q 964 1142 895 1180 q 1075 1036 1034 1103 q 1115 884 1115 969 l 1115 -65 q 1158 -112 1143 -83 q 1173 -169 1173 -140 q 1158 -214 1173 -198 q 1108 -231 1142 -231 l 255 -231 m 275 -89 l 275 -35 l 1088 -35 l 1088 -89 l 275 -89 m 682 38 q 574 66 622 38 q 497 141 526 94 q 469 248 469 189 q 497 354 469 307 q 574 429 526 401 q 682 456 622 456 q 789 429 741 456 q 866 353 838 401 q 894 248 894 306 q 866 141 894 189 q 789 66 838 94 q 682 38 741 38 m 682 83 q 799 130 752 83 q 846 248 846 178 q 799 365 846 317 q 682 412 751 412 q 564 365 612 412 q 517 248 517 317 q 564 130 517 178 q 682 83 612 83 m 682 140 q 631 160 652 140 q 606 208 610 180 q 618 261 602 237 l 682 351 l 745 261 q 758 208 762 237 q 732 160 753 180 q 682 140 712 140 m 264 -176 l 1099 -176 q 1119 -158 1119 -176 q 1104 -122 1119 -142 q 1061 -83 1090 -102 l 1061 884 q 1030 1005 1061 950 q 943 1093 999 1060 q 813 1126 888 1126 l 550 1126 q 420 1093 476 1126 q 333 1005 364 1060 q 302 884 302 950 l 302 -83 q 259 -122 273 -102 q 244 -158 244 -142 q 264 -176 244 -176 m 537 654 l 537 713 l 827 713 l 827 654 l 537 654 m 435 553 l 435 965 l 928 965 l 928 553 l 435 553 m 476 593 l 888 593 l 888 927 l 476 927 l 476 593 m 1337 -153 q 1255 -114 1287 -153 q 1223 -15 1223 -75 q 1237 81 1223 31 q 1276 182 1250 131 l 1281 193 q 1326 315 1312 256 q 1340 430 1340 374 q 1335 498 1340 467 q 1320 559 1331 530 l 1371 584 q 1390 501 1385 541 q 1394 430 1394 461 q 1379 303 1394 368 q 1329 168 1364 239 l 1323 157 q 1290 68 1302 115 q 1278 -15 1278 21 q 1294 -76 1278 -53 q 1337 -98 1310 -98 q 1379 -80 1362 -98 q 1395 -35 1395 -62 q 1367 44 1395 -3 q 1284 149 1339 92 l 1267 167 q 1158 296 1210 230 q 1063 427 1105 363 l 1109 457 q 1200 330 1149 395 q 1307 204 1251 265 l 1324 186 q 1419 63 1389 116 q 1449 -35 1449 9 q 1417 -119 1449 -85 q 1337 -153 1385 -153 m 537 787 l 537 846 l 827 846 l 827 787 l 537 787 m 437 662 l 413 916 q 425 977 409 958 q 474 996 441 996 l 890 996 q 939 977 924 996 q 951 916 955 958 l 926 662 l 917 662 l 890 945 l 474 945 l 447 662 l 437 662 m 1108 570 l 1108 930 q 1141 918 1126 930 q 1156 892 1156 905 l 1156 608 q 1141 583 1156 595 q 1108 570 1126 570 m 1301 572 l 1373 591 l 1336 736 q 1335 771 1331 759 q 1357 788 1340 783 l 1430 808 q 1404 846 1421 833 l 1371 871 l 1385 900 l 1330 931 l 1309 895 q 1262 835 1274 858 q 1250 788 1250 812 q 1251 769 1250 779 q 1255 748 1253 760 l 1301 572 m 1274 515 l 1217 734 q 1211 762 1213 748 q 1209 788 1209 775 q 1223 848 1209 820 q 1276 920 1237 876 l 1316 985 l 1438 918 l 1419 886 l 1423 882 q 1454 850 1442 867 q 1470 813 1466 833 l 1478 778 l 1375 751 l 1424 556 l 1274 515 m 1403 581 l 1391 627 l 1430 638 q 1447 651 1442 642 q 1449 671 1453 661 l 1421 781 l 1459 794 l 1488 684 q 1485 625 1497 648 q 1445 593 1473 602 l 1403 581 m 1386 928 l 1340 958 l 1386 1039 l 1532 1167 q 1544 1171 1537 1171 q 1564 1161 1554 1171 q 1573 1141 1573 1152 q 1567 1125 1573 1131 l 1429 1004 l 1386 928 z "}}}
